<?xml version="1.0" encoding="UTF-8" standalone="no"?>
<!-- Created with Inkscape (http://www.inkscape.org/) -->

<svg
   width="351.6925mm"
   height="199.66898mm"
   viewBox="0 0 351.6925 199.66898"
   version="1.1"
   id="svg1"
   xml:space="preserve"
   xmlns:xlink="http://www.w3.org/1999/xlink"
   xmlns="http://www.w3.org/2000/svg"
   xmlns:svg="http://www.w3.org/2000/svg"><defs
     id="defs1"><linearGradient
       id="linearGradient34"><stop
         style="stop-color:#ffd42a;stop-opacity:1;"
         offset="0"
         id="stop34" /><stop
         style="stop-color:#ffd42a;stop-opacity:0;"
         offset="1"
         id="stop35" /></linearGradient><linearGradient
       xlink:href="#linearGradient34"
       id="linearGradient35"
       x1="55.813087"
       y1="156.18739"
       x2="128.02081"
       y2="187.97244"
       gradientUnits="userSpaceOnUse" /><linearGradient
       xlink:href="#linearGradient34"
       id="linearGradient2"
       gradientUnits="userSpaceOnUse"
       x1="55.813087"
       y1="156.18739"
       x2="128.02081"
       y2="187.97244" /><linearGradient
       xlink:href="#linearGradient34"
       id="linearGradient3"
       gradientUnits="userSpaceOnUse"
       x1="55.813087"
       y1="156.18739"
       x2="128.02081"
       y2="187.97244" /><linearGradient
       xlink:href="#linearGradient34"
       id="linearGradient4"
       gradientUnits="userSpaceOnUse"
       x1="55.813087"
       y1="156.18739"
       x2="128.02081"
       y2="187.97244" /><linearGradient
       xlink:href="#linearGradient34"
       id="linearGradient5"
       gradientUnits="userSpaceOnUse"
       x1="55.813087"
       y1="156.18739"
       x2="128.02081"
       y2="187.97244" /><linearGradient
       xlink:href="#linearGradient34"
       id="linearGradient6"
       gradientUnits="userSpaceOnUse"
       x1="55.813087"
       y1="156.18739"
       x2="128.02081"
       y2="187.97244" /><linearGradient
       xlink:href="#linearGradient34"
       id="linearGradient7"
       gradientUnits="userSpaceOnUse"
       x1="55.813087"
       y1="156.18739"
       x2="128.02081"
       y2="187.97244" /><linearGradient
       xlink:href="#linearGradient34"
       id="linearGradient8"
       gradientUnits="userSpaceOnUse"
       x1="55.813087"
       y1="156.18739"
       x2="128.02081"
       y2="187.97244" /><linearGradient
       xlink:href="#linearGradient34"
       id="linearGradient9"
       gradientUnits="userSpaceOnUse"
       x1="55.813087"
       y1="156.18739"
       x2="128.02081"
       y2="187.97244" /><linearGradient
       xlink:href="#linearGradient34"
       id="linearGradient10"
       gradientUnits="userSpaceOnUse"
       x1="55.813087"
       y1="156.18739"
       x2="128.02081"
       y2="187.97244" /><linearGradient
       xlink:href="#linearGradient34"
       id="linearGradient11"
       gradientUnits="userSpaceOnUse"
       x1="55.813087"
       y1="156.18739"
       x2="128.02081"
       y2="187.97244" /><linearGradient
       xlink:href="#linearGradient34"
       id="linearGradient12"
       gradientUnits="userSpaceOnUse"
       x1="55.813087"
       y1="156.18739"
       x2="128.02081"
       y2="187.97244" /><linearGradient
       xlink:href="#linearGradient34"
       id="linearGradient13"
       gradientUnits="userSpaceOnUse"
       x1="55.813087"
       y1="156.18739"
       x2="128.02081"
       y2="187.97244" /><linearGradient
       xlink:href="#linearGradient34"
       id="linearGradient14"
       gradientUnits="userSpaceOnUse"
       x1="55.813087"
       y1="156.18739"
       x2="128.02081"
       y2="187.97244" /><linearGradient
       xlink:href="#linearGradient34"
       id="linearGradient15"
       gradientUnits="userSpaceOnUse"
       x1="55.813087"
       y1="156.18739"
       x2="128.02081"
       y2="187.97244" /><linearGradient
       xlink:href="#linearGradient34"
       id="linearGradient16"
       gradientUnits="userSpaceOnUse"
       x1="55.813087"
       y1="156.18739"
       x2="128.02081"
       y2="187.97244" /><linearGradient
       xlink:href="#linearGradient34"
       id="linearGradient17"
       gradientUnits="userSpaceOnUse"
       x1="55.813087"
       y1="156.18739"
       x2="128.02081"
       y2="187.97244" /><linearGradient
       xlink:href="#linearGradient34"
       id="linearGradient18"
       gradientUnits="userSpaceOnUse"
       x1="55.813087"
       y1="156.18739"
       x2="128.02081"
       y2="187.97244" /><linearGradient
       xlink:href="#linearGradient34"
       id="linearGradient19"
       gradientUnits="userSpaceOnUse"
       x1="55.813087"
       y1="156.18739"
       x2="128.02081"
       y2="187.97244" /></defs><g
     id="layer1"
     transform="translate(-4.8415367,-5.9159027)"><g
       id="g17"
       transform="matrix(3.819629,0,0,5.2044947,-201.41126,-804.6346)"
       style="fill:url(#linearGradient35);fill-opacity:1"><path
         style="fill:url(#linearGradient2);fill-opacity:1"
         d="m 107.41021,183.05877 c -0.32911,-0.41965 -0.31975,-0.429 0.0999,-0.0999 0.25466,0.19972 0.46302,0.40808 0.46302,0.46302 0,0.21776 -0.21727,0.0776 -0.56291,-0.36312 z m -11.872505,-9.59115 c -0.339169,-0.21919 -0.329551,-0.25707 0.06615,-0.26053 0.254661,-0.002 0.463021,0.11501 0.463021,0.26053 0,0.32269 -0.02984,0.32269 -0.529167,0 z m -6.945312,-0.43981 c 0.181901,-0.0734 0.479557,-0.0734 0.661458,0 0.181901,0.0734 0.03307,0.13345 -0.330729,0.13345 -0.363802,0 -0.51263,-0.06 -0.330729,-0.13345 z m 29.699477,-4.158 c 0,-0.0549 0.20836,-0.2633 0.46302,-0.46302 0.41965,-0.32911 0.429,-0.31975 0.0999,0.0999 -0.34565,0.44073 -0.56292,0.58089 -0.56292,0.36313 z m -42.597914,-1.09073 c 0.341774,-0.3638 0.680939,-0.66146 0.753699,-0.66146 0.07276,0 -0.147342,0.29766 -0.489116,0.66146 -0.341774,0.3638 -0.680939,0.66146 -0.753699,0.66146 -0.07276,0 0.147341,-0.29766 0.489116,-0.66146 z m 39.464694,-0.39687 c 0,-0.36381 0.0601,-0.51263 0.13345,-0.33073 0.0734,0.1819 0.0734,0.47955 0,0.66145 -0.0734,0.18191 -0.13345,0.0331 -0.13345,-0.33072 z m 2.33947,0.42927 c 0,-0.0549 0.20836,-0.2633 0.46302,-0.46302 0.41965,-0.32911 0.429,-0.31975 0.0999,0.0999 -0.34565,0.44073 -0.56292,0.58089 -0.56292,0.36313 z m -42.597914,-1.09073 c 0.341774,-0.3638 0.680939,-0.66146 0.753699,-0.66146 0.07276,0 -0.147342,0.29766 -0.489116,0.66146 -0.341774,0.3638 -0.680939,0.66146 -0.753699,0.66146 -0.07276,0 0.147342,-0.29766 0.489116,-0.66146 z m 20.70868,-1.1094 c 0.257431,-0.0671 0.614619,-0.0627 0.79375,0.01 0.179132,0.0725 -0.03149,0.12736 -0.468056,0.12197 -0.436562,-0.005 -0.583125,-0.0647 -0.325694,-0.13178 z m 13.422564,0.0835 c 0,-0.0549 0.20836,-0.2633 0.46303,-0.46302 0.41964,-0.32911 0.429,-0.31975 0.0999,0.0999 -0.34564,0.44072 -0.56292,0.58088 -0.56292,0.36312 z m -4.7625,-0.26458 c 0,-0.0549 0.20836,-0.2633 0.46303,-0.46302 0.41964,-0.32911 0.429,-0.31975 0.0999,0.0999 -0.34564,0.44073 -0.56292,0.58089 -0.56292,0.36313 z m -11.641661,-0.79375 c 0,-0.0549 0.208359,-0.2633 0.46302,-0.46302 0.419644,-0.32911 0.429003,-0.31975 0.09989,0.0999 -0.345643,0.44073 -0.562915,0.58089 -0.562915,0.36313 z m 22.225001,-0.82615 c 0.34177,-0.3638 0.68094,-0.66146 0.7537,-0.66146 0.0728,0 -0.14734,0.29766 -0.48912,0.66146 -0.34177,0.3638 -0.68094,0.66146 -0.7537,0.66146 -0.0728,0 0.14734,-0.29766 0.48912,-0.66146 z m -23.283335,0.0324 c 0,-0.0549 0.20836,-0.2633 0.463021,-0.46302 0.419644,-0.32911 0.429002,-0.31975 0.0999,0.0999 -0.345644,0.44073 -0.562916,0.58089 -0.562916,0.36313 z M 114.05854,162.752 c 0.34177,-0.3638 0.68094,-0.66146 0.7537,-0.66146 0.0728,0 -0.14734,0.29766 -0.48912,0.66146 -0.34177,0.3638 -0.68094,0.66146 -0.7537,0.66146 -0.0728,0 0.14734,-0.29766 0.48912,-0.66146 z m -7.14375,0.29698 c 0,-0.0549 0.20836,-0.2633 0.46302,-0.46302 0.41964,-0.32911 0.429,-0.31975 0.0999,0.0999 -0.34564,0.44073 -0.56291,0.58089 -0.56291,0.36313 z m 3.175,-0.69386 c 0,-0.14552 0.12609,-0.26458 0.2802,-0.26458 0.15411,0 0.20661,0.11906 0.11667,0.26458 -0.0899,0.14552 -0.21602,0.26459 -0.2802,0.26459 -0.0642,0 -0.11667,-0.11907 -0.11667,-0.26459 z m -2.91042,-1.95198 c 0,-0.0549 0.20836,-0.2633 0.46302,-0.46302 0.41965,-0.3291 0.429,-0.31975 0.0999,0.0999 -0.34565,0.44073 -0.56292,0.58089 -0.56292,0.36312 z m -24.655857,-0.34542 c 0.190996,-0.0764 0.419199,-0.067 0.507118,0.0209 0.08792,0.0879 -0.06835,0.15046 -0.347266,0.13897 -0.308224,-0.0127 -0.370919,-0.0754 -0.159852,-0.15985 z m 24.523567,-1.67135 c -0.0899,-0.14552 -0.0374,-0.26458 0.11668,-0.26458 0.15411,0 0.28019,0.11906 0.28019,0.26458 0,0.14552 -0.0525,0.26459 -0.11667,0.26459 -0.0642,0 -0.19026,-0.11907 -0.2802,-0.26459 z m 16.13958,-1.85208 c 0.26339,-0.29104 0.53842,-0.52917 0.61118,-0.52917 0.0728,0 -0.0832,0.23813 -0.34659,0.52917 -0.26339,0.29104 -0.53842,0.52917 -0.61119,0.52917 -0.0728,0 0.0832,-0.23813 0.3466,-0.52917 z"
         id="path34" /><path
         style="fill:url(#linearGradient3);fill-opacity:1"
         d="m 102.269,191.84157 c -0.49319,-0.39513 -0.48994,-0.40001 0.0817,-0.12299 0.32742,0.15867 0.59531,0.34384 0.59531,0.41148 0,0.20246 -0.13722,0.14399 -0.67704,-0.28849 z m -4.383794,-2.69739 c -0.329107,-0.41964 -0.319749,-0.429 0.0999,-0.0999 0.440729,0.34564 0.580887,0.56292 0.363126,0.56292 -0.05494,0 -0.263302,-0.20836 -0.463021,-0.46303 z m 22.015054,-1.80798 c 0.0127,-0.30823 0.0754,-0.37092 0.15985,-0.15985 0.0764,0.19099 0.067,0.4192 -0.0209,0.50711 -0.0879,0.0879 -0.15045,-0.0684 -0.13896,-0.34726 z m -23.01875,-0.26459 c 0.0127,-0.30822 0.07539,-0.37091 0.159852,-0.15985 0.07643,0.191 0.06703,0.4192 -0.02089,0.50712 -0.08792,0.0879 -0.150453,-0.0684 -0.138964,-0.34727 z m 6.82453,-1.10243 c -0.32911,-0.41964 -0.31975,-0.429 0.0999,-0.0999 0.44073,0.34564 0.58089,0.56292 0.36313,0.56292 -0.0549,0 -0.2633,-0.20836 -0.46302,-0.46303 z m -4.65757,-1.04325 c 0.257431,-0.0671 0.614618,-0.0627 0.79375,0.01 0.17913,0.0725 -0.03149,0.12736 -0.468057,0.12197 -0.436562,-0.005 -0.583124,-0.0647 -0.325693,-0.13178 z m 4.39299,-1.07341 c -0.32911,-0.41965 -0.31975,-0.429 0.0999,-0.0999 0.44073,0.34565 0.58089,0.56292 0.36313,0.56292 -0.055,0 -0.2633,-0.20836 -0.46302,-0.46302 z m 11.71719,-1.12448 c 0,-0.3638 0.0601,-0.51263 0.13345,-0.33073 0.0734,0.1819 0.0734,0.47956 0,0.66146 -0.0734,0.1819 -0.13345,0.0331 -0.13345,-0.33073 z m -27.884435,-0.9855 c 0.475549,-0.0589 1.189923,-0.0577 1.5875,0.003 0.397576,0.0604 0.0085,0.10855 -0.864635,0.10706 -0.873125,-0.001 -1.198414,-0.0509 -0.722865,-0.10976 z m -2.104869,-0.25358 c 0.190996,-0.0764 0.419199,-0.067 0.507118,0.0209 0.08792,0.0879 -0.06835,0.15046 -0.347265,0.13897 -0.308225,-0.0127 -0.37092,-0.0754 -0.159853,-0.15986 z m 20.388774,-0.54686 c -0.3291,-0.41964 -0.31975,-0.429 0.0999,-0.0999 0.44073,0.34564 0.58088,0.56291 0.36312,0.56291 -0.0549,0 -0.2633,-0.20836 -0.46302,-0.46302 z m -18.152714,-0.52059 c 0.402183,-0.0608 0.997495,-0.0592 1.322916,0.004 0.325421,0.0628 -0.0036,0.11256 -0.731242,0.11058 -0.727604,-0.002 -0.993857,-0.0534 -0.591674,-0.11419 z m -17.581893,-0.78463 c 0.190996,-0.0764 0.419199,-0.067 0.507118,0.0209 0.08792,0.0879 -0.06835,0.15045 -0.347265,0.13896 -0.308225,-0.0127 -0.370919,-0.0754 -0.159853,-0.15985 z m 6.879167,-0.26458 c 0.190996,-0.0764 0.419199,-0.067 0.507118,0.0209 0.08792,0.0879 -0.06835,0.15045 -0.347266,0.13896 -0.308224,-0.0127 -0.370919,-0.0754 -0.159852,-0.15985 z m -4.24987,-0.25907 c 0.181901,-0.0734 0.479557,-0.0734 0.661458,0 0.181901,0.0734 0.03307,0.13345 -0.330729,0.13345 -0.363802,0 -0.51263,-0.06 -0.330729,-0.13345 z m 2.116667,0 c 0.181901,-0.0734 0.479557,-0.0734 0.661458,0 0.181901,0.0734 0.03307,0.13345 -0.330729,0.13345 -0.363802,0 -0.51263,-0.06 -0.330729,-0.13345 z m 27.268623,-0.2701 c 0.19099,-0.0764 0.41919,-0.067 0.50711,0.0209 0.0879,0.0879 -0.0683,0.15045 -0.34726,0.13896 -0.30823,-0.0127 -0.37092,-0.0754 -0.15985,-0.15985 z m -24.870837,-0.79375 c 0.190996,-0.0764 0.419199,-0.067 0.507118,0.0209 0.08792,0.0879 -0.06835,0.15045 -0.347266,0.13896 -0.308224,-0.0127 -0.370919,-0.0754 -0.159852,-0.15985 z m 12.1034,-0.58833 c -0.08155,-0.13195 0.09002,-0.1776 0.381261,-0.10144 0.617798,0.16156 0.695893,0.34135 0.148271,0.34135 -0.209693,0 -0.447982,-0.10796 -0.529532,-0.23991 z m 1.10923,-0.46449 c 0.181901,-0.0734 0.479557,-0.0734 0.661458,0 0.181901,0.0734 0.03307,0.13345 -0.330729,0.13345 -0.363802,0 -0.51263,-0.06 -0.330729,-0.13345 z m 17.214457,-0.2701 c 0.19099,-0.0764 0.41919,-0.067 0.50711,0.0209 0.0879,0.0879 -0.0683,0.15046 -0.34726,0.13897 -0.30823,-0.0127 -0.37092,-0.0754 -0.15985,-0.15986 z m -17.462504,-1.05833 c 0.190996,-0.0764 0.419199,-0.067 0.507118,0.0209 0.08792,0.0879 -0.06835,0.15045 -0.347266,0.13896 -0.308224,-0.0127 -0.370919,-0.0754 -0.159852,-0.15985 z m 3.439583,-0.52917 c 0.190996,-0.0764 0.419199,-0.067 0.507118,0.0209 0.08792,0.0879 -0.06835,0.15046 -0.347265,0.13897 -0.308225,-0.0127 -0.37092,-0.0754 -0.159853,-0.15986 z m -4.779036,-0.79973 c 0.327422,-0.0631 0.863203,-0.0631 1.190625,0 0.327422,0.0631 0.05953,0.11466 -0.595313,0.11466 -0.654843,0 -0.922734,-0.0516 -0.595312,-0.11466 z m 2.38125,-0.25309 c 0.181901,-0.0734 0.479557,-0.0734 0.661458,0 0.181901,0.0734 0.03307,0.13346 -0.330729,0.13346 -0.363802,0 -0.51263,-0.0601 -0.330729,-0.13346 z m 6.17245,-0.24369 c 0.0127,-0.30823 0.07539,-0.37092 0.159853,-0.15985 0.07643,0.19099 0.06703,0.4192 -0.02089,0.50711 -0.08792,0.0879 -0.150452,-0.0683 -0.138963,-0.34726 z m -6.437034,-1.07922 c 0.181901,-0.0734 0.479558,-0.0734 0.661459,0 0.181901,0.0734 0.03307,0.13345 -0.330729,0.13345 -0.363802,0 -0.512631,-0.06 -0.33073,-0.13345 z m 2.66237,-0.53468 c 0.190996,-0.0764 0.419199,-0.067 0.507118,0.0209 0.08792,0.0879 -0.06835,0.15045 -0.347265,0.13896 -0.308225,-0.0127 -0.37092,-0.0754 -0.159853,-0.15985 z m 1.703255,-0.26623 c 0.254662,-0.0666 0.67138,-0.0666 0.926042,0 0.254661,0.0666 0.0463,0.121 -0.463021,0.121 -0.509323,0 -0.717682,-0.0544 -0.463021,-0.121 z m -24.457421,-1.58585 c 0.190996,-0.0764 0.419199,-0.067 0.507118,0.0209 0.08792,0.0879 -0.06835,0.15046 -0.347265,0.13897 -0.308225,-0.0127 -0.37092,-0.0754 -0.159853,-0.15985 z m 35.026187,-1.00989 c 0.005,-0.43656 0.0647,-0.58312 0.13178,-0.32569 0.0671,0.25743 0.0627,0.61462 -0.01,0.79375 -0.0725,0.17913 -0.12736,-0.0315 -0.12197,-0.46806 z m -32.595327,0.29289 c 0,-0.0572 0.184777,-0.17489 0.410616,-0.26155 0.23546,-0.0904 0.341663,-0.046 0.248969,0.10398 -0.155379,0.25141 -0.659585,0.37186 -0.659585,0.15757 z m 14.502473,-0.34134 c 0.190996,-0.0764 0.419199,-0.067 0.507118,0.0209 0.08792,0.0879 -0.06835,0.15045 -0.347266,0.13896 -0.308224,-0.0127 -0.370919,-0.0754 -0.159852,-0.15985 z m -18.008203,-0.25907 c 0.181902,-0.0734 0.479558,-0.0734 0.661459,0 0.181901,0.0734 0.03307,0.13345 -0.330729,0.13345 -0.363802,0 -0.512631,-0.06 -0.33073,-0.13345 z m 17.479036,-1.06384 c 0.190996,-0.0764 0.4192,-0.067 0.507118,0.0209 0.08792,0.0879 -0.06835,0.15046 -0.347265,0.13897 -0.308225,-0.0127 -0.370919,-0.0754 -0.159853,-0.15985 z m 10.918414,-0.50277 c 0.0127,-0.30823 0.07539,-0.37092 0.159853,-0.15985 0.07643,0.19099 0.06703,0.4192 -0.02089,0.50711 -0.08792,0.0879 -0.150452,-0.0684 -0.138963,-0.34726 z m 18.541717,-0.37483 c 0,-0.3638 0.0601,-0.51263 0.13346,-0.33073 0.0734,0.1819 0.0734,0.47956 0,0.66146 -0.0734,0.1819 -0.13346,0.0331 -0.13346,-0.33073 z m -21.137257,-0.18335 c 0.257431,-0.0671 0.614619,-0.0627 0.79375,0.01 0.179132,0.0725 -0.03149,0.12736 -0.468056,0.12197 -0.436563,-0.005 -0.583125,-0.0647 -0.325694,-0.13177 z m 21.380957,-1.2939 c 0.0127,-0.30823 0.0754,-0.37092 0.15985,-0.15986 0.0764,0.191 0.067,0.4192 -0.0209,0.50712 -0.0879,0.0879 -0.15045,-0.0684 -0.13896,-0.34726 z M 81.994346,165.0848 c 0.190996,-0.0764 0.419199,-0.067 0.507118,0.0209 0.08792,0.0879 -0.06835,0.15045 -0.347265,0.13896 -0.308225,-0.0127 -0.37092,-0.0754 -0.159853,-0.15985 z m 25.185024,-0.44832 c 0,-0.0549 0.20836,-0.2633 0.46302,-0.46302 0.41965,-0.32911 0.429,-0.31975 0.0999,0.0999 -0.34565,0.44073 -0.56292,0.58089 -0.56292,0.36313 z m -5.02708,-0.26459 c 0,-0.0549 0.20836,-0.2633 0.46302,-0.46302 0.41964,-0.3291 0.429,-0.31975 0.0999,0.0999 -0.34564,0.44073 -0.56291,0.58089 -0.56291,0.36312 z m -1.05834,-0.79375 c 0,-0.0549 0.20836,-0.2633 0.46303,-0.46302 0.41964,-0.3291 0.429,-0.31975 0.0999,0.0999 -0.34564,0.44073 -0.56292,0.58089 -0.56292,0.36312 z m 18.27714,-1.11277 c 0.0127,-0.30823 0.0754,-0.37092 0.15985,-0.15986 0.0764,0.191 0.067,0.4192 -0.0209,0.50712 -0.0879,0.0879 -0.15046,-0.0684 -0.13897,-0.34726 z m 1.5875,-1.05834 c 0.0127,-0.30822 0.0754,-0.37092 0.15985,-0.15985 0.0764,0.191 0.067,0.4192 -0.0209,0.50712 -0.0879,0.0879 -0.15046,-0.0684 -0.13897,-0.34727 z m -27.5713,-0.30868 c -0.329108,-0.41964 -0.31975,-0.429 0.09989,-0.0999 0.44073,0.34564 0.580887,0.56291 0.363126,0.56291 -0.05494,0 -0.263301,-0.20836 -0.46302,-0.46302 z m -11.943057,-0.62814 c 0.179476,-0.18082 0.39297,-0.26212 0.474432,-0.18066 0.08146,0.0815 -0.06538,0.22941 -0.326319,0.32877 -0.377084,0.14359 -0.407475,0.11319 -0.148113,-0.14811 z m 3.001861,-0.12151 c 0.01269,-0.30823 0.07539,-0.37092 0.159852,-0.15985 0.07643,0.19099 0.06703,0.4192 -0.02089,0.50711 -0.08792,0.0879 -0.150453,-0.0684 -0.138964,-0.34726 z m 15.589526,0.22999 c 0.21828,-0.0809 0.635,-0.2567 0.92604,-0.39058 0.5207,-0.23953 0.52095,-0.23685 0.0156,0.16804 -0.28248,0.22631 -0.69919,0.40207 -0.92604,0.39058 -0.35629,-0.018 -0.358411,-0.0409 -0.0156,-0.16804 z m -9.310024,-0.25639 c 0.190996,-0.0764 0.419199,-0.067 0.507118,0.0209 0.08792,0.0879 -0.06835,0.15045 -0.347266,0.13896 -0.308224,-0.0127 -0.370919,-0.0754 -0.159852,-0.15985 z m 29.174664,-0.23818 c 0.0127,-0.30823 0.0754,-0.37092 0.15985,-0.15986 0.0764,0.191 0.067,0.4192 -0.0209,0.50712 -0.0879,0.0879 -0.15045,-0.0683 -0.13896,-0.34726 z m -37.52054,-1.35193 c 0.257431,-0.0671 0.614619,-0.0627 0.79375,0.01 0.179132,0.0725 -0.03149,0.12736 -0.468056,0.12197 -0.436563,-0.005 -0.583125,-0.0647 -0.325694,-0.13177 z m 24.60625,-1.85209 c 0.25743,-0.0671 0.61462,-0.0627 0.79375,0.01 0.17913,0.0725 -0.0315,0.12736 -0.46806,0.12197 -0.43656,-0.005 -0.58312,-0.0647 -0.32569,-0.13178 z"
         id="path33" /><path
         style="fill:url(#linearGradient4);fill-opacity:1"
         d="m 106.69886,193.12454 c -0.33705,-0.36307 -0.56649,-0.70644 -0.50988,-0.76305 0.0566,-0.0566 0.44394,0.25301 0.86074,0.68806 0.4168,0.43504 0.64625,0.77842 0.50988,0.76305 -0.13636,-0.0154 -0.5237,-0.32499 -0.86074,-0.68806 z m -2.03303,0.18683 c -0.0899,-0.14552 -0.0374,-0.26458 0.11668,-0.26458 0.15411,0 0.28019,0.11906 0.28019,0.26458 0,0.14552 -0.0525,0.26458 -0.11667,0.26458 -0.0642,0 -0.19026,-0.11906 -0.2802,-0.26458 z m -5.291667,-2.91041 c -0.08994,-0.14553 -0.03743,-0.26459 0.116677,-0.26459 0.154109,0 0.280198,0.11906 0.280198,0.26459 0,0.14552 -0.0525,0.26458 -0.116676,0.26458 -0.06417,0 -0.190262,-0.11906 -0.280199,-0.26458 z m -0.79375,-0.52917 c -0.08994,-0.14552 -0.03743,-0.26458 0.116677,-0.26458 0.154109,0 0.280198,0.11906 0.280198,0.26458 0,0.14552 -0.0525,0.26458 -0.116676,0.26458 -0.06417,0 -0.190262,-0.11906 -0.280199,-0.26458 z m 6.614587,0 c -0.0899,-0.14552 -0.0374,-0.26458 0.11667,-0.26458 0.15411,0 0.2802,0.11906 0.2802,0.26458 0,0.14552 -0.0525,0.26458 -0.11668,0.26458 -0.0642,0 -0.19026,-0.11906 -0.28019,-0.26458 z m -7.937503,-1.32292 c -0.08994,-0.14552 -0.03743,-0.26458 0.116676,-0.26458 0.15411,0 0.280199,0.11906 0.280199,0.26458 0,0.14552 -0.0525,0.26459 -0.116677,0.26459 -0.06417,0 -0.190261,-0.11907 -0.280198,-0.26459 z m 6.085413,0 c -0.0899,-0.14552 -0.0374,-0.26458 0.11668,-0.26458 0.15411,0 0.2802,0.11906 0.2802,0.26458 0,0.14552 -0.0525,0.26459 -0.11668,0.26459 -0.0642,0 -0.19026,-0.11907 -0.2802,-0.26459 z m 15.33496,-0.0176 c -0.0959,-0.1552 -0.11766,-0.33893 -0.0483,-0.40829 0.0694,-0.0694 0.1966,0.0576 0.28277,0.28219 0.17891,0.46622 0.0264,0.54823 -0.23447,0.1261 z m -19.810623,-0.4167 c -0.139347,-0.36313 -0.10063,-0.3795 0.236276,-0.0999 0.459117,0.38103 0.5069,0.53419 0.166656,0.53419 -0.129952,0 -0.311271,-0.19543 -0.402932,-0.4343 z m 6.887093,0.0207 c -0.0927,-0.24161 -0.29706,-0.33401 -0.49133,-0.22217 -0.18293,0.10532 -0.24221,0.0919 -0.13174,-0.0297 0.11047,-0.12168 -0.0681,-0.52412 -0.39687,-0.89431 -0.49668,-0.55928 -0.50827,-0.60742 -0.0686,-0.28472 0.71892,0.52764 1.45521,1.34754 1.45521,1.62048 0,0.35951 -0.19461,0.25892 -0.3667,-0.18954 z m 1.1267,-1.10771 c -0.32911,-0.41965 -0.31975,-0.429 0.0999,-0.0999 0.44073,0.34565 0.58089,0.56292 0.36313,0.56292 -0.0549,0 -0.2633,-0.20836 -0.46302,-0.46302 z m 3.15914,0.0177 c 0.19099,-0.0764 0.4192,-0.067 0.50712,0.0209 0.0879,0.0879 -0.0684,0.15046 -0.34727,0.13897 -0.30822,-0.0127 -0.37092,-0.0754 -0.15985,-0.15986 z m -13.179558,-0.613 c 0,-0.14553 0.126089,-0.26459 0.280198,-0.26459 0.154109,0 0.206614,0.11906 0.116677,0.26459 -0.08994,0.14552 -0.216026,0.26458 -0.280199,0.26458 -0.06417,0 -0.116676,-0.11906 -0.116676,-0.26458 z m 10.847918,-0.92605 c -0.49366,-0.50932 -0.82658,-0.92604 -0.73982,-0.92604 0.0867,0 0.57445,0.41672 1.08378,0.92604 0.50932,0.50933 0.84224,0.92605 0.73982,0.92605 -0.10243,0 -0.59013,-0.41672 -1.08378,-0.92605 z m 10.44016,0.64386 c -0.0959,-0.1552 -0.11766,-0.33893 -0.0483,-0.40829 0.0694,-0.0693 0.1966,0.0576 0.28277,0.28219 0.17891,0.46622 0.0264,0.54823 -0.23447,0.1261 z m -12.79275,-0.52698 c -0.34803,-0.28984 -0.57671,-0.58307 -0.50816,-0.65162 0.0686,-0.0685 0.40383,0.17256 0.74506,0.53579 0.74243,0.79027 0.63566,0.84248 -0.2369,0.11583 z m -7.172412,-0.51375 c 0,-0.14552 0.12609,-0.26458 0.280199,-0.26458 0.154109,0 0.206613,0.11906 0.116676,0.26458 -0.08994,0.14552 -0.216026,0.26458 -0.280198,0.26458 -0.06417,0 -0.116677,-0.11906 -0.116677,-0.26458 z m 3.439582,-0.92604 c -0.64268,-0.65485 -1.09362,-1.19063 -1.00209,-1.19063 0.1906,0 2.32501,2.07398 2.32501,2.25918 0,0.24277 -0.17346,0.10266 -1.32292,-1.06855 z m 7.2509,0.33073 -0.50402,-0.59532 0.59531,0.50403 c 0.55945,0.47366 0.71576,0.6866 0.50403,0.6866 -0.0502,0 -0.3181,-0.26789 -0.59532,-0.59531 z m 3.99536,-0.4614 c -0.2642,-0.29194 -0.39387,-0.53079 -0.28816,-0.53079 0.27892,0 1.03314,0.79696 0.88983,0.94026 -0.0667,0.0667 -0.33747,-0.11754 -0.60167,-0.40947 z m 1.8536,-0.10134 c 0.25011,-0.38172 0.50478,-0.69403 0.56592,-0.69403 0.1914,0 -0.42463,1.01969 -0.73006,1.20846 -0.15984,0.0988 -0.086,-0.13271 0.16414,-0.51443 z m -12.19896,-1.02476 -0.50402,-0.59532 0.59531,0.50403 c 0.55945,0.47366 0.71576,0.6866 0.50403,0.6866 -0.0502,0 -0.3181,-0.26789 -0.59532,-0.59531 z m 2.25986,-0.6285 c -0.61206,-0.6439 -0.72842,-0.86488 -0.35396,-0.67221 0.46804,0.24082 1.62068,1.63144 1.35225,1.63144 -0.0476,0 -0.4968,-0.43166 -0.99829,-0.95923 z m 13.90487,0.69464 c -0.0899,-0.14552 -0.0374,-0.26458 0.11667,-0.26458 0.15411,0 0.2802,0.11906 0.2802,0.26458 0,0.14552 -0.0525,0.26459 -0.11668,0.26459 -0.0642,0 -0.19026,-0.11907 -0.28019,-0.26459 z m -12.14959,-1.0005 -0.50792,-0.71929 0.70636,0.64143 c 0.74226,0.67404 0.83374,0.81912 0.50792,0.80546 -0.10914,-0.005 -0.427,-0.33199 -0.70636,-0.7276 z m 5.00584,0.47134 c -0.0899,-0.14553 -0.0374,-0.26459 0.11667,-0.26459 0.15411,0 0.2802,0.11906 0.2802,0.26459 0,0.14552 -0.0525,0.26458 -0.11668,0.26458 -0.0642,0 -0.19026,-0.11906 -0.28019,-0.26458 z M 85.963096,181.7536 c 0.190996,-0.0764 0.419199,-0.067 0.507118,0.0209 0.08792,0.0879 -0.06835,0.15045 -0.347266,0.13896 -0.308224,-0.0127 -0.370919,-0.0754 -0.159852,-0.15985 z m 13.585135,-0.87759 c 0,-0.36381 0.06005,-0.51263 0.133452,-0.33073 0.0734,0.1819 0.0734,0.47955 0,0.66145 -0.0734,0.18191 -0.133452,0.0331 -0.133452,-0.33072 z m 7.234269,0 c -0.0899,-0.14553 -0.0374,-0.26459 0.11667,-0.26459 0.15411,0 0.2802,0.11906 0.2802,0.26459 0,0.14552 -0.0525,0.26458 -0.11668,0.26458 -0.0642,0 -0.19026,-0.11906 -0.28019,-0.26458 z m 3.43958,-0.26459 c -0.0899,-0.14552 -0.0374,-0.26458 0.11668,-0.26458 0.15411,0 0.28019,0.11906 0.28019,0.26458 0,0.14552 -0.0525,0.26459 -0.11667,0.26459 -0.0642,0 -0.19026,-0.11907 -0.2802,-0.26459 z m -8.43986,-0.30795 c 0.0673,-0.10896 0.29721,-0.13103 0.51083,-0.0491 0.53866,0.2067 0.4852,0.33142 -0.12243,0.28564 -0.28096,-0.0212 -0.45574,-0.12762 -0.3884,-0.23658 z m 3.02356,0.0537 c -0.21406,-0.13538 -0.32033,-0.31502 -0.23614,-0.39921 0.0842,-0.0842 0.30368,0.0284 0.48776,0.25019 0.38168,0.45991 0.3085,0.50325 -0.25162,0.14902 z m 3.43192,-0.026 c 0,-0.15411 0.11907,-0.20661 0.26459,-0.11667 0.14552,0.0899 0.26458,0.21602 0.26458,0.2802 0,0.0642 -0.11906,0.11667 -0.26458,0.11667 -0.14552,0 -0.26459,-0.12609 -0.26459,-0.2802 z m -22.010021,-0.16512 c 0.190996,-0.0764 0.4192,-0.067 0.507118,0.0209 0.08792,0.0879 -0.06835,0.15045 -0.347265,0.13896 -0.308225,-0.0127 -0.370919,-0.0754 -0.159853,-0.15985 z m 13.915091,-0.57553 c 0.53925,-0.60624 0.6866,-0.68472 0.6866,-0.36571 0,0.11052 -0.26789,0.36551 -0.59531,0.56665 -0.593199,0.36441 -0.593523,0.36369 -0.0913,-0.20094 z m 13.93666,-0.19182 c 0.0127,-0.30823 0.0754,-0.37092 0.15985,-0.15985 0.0764,0.19099 0.067,0.4192 -0.0209,0.50711 -0.0879,0.0879 -0.15045,-0.0684 -0.13896,-0.34726 z m 2.46751,-0.17639 -0.50403,-0.59531 0.59532,0.50403 c 0.55944,0.47366 0.71576,0.68659 0.50402,0.68659 -0.0502,0 -0.31809,-0.26789 -0.59531,-0.59531 z m -45.350901,0.22674 c 0,-0.0572 0.178594,-0.17251 0.396875,-0.25627 0.218281,-0.0838 0.396875,-0.037 0.396875,0.10398 0,0.14095 -0.178594,0.25628 -0.396875,0.25628 -0.218281,0 -0.396875,-0.0468 -0.396875,-0.10399 z m 4.632081,-0.15756 c -0.09269,-0.14999 0.01351,-0.19434 0.248969,-0.10399 0.458369,0.17589 0.542233,0.36554 0.161648,0.36554 -0.136932,0 -0.32171,-0.1177 -0.410617,-0.26155 z m 14.55021,-0.003 -1.058333,-0.1895 1.124479,-0.0375 c 0.618464,-0.0206 1.124479,0.0815 1.124479,0.22704 0,0.14552 -0.02976,0.24768 -0.06615,0.22703 -0.03638,-0.0206 -0.542395,-0.12281 -1.124479,-0.22703 z m 18.61938,-0.19844 c -0.32911,-0.41965 -0.31975,-0.429 0.0999,-0.0999 0.25466,0.19972 0.46302,0.40808 0.46302,0.46302 0,0.21777 -0.21727,0.0776 -0.56291,-0.36312 z m -35.486567,0.0232 c 0.181901,-0.0734 0.479558,-0.0734 0.661459,0 0.181901,0.0734 0.03307,0.13345 -0.330729,0.13345 -0.363803,0 -0.512631,-0.06 -0.33073,-0.13345 z m 27.582807,-0.0894 c 0,-0.14552 0.12609,-0.26458 0.2802,-0.26458 0.15411,0 0.20662,0.11906 0.11668,0.26458 -0.0899,0.14552 -0.21603,0.26459 -0.2802,0.26459 -0.0642,0 -0.11668,-0.11907 -0.11668,-0.26459 z m 6.08542,-0.0156 c 0,-0.15411 0.11906,-0.20662 0.26458,-0.11668 0.14553,0.0899 0.26459,0.21603 0.26459,0.2802 0,0.0642 -0.11906,0.11668 -0.26459,0.11668 -0.14552,0 -0.26458,-0.12609 -0.26458,-0.2802 z m -19.049998,-0.26459 c 0,-0.15411 0.119063,-0.20661 0.264583,-0.11667 0.145521,0.0899 0.264584,0.21602 0.264584,0.2802 0,0.0642 -0.119063,0.11667 -0.264584,0.11667 -0.14552,0 -0.264583,-0.12609 -0.264583,-0.2802 z m 22.076068,-0.57969 -0.77711,-0.8599 0.8599,0.77711 c 0.80154,0.72437 0.98151,0.94268 0.7771,0.94268 -0.0455,0 -0.43249,-0.38695 -0.85989,-0.85989 z m -4.84746,0.1733 c -0.0169,-0.30487 0.2372,-0.78112 0.56462,-1.05834 0.59043,-0.49989 0.59174,-0.49968 0.15961,0.0251 -0.23964,0.29104 -0.49372,0.76729 -0.56462,1.05833 -0.12399,0.50893 -0.13009,0.50797 -0.15961,-0.0251 z m -27.547358,-0.10716 c -0.238466,-0.15411 -0.2711,-0.2581 -0.08176,-0.26053 0.173312,-0.002 0.388699,0.11501 0.478635,0.26053 0.203016,0.32849 0.111423,0.32849 -0.396875,0 z m 15.088912,0.0103 c -0.214067,-0.13538 -0.32033,-0.31503 -0.23614,-0.39922 0.08419,-0.0842 0.303679,0.0284 0.487755,0.2502 0.381686,0.4599 0.308501,0.50324 -0.251615,0.14902 z m 14.404986,0.001 c 0.086,-0.13917 0.33116,-0.18596 0.54478,-0.10399 0.54693,0.20988 0.48248,0.35702 -0.15638,0.35702 -0.29963,0 -0.47441,-0.11387 -0.3884,-0.25303 z m 7.81235,-0.0272 c 0,-0.15411 0.11906,-0.20662 0.26458,-0.11668 0.14553,0.0899 0.26459,0.21603 0.26459,0.2802 0,0.0642 -0.11906,0.11668 -0.26459,0.11668 -0.14552,0 -0.26458,-0.12609 -0.26458,-0.2802 z m -41.407289,-0.51355 -1.322917,-0.18145 1.241156,-0.0416 c 0.682636,-0.0229 1.314741,0.0775 1.404677,0.22302 0.08994,0.14552 0.12673,0.24587 0.08176,0.22301 -0.04497,-0.0229 -0.677073,-0.12322 -1.404677,-0.22301 z m 16.973615,-0.0129 c -1.448091,-0.24299 -1.700333,-0.38106 -1.110027,-0.60758 0.224558,-0.0862 0.408286,-0.0413 0.408286,0.0996 0,0.14096 0.409692,0.25628 0.910427,0.25628 0.500735,0 0.984011,0.11906 1.073948,0.26459 0.08994,0.14552 0.126729,0.25057 0.08176,0.23346 -0.04497,-0.0171 -0.658946,-0.12797 -1.364394,-0.24635 z m 0.356593,-0.61771 c 0,-0.0558 0.238289,-0.16375 0.529531,-0.23991 0.291243,-0.0762 0.46281,-0.0305 0.38126,0.10143 -0.142412,0.23043 -0.910791,0.34725 -0.910791,0.13848 z m -3.175,-0.9569 c 0,-0.14553 0.126089,-0.26459 0.280198,-0.26459 0.154109,0 0.206614,0.11906 0.116677,0.26459 -0.08994,0.14552 -0.216026,0.26458 -0.280199,0.26458 -0.06417,0 -0.116676,-0.11906 -0.116676,-0.26458 z m 1.273307,-0.44533 c 0.190996,-0.0764 0.419199,-0.067 0.507118,0.0209 0.08792,0.0879 -0.06835,0.15045 -0.347266,0.13896 -0.308224,-0.0127 -0.370919,-0.0754 -0.159852,-0.15985 z m 6.928776,0.0619 c 0,-0.10097 0.178594,-0.36218 0.396875,-0.58046 0.218281,-0.21828 0.396875,-0.28389 0.396875,-0.14579 0,0.13809 -0.178594,0.3993 -0.396875,0.58046 -0.218281,0.18116 -0.396875,0.24676 -0.396875,0.14579 z m -5.076693,-0.32653 c 0.190996,-0.0764 0.419199,-0.067 0.507118,0.0209 0.08792,0.0879 -0.06835,0.15045 -0.347265,0.13896 -0.308225,-0.0127 -0.37092,-0.0754 -0.159853,-0.15985 z m 3.22461,-1.77278 c 0,-0.0558 0.238289,-0.16374 0.529531,-0.23991 0.291243,-0.0762 0.46281,-0.0305 0.38126,0.10144 -0.142412,0.23042 -0.910791,0.34725 -0.910791,0.13847 z m -4.282943,-0.87305 c 0.190996,-0.0764 0.419199,-0.067 0.507118,0.0209 0.08792,0.0879 -0.06835,0.15046 -0.347266,0.13897 -0.308224,-0.0127 -0.370919,-0.0754 -0.159852,-0.15985 z m 4.018359,-0.62132 c 0,-0.14095 0.178594,-0.25628 0.396875,-0.25628 0.218281,0 0.396875,0.0468 0.396875,0.10399 0,0.0572 -0.178594,0.17251 -0.396875,0.25628 -0.218281,0.0838 -0.396875,0.037 -0.396875,-0.10399 z m 12.137085,-1.24847 c -0.32911,-0.41964 -0.31975,-0.429 0.0999,-0.0999 0.44073,0.34564 0.58089,0.56292 0.36313,0.56292 -0.0549,0 -0.2633,-0.20836 -0.46302,-0.46303 z m 3.48797,0 c 0.008,-0.10914 0.39501,-0.48847 0.8599,-0.84296 l 0.84525,-0.64452 -0.7771,0.84296 c -0.80847,0.87698 -0.95258,0.97707 -0.92805,0.64452 z m -38.246929,-0.59531 c 0.08994,-0.14552 0.216026,-0.26458 0.280198,-0.26458 0.06417,0 0.116677,0.11906 0.116677,0.26458 0,0.14552 -0.126089,0.26459 -0.280198,0.26459 -0.154109,0 -0.206614,-0.11907 -0.116677,-0.26459 z m -2.661525,-0.28997 c -0.09857,-0.15949 0.03671,-0.48691 0.300623,-0.7276 0.448033,-0.40863 0.457367,-0.40771 0.140821,0.0138 -0.186459,0.24829 -0.262209,0.57571 -0.168332,0.72761 0.09388,0.15189 0.111153,0.27617 0.03839,0.27617 -0.07276,0 -0.212938,-0.13049 -0.311505,-0.28997 z m 17.501813,-0.46556 c -0.07695,-0.1245 0.154153,-0.17015 0.513552,-0.10144 0.359398,0.0687 0.653451,0.17056 0.653451,0.22636 0,0.20472 -1.031515,0.0943 -1.167003,-0.12492 z m 22.598251,0.12647 c 0,-0.0549 0.20836,-0.2633 0.46302,-0.46302 0.41965,-0.32911 0.429,-0.31975 0.0999,0.0999 -0.34565,0.44073 -0.56292,0.58089 -0.56292,0.36313 z m 7.40833,-0.16469 c -0.48364,-0.31256 -0.0659,-0.31256 0.66146,0 0.34892,0.14994 0.39398,0.23235 0.13229,0.24194 -0.21828,0.008 -0.57546,-0.10087 -0.79375,-0.24194 z m -45.3143,-0.562 c 0.179476,-0.18082 0.39297,-0.26211 0.474432,-0.18065 0.08146,0.0815 -0.06538,0.22941 -0.326319,0.32877 -0.377084,0.14358 -0.407475,0.11319 -0.148113,-0.14812 z m 3.510139,0.0328 c 0,-0.14553 0.126089,-0.26459 0.280198,-0.26459 0.154109,0 0.206614,0.11906 0.116677,0.26459 -0.08994,0.14552 -0.216026,0.26458 -0.280198,0.26458 -0.06417,0 -0.116677,-0.11906 -0.116677,-0.26458 z m 21.298958,-0.26459 c 0.08994,-0.14552 0.216026,-0.26458 0.280198,-0.26458 0.06417,0 0.116677,0.11906 0.116677,0.26458 0,0.14552 -0.126089,0.26459 -0.280198,0.26459 -0.154109,0 -0.206614,-0.11907 -0.116677,-0.26459 z m 15.742703,0 c 0,-0.14552 0.12609,-0.26458 0.2802,-0.26458 0.15411,0 0.20662,0.11906 0.11668,0.26458 -0.0899,0.14552 -0.21603,0.26459 -0.2802,0.26459 -0.0642,0 -0.11668,-0.11907 -0.11668,-0.26459 z m 3.85347,-0.18702 c -0.14358,-0.37709 -0.11319,-0.40748 0.14812,-0.14812 0.18082,0.17948 0.26211,0.39297 0.18065,0.47444 -0.0815,0.0815 -0.22941,-0.0654 -0.32877,-0.32632 z m -9.6743,-0.0776 c 0,-0.14552 0.12609,-0.26458 0.2802,-0.26458 0.15411,0 0.20661,0.11906 0.11668,0.26458 -0.0899,0.14552 -0.21603,0.26458 -0.2802,0.26458 -0.0642,0 -0.11668,-0.11906 -0.11668,-0.26458 z m -4.23333,-0.10145 c 0,-0.0558 0.29405,-0.15766 0.65345,-0.22636 0.3594,-0.0687 0.5905,-0.0231 0.51355,0.10145 -0.13549,0.21922 -1.167,0.32963 -1.167,0.12491 z m -16.404168,-0.6923 c 0.155761,-0.29104 0.342733,-0.52917 0.415493,-0.52917 0.07276,0 0.0049,0.23813 -0.15091,0.52917 -0.15576,0.29104 -0.342732,0.52917 -0.415493,0.52917 -0.07276,0 -0.0049,-0.23813 0.15091,-0.52917 z m 11.418859,0 c 0,-0.3638 0.06005,-0.51263 0.133453,-0.33073 0.0734,0.1819 0.0734,0.47956 0,0.66146 -0.0734,0.1819 -0.133453,0.0331 -0.133453,-0.33073 z m 15.568639,0.26458 c 0,-0.14552 0.12609,-0.26458 0.2802,-0.26458 0.15411,0 0.20661,0.11906 0.11668,0.26458 -0.0899,0.14552 -0.21603,0.26459 -0.2802,0.26459 -0.0642,0 -0.11668,-0.11907 -0.11668,-0.26459 z m -24.077081,-0.2802 c 0,-0.1541 0.119062,-0.20661 0.264583,-0.11667 0.145521,0.0899 0.264583,0.21602 0.264583,0.2802 0,0.0642 -0.119062,0.11667 -0.264583,0.11667 -0.145521,0 -0.264583,-0.12609 -0.264583,-0.2802 z m 0.70324,-0.1032 c -0.09814,-0.25575 -0.01998,-0.33461 0.234756,-0.23686 0.210035,0.0806 0.316007,0.25313 0.235494,0.3834 -0.202783,0.32811 -0.299698,0.29791 -0.47025,-0.14654 z m 6.043634,-0.41035 c 0.08994,-0.14552 0.216027,-0.26458 0.280199,-0.26458 0.06417,0 0.116676,0.11906 0.116676,0.26458 0,0.14552 -0.126089,0.26459 -0.280198,0.26459 -0.154109,0 -0.206613,-0.11907 -0.116677,-0.26459 z m -13.16302,-0.43981 c 0.181901,-0.0734 0.479557,-0.0734 0.661458,0 0.181901,0.0734 0.03307,0.13345 -0.330729,0.13345 -0.363802,0 -0.51263,-0.0601 -0.330729,-0.13345 z m 18.424006,-0.20619 c -0.0805,-0.20978 -0.09973,-0.59673 -0.04274,-0.8599 0.06471,-0.29877 0.155271,-0.15551 0.241141,0.38142 0.14409,0.90104 0.0504,1.12692 -0.198401,0.47848 z m 1.506781,-0.56667 c 0.0127,-0.30823 0.0754,-0.37092 0.15985,-0.15985 0.0764,0.19099 0.067,0.4192 -0.0209,0.50711 -0.0879,0.0879 -0.15045,-0.0683 -0.13896,-0.34726 z m 7.38744,0.15434 c 0,-0.14552 0.12609,-0.26458 0.2802,-0.26458 0.15411,0 0.20661,0.11906 0.11668,0.26458 -0.0899,0.14552 -0.21603,0.26458 -0.2802,0.26458 -0.0642,0 -0.11668,-0.11906 -0.11668,-0.26458 z m 6.35,-0.13229 c 0,-0.21828 0.11533,-0.39688 0.25628,-0.39688 0.14095,0 0.18775,0.1786 0.10398,0.39688 -0.0838,0.21828 -0.19908,0.39687 -0.25627,0.39687 -0.0572,0 -0.10399,-0.17859 -0.10399,-0.39687 z m -39.555206,-0.13229 c 0.08994,-0.14552 0.216026,-0.26459 0.280198,-0.26459 0.06417,0 0.116677,0.11907 0.116677,0.26459 0,0.14552 -0.126089,0.26458 -0.280198,0.26458 -0.154109,0 -0.206614,-0.11906 -0.116677,-0.26458 z m 28.310416,-0.26459 c 0.0899,-0.14552 0.21603,-0.26458 0.2802,-0.26458 0.0642,0 0.11667,0.11906 0.11667,0.26458 0,0.14552 -0.12608,0.26459 -0.28019,0.26459 -0.15411,0 -0.20662,-0.11907 -0.11668,-0.26459 z m 2.24896,0.0636 c 0,-0.11052 0.26789,-0.36551 0.59531,-0.56665 0.5932,-0.36441 0.59352,-0.36369 0.0913,0.20094 -0.53925,0.60624 -0.6866,0.68472 -0.6866,0.36571 z m 1.05833,0.10104 c 0,-0.0549 0.20836,-0.2633 0.46302,-0.46302 0.41965,-0.32911 0.429,-0.31975 0.0999,0.0999 -0.34565,0.44072 -0.56292,0.58088 -0.56292,0.36312 z m -30.823956,-0.95844 c 0.08994,-0.14552 0.216026,-0.26458 0.280198,-0.26458 0.06417,0 0.116677,0.11906 0.116677,0.26458 0,0.14552 -0.126089,0.26459 -0.280198,0.26459 -0.154109,0 -0.206614,-0.11907 -0.116677,-0.26459 z m 34.167856,-0.66146 c 0.0838,-0.21828 0.2732,-0.39687 0.42097,-0.39687 0.15486,0 0.12915,0.16812 -0.0607,0.39687 -0.18116,0.21829 -0.37059,0.39688 -0.42097,0.39688 -0.0504,0 -0.0231,-0.17859 0.0607,-0.39688 z m -33.638689,-0.13229 c 0.08994,-0.14552 0.216026,-0.26458 0.280198,-0.26458 0.06417,0 0.116677,0.11906 0.116677,0.26458 0,0.14552 -0.126089,0.26459 -0.280199,0.26459 -0.154109,0 -0.206613,-0.11907 -0.116676,-0.26459 z m 14.287499,0 c 0.08994,-0.14552 0.216026,-0.26458 0.280199,-0.26458 0.06417,0 0.116676,0.11906 0.116676,0.26458 0,0.14552 -0.126089,0.26459 -0.280198,0.26459 -0.154109,0 -0.206614,-0.11907 -0.116677,-0.26459 z m 14.92893,-0.36209 c 0.71621,-0.7774 0.85752,-0.85351 0.66807,-0.35982 -0.071,0.18503 -0.39468,0.49834 -0.7193,0.69624 -0.56289,0.34316 -0.56051,0.32759 0.0512,-0.33642 z m 6.7669,0.36209 c 0.0899,-0.14552 0.21603,-0.26458 0.2802,-0.26458 0.0642,0 0.11668,0.11906 0.11668,0.26458 0,0.14552 -0.12609,0.26459 -0.2802,0.26459 -0.15411,0 -0.20661,-0.11907 -0.11668,-0.26459 z m -4.22203,-0.2463 c -0.15751,-0.25485 0.28037,-0.62878 0.83497,-0.71303 0.24559,-0.0373 0.24615,0.0654 0.002,0.45558 -0.34612,0.55423 -0.60489,0.63378 -0.83747,0.25745 z m 11.91196,-0.0958 c 0.0994,-0.26093 0.2473,-0.40778 0.32877,-0.32632 0.0815,0.0815 1.6e-4,0.29496 -0.18066,0.47443 -0.2613,0.25937 -0.2917,0.22898 -0.14811,-0.14811 z m -32.693051,-0.18702 c 0,-0.14552 0.126089,-0.26459 0.280198,-0.26459 0.154109,0 0.206614,0.11907 0.116677,0.26459 -0.08994,0.14552 -0.216026,0.26458 -0.280199,0.26458 -0.06417,0 -0.116676,-0.11906 -0.116676,-0.26458 z m -10.451042,-0.26459 c 0.08994,-0.14552 0.216026,-0.26458 0.280199,-0.26458 0.06417,0 0.116676,0.11906 0.116676,0.26458 0,0.14552 -0.126089,0.26459 -0.280198,0.26459 -0.154109,0 -0.206613,-0.11907 -0.116677,-0.26459 z m 1.719792,0 c 0,-0.14552 0.126089,-0.26458 0.280198,-0.26458 0.154109,0 0.206614,0.11906 0.116677,0.26458 -0.08994,0.14552 -0.216026,0.26459 -0.280198,0.26459 -0.06417,0 -0.116677,-0.11907 -0.116677,-0.26459 z m 21.960411,0.16469 c 0,-0.0549 0.20836,-0.2633 0.46303,-0.46302 0.41964,-0.32911 0.429,-0.31975 0.0999,0.0999 -0.34564,0.44072 -0.56292,0.58088 -0.56292,0.36312 z m 2.38125,-0.16469 c 0,-0.14552 0.12609,-0.26458 0.2802,-0.26458 0.15411,0 0.20662,0.11906 0.11668,0.26458 -0.0899,0.14552 -0.21603,0.26459 -0.2802,0.26459 -0.0642,0 -0.11668,-0.11907 -0.11668,-0.26459 z m 14.0745,-0.39687 c 0.005,-0.43656 0.0647,-0.58313 0.13177,-0.3257 0.0671,0.25744 0.0627,0.61462 -0.01,0.79375 -0.0725,0.17914 -0.12736,-0.0315 -0.12197,-0.46805 z m -31.14012,-0.13229 c 0.08994,-0.14552 0.216026,-0.26459 0.280199,-0.26459 0.06417,0 0.116676,0.11907 0.116676,0.26459 0,0.14552 -0.126089,0.26458 -0.280198,0.26458 -0.154109,0 -0.206613,-0.11906 -0.116677,-0.26458 z m 7.582401,-0.26459 c 0,-0.3638 0.06005,-0.51263 0.133453,-0.33073 0.0734,0.1819 0.0734,0.47956 0,0.66146 -0.0734,0.1819 -0.133453,0.0331 -0.133453,-0.33073 z m -14.329275,0 c 0,-0.14552 0.126089,-0.26458 0.280198,-0.26458 0.154109,0 0.206613,0.11906 0.116677,0.26458 -0.08994,0.14552 -0.216026,0.26459 -0.280199,0.26459 -0.06417,0 -0.116676,-0.11907 -0.116676,-0.26459 z m 24.870834,0 c 0,-0.14552 0.12609,-0.26458 0.2802,-0.26458 0.15411,0 0.20661,0.11906 0.11667,0.26458 -0.0899,0.14552 -0.21602,0.26459 -0.2802,0.26459 -0.0642,0 -0.11667,-0.11907 -0.11667,-0.26459 z m 16.27187,-0.26458 c 0.0899,-0.14552 0.21603,-0.26458 0.2802,-0.26458 0.0642,0 0.11668,0.11906 0.11668,0.26458 0,0.14552 -0.12609,0.26458 -0.2802,0.26458 -0.15411,0 -0.20661,-0.11906 -0.11668,-0.26458 z m -5.82083,-0.26458 c 0.0899,-0.14552 0.21603,-0.26459 0.2802,-0.26459 0.0642,0 0.11667,0.11907 0.11667,0.26459 0,0.14552 -0.12608,0.26458 -0.28019,0.26458 -0.15411,0 -0.20662,-0.11906 -0.11668,-0.26458 z m 4.36562,0.0156 c 0,-0.13693 0.1177,-0.32171 0.26156,-0.41062 0.14998,-0.0927 0.19434,0.0135 0.10398,0.24897 -0.17589,0.45837 -0.36554,0.54224 -0.36554,0.16165 z m -38.893744,-0.38009 c 0,-0.0549 0.208359,-0.2633 0.46302,-0.46302 0.419644,-0.32911 0.429003,-0.31975 0.0999,0.0999 -0.345643,0.44073 -0.562915,0.58089 -0.562915,0.36313 z m 35.652604,-0.0753 c 0.1819,-0.0734 0.47956,-0.0734 0.66146,0 0.1819,0.0734 0.0331,0.13346 -0.33073,0.13346 -0.3638,0 -0.51263,-0.0601 -0.33073,-0.13346 z m -9.72344,-0.35393 c 0,-0.14552 0.12609,-0.26459 0.2802,-0.26459 0.15411,0 0.20661,0.11907 0.11668,0.26459 -0.0899,0.14552 -0.21603,0.26458 -0.2802,0.26458 -0.0642,0 -0.11668,-0.11906 -0.11668,-0.26458 z m -23.547914,-0.39688 c 0,-0.21828 0.115325,-0.39687 0.256279,-0.39687 0.140954,0 0.187747,0.17859 0.103984,0.39687 -0.08376,0.21828 -0.199088,0.39688 -0.256279,0.39688 -0.05719,0 -0.103984,-0.1786 -0.103984,-0.39688 z m -3.175,-0.52917 c 0.341774,-0.3638 0.680939,-0.66145 0.753699,-0.66145 0.07276,0 -0.147342,0.29765 -0.489116,0.66145 -0.341774,0.36381 -0.680939,0.66146 -0.7537,0.66146 -0.07276,0 0.147342,-0.29765 0.489117,-0.66146 z m 18.562609,0.1323 c 0,-0.36381 0.06005,-0.51263 0.133452,-0.33073 0.0734,0.1819 0.0734,0.47955 0,0.66146 -0.0734,0.1819 -0.133452,0.0331 -0.133452,-0.33073 z m -6.524068,0 c -0.431379,-0.18537 -0.446488,-0.23083 -0.08176,-0.24599 0.246073,-0.0102 0.520991,0.10047 0.610928,0.24599 0.18803,0.30423 0.178835,0.30423 -0.529168,0 z M 83.779323,159.039 c -0.282474,-0.21366 -0.38635,-0.38846 -0.230834,-0.38846 0.155516,0 0.430976,0.17859 0.612133,0.39687 0.41201,0.49644 0.2824,0.49358 -0.381299,-0.008 z m 22.738587,-0.65305 c 0.0899,-0.14552 0.21603,-0.26458 0.2802,-0.26458 0.0642,0 0.11668,0.11906 0.11668,0.26458 0,0.14552 -0.12609,0.26459 -0.2802,0.26459 -0.15411,0 -0.20661,-0.11907 -0.11668,-0.26459 z m -4.63021,-0.52916 c 0,-0.14552 0.12609,-0.26459 0.2802,-0.26459 0.15411,0 0.20662,0.11907 0.11668,0.26459 -0.0899,0.14552 -0.21603,0.26458 -0.2802,0.26458 -0.0642,0 -0.11668,-0.11906 -0.11668,-0.26458 z m 6.48528,-0.42946 c -0.25011,-0.38171 -0.32398,-0.61321 -0.16414,-0.51443 0.30543,0.18877 0.92146,1.20847 0.73006,1.20847 -0.0611,0 -0.31581,-0.31232 -0.56592,-0.69404 z m 12.9616,-0.89346 c 0.0899,-0.14552 0.21603,-0.26458 0.2802,-0.26458 0.0642,0 0.11667,0.11906 0.11667,0.26458 0,0.14552 -0.12608,0.26458 -0.28019,0.26458 -0.15411,0 -0.20662,-0.11906 -0.11668,-0.26458 z"
         id="path32" /><path
         style="fill:url(#linearGradient5);fill-opacity:1"
         d="m 53.998123,174.92283 v -19.18229 h 24.261175 24.261172 l -1.17628,0.75327 c -2.952005,1.89043 -3.835516,3.84707 -2.437572,5.39829 0.690993,0.76676 1.481802,0.54087 4.076612,-1.16445 2.26066,-1.48573 4.19614,-2.51727 4.19614,-2.23639 0,0.0616 -1.31561,1.10111 -2.92359,2.31004 -2.92195,2.19682 -4.485781,3.9773 -4.483753,5.10491 0.0014,0.78578 0.923383,2.19157 1.572413,2.39756 0.71053,0.22552 2.4591,-0.33977 2.22461,-0.71918 -0.0997,-0.16137 -0.0522,-0.20789 0.10994,-0.10767 0.3211,0.19846 2.87937,-1.90808 2.76622,-2.27777 -0.04,-0.13064 0.0411,-0.1672 0.18016,-0.0813 0.13907,0.0859 0.32097,0.0461 0.40423,-0.0887 0.0833,-0.13472 0.7761,-0.76073 1.53964,-1.39114 0.76354,-0.6304 1.24046,-0.95765 1.05982,-0.72722 -0.18064,0.23043 -0.24017,0.50724 -0.13229,0.61511 0.10788,0.10788 0.0744,0.15646 -0.0744,0.10795 -0.34834,-0.11354 -1.94282,1.65788 -3.00371,3.33705 -1.05079,1.66316 -1.11277,3.05967 -0.17733,3.99512 0.40976,0.40975 0.95166,0.64943 1.46835,0.64943 1.74493,0 2.78878,-0.98578 5.62975,-5.3166 1.60677,-2.4494 2.21671,-3.10968 2.5207,-2.72875 0.1054,0.13208 0.13574,0.20608 0.0674,0.16444 -0.24874,-0.1516 -0.80273,2.22548 -0.80664,3.46116 -0.003,0.99763 0.13478,1.4076 0.64541,1.91823 0.75195,0.75195 0.97159,0.78333 1.9434,0.2777 1.76167,-0.9166 2.27235,-1.92384 3.22491,-6.36074 0.41702,-1.9424 0.99993,-4.00544 1.29536,-4.58453 0.29543,-0.57909 0.48272,-1.12716 0.41619,-1.21794 -0.0665,-0.0908 -0.0482,-0.11212 0.0408,-0.0474 0.0889,0.0647 0.45672,-0.23297 0.81727,-0.66146 l 0.65555,-0.77908 h 10.95669 10.95669 v 19.18229 19.18229 h -12.04509 -12.04509 l -0.28228,-0.7276 c -0.15525,-0.40018 -0.66598,-2.36698 -1.13495,-4.37065 -0.46897,-2.00368 -0.9534,-3.55149 -1.07651,-3.43959 -0.12311,0.11191 -0.14575,0.0669 -0.0503,-0.10009 0.23618,-0.41316 -0.096,-1.97213 -0.38246,-1.79507 -0.12614,0.0779 -0.16286,-0.0315 -0.0816,-0.24323 0.16506,-0.43012 -0.69142,-2.24853 -1.65556,-3.51496 -1.57395,-2.06744 -3.89959,-2.83455 -4.73377,-1.56143 -0.40225,0.61392 -0.38733,0.738 0.25849,2.14864 0.90294,1.97229 0.86489,2.0808 -0.20297,0.57883 -0.4886,-0.68723 -0.97478,-1.1631 -1.08039,-1.05749 -0.1056,0.10561 -0.1568,0.0729 -0.11375,-0.0726 0.1329,-0.44933 -0.57262,-1.48069 -0.88207,-1.28944 -0.17314,0.10701 -0.21753,0.0598 -0.10894,-0.11592 0.29736,-0.48114 -1.89511,-1.90193 -2.93493,-1.90193 -0.6144,0 -0.84177,0.0974 -0.71317,0.30547 0.12046,0.19489 0.0722,0.2334 -0.13335,0.10637 -0.36822,-0.22758 -1.34712,0.55135 -1.34712,1.07193 0,0.63301 0.60358,1.67647 0.87332,1.50976 0.14672,-0.0907 0.19458,-0.0481 0.10634,0.0947 -0.17978,0.29089 1.77109,2.77907 2.03006,2.58919 0.0909,-0.0667 0.1109,-0.047 0.0444,0.0438 -0.0665,0.0907 0.15672,0.5372 0.49597,0.99219 1.35367,1.81548 1.2079,2.10346 -0.28843,0.56981 -0.84805,-0.86918 -1.64005,-1.55084 -1.76,-1.5148 -0.11996,0.036 -0.15166,-0.042 -0.0704,-0.17339 0.18472,-0.2989 -2.12349,-2.48168 -3.22861,-3.05316 -1.27639,-0.66005 -2.35767,-0.5442 -3.25009,0.34822 -0.425366,0.42536 -0.773395,0.98045 -0.773395,1.23352 0,0.72182 1.314205,2.79219 1.643285,2.58881 0.16342,-0.101 0.21606,-0.059 0.1203,0.0959 -0.21193,0.34291 0.45435,0.93223 0.75057,0.66388 0.11909,-0.10788 0.14395,-0.0685 0.0553,0.0876 -0.18726,0.32945 2.97149,3.1992 3.37662,3.06768 0.14943,-0.0485 0.18342,7e-5 0.0755,0.10795 -0.10788,0.10788 -0.0483,0.37977 0.13229,0.6042 0.18064,0.22443 -0.45782,-0.14959 -1.4188,-0.83116 -3.40378,-2.41411 -5.306875,-2.87145 -6.638806,-1.59538 -0.525772,0.50373 -0.742082,0.97102 -0.742082,1.60312 0,0.5205 0.108957,0.82482 0.261552,0.73051 0.143854,-0.0889 0.200633,-0.003 0.126176,0.19113 -0.07446,0.19404 0.255668,0.73181 0.733612,1.19505 1.052961,1.02057 5.191078,3.29661 5.568988,3.06304 0.14883,-0.092 0.19094,-0.0384 0.0936,0.11918 -0.0974,0.15753 0.0331,0.35649 0.28985,0.44213 0.25678,0.0856 0.76452,0.38922 1.12832,0.67462 0.65836,0.51648 0.54008,0.51894 -25.201557,0.5248 l -25.86302,0.006 z m 36.533061,6.70946 c 1.518373,-0.45492 2.803935,-1.62507 2.830997,-2.57686 0.02913,-1.02471 -0.336127,-1.29917 -2.079902,-1.56285 l -1.433115,-0.21671 1.647538,-0.19678 c 3.865575,-0.4617 5.893086,-1.66183 5.893086,-3.48826 0,-1.14555 -0.598004,-1.71141 -1.804836,-1.7078 -1.316066,0.004 -2.970686,0.29114 -2.845384,0.49388 0.05597,0.0906 -0.214279,0.16912 -0.600566,0.17456 -0.386286,0.005 -1.416713,0.1 -2.289838,0.21009 -2.131196,0.26876 -1.44063,-0.16815 1.220414,-0.77214 1.133099,-0.25718 2.000472,-0.56422 1.927495,-0.6823 -0.07298,-0.11808 0.03308,-0.15108 0.235682,-0.0733 0.683052,0.26211 3.300589,-0.9322 4.141072,-1.88945 0.957648,-1.0907 1.044109,-2.12195 0.261341,-3.11708 -0.812301,-1.03267 -2.362961,-0.93999 -6.192158,0.37012 -1.715669,0.58699 -3.161716,1.02494 -3.213438,0.97322 -0.05172,-0.0517 0.613928,-0.43242 1.479223,-0.84599 0.865296,-0.41358 1.509904,-0.85447 1.432463,-0.97978 -0.07744,-0.1253 -0.04265,-0.21077 0.0773,-0.18993 0.563686,0.0979 0.893414,-0.0529 0.722005,-0.33024 -0.106249,-0.17192 -0.07357,-0.23425 0.07475,-0.14259 0.335084,0.2071 1.816913,-1.33878 2.062012,-2.15114 0.448411,-1.48621 -1.343132,-3.17939 -2.961234,-2.79864 -1.204054,0.28332 -3.7835,1.7393 -3.60191,2.03312 0.09228,0.14931 0.04432,0.19517 -0.106585,0.10191 -0.150901,-0.0933 -0.558603,0.054 -0.906004,0.32728 -1.920744,1.51085 -5.032108,3.02047 -4.22775,2.05128 0.162076,-0.19529 0.236186,-0.43341 0.164688,-0.52916 -0.0715,-0.0958 -0.05001,-0.11395 0.04775,-0.0404 0.278147,0.20914 1.968855,-2.31984 1.816433,-2.71705 -0.07482,-0.19498 -0.01834,-0.28177 0.125514,-0.19286 0.433055,0.26764 0.296687,-1.28918 -0.171471,-1.95757 -0.377333,-0.53871 -0.597076,-0.60246 -1.708637,-0.49565 -1.81223,0.17413 -2.716772,0.9814 -5.266672,4.70031 -2.772525,4.04359 -4.16797,5.15217 -6.891384,5.47472 -2.378453,0.28169 -2.396356,1.66922 -0.02153,1.66882 1.68508,-2.9e-4 4.093395,-1.20513 5.624293,-2.81374 1.66518,-1.74971 2.902485,-3.53911 2.696598,-3.89984 -0.09344,-0.16372 -0.07195,-0.20889 0.04776,-0.10039 0.11971,0.10851 0.5999,-0.36774 1.067089,-1.05833 0.988662,-1.46142 1.610687,-2.04834 2.438116,-2.30049 0.966571,-0.29455 0.745455,0.65876 -0.558459,2.40772 -1.746647,2.3428 -1.886908,2.68488 -1.345964,3.28261 0.643328,0.71087 1.265874,0.84616 2.439499,0.53014 1.098894,-0.29591 4.665134,-2.46688 4.433241,-2.69877 -0.07682,-0.0768 0.0092,-0.14417 0.191058,-0.14965 0.181901,-0.005 1.0381,-0.44205 1.902664,-0.97014 1.803322,-1.1015 3.058273,-1.27317 3.058273,-0.41836 0,0.81934 -1.049215,1.63359 -4.270159,3.31387 -3.247929,1.69435 -3.883792,2.39547 -2.986398,3.29286 0.55748,0.55748 2.438682,1.07694 2.137958,0.59036 -0.107883,-0.17456 0.0166,-0.23142 0.328224,-0.14993 0.276111,0.0722 2.096741,-0.41515 4.045843,-1.08301 4.13314,-1.41622 4.713282,-1.48717 4.713282,-0.57643 0,0.84597 -1.369271,1.49664 -5.108081,2.42734 -1.572518,0.39145 -3.239393,0.96709 -3.704167,1.2792 -1.07116,0.71933 -1.239418,1.74082 -0.41349,2.51029 0.768927,0.71636 2.244204,0.72261 5.786155,0.0245 1.476602,-0.29104 2.739699,-0.52917 2.806883,-0.52917 0.06718,0 -1.86e-4,0.22859 -0.14971,0.50798 -0.351538,0.65685 -1.372975,0.97509 -4.732554,1.47446 -2.836701,0.42165 -3.723284,0.71931 -3.776801,1.26802 -0.119817,1.2285 0.887392,2.39554 1.934784,2.24182 0.392948,-0.0577 0.654181,-0.007 0.580518,0.11185 -0.07366,0.11919 0.319578,0.22147 0.873869,0.2273 l 1.007803,0.0106 -0.79375,0.43664 c -0.484881,0.26674 -1.411489,0.43859 -2.38125,0.44164 -2.114397,0.007 -4.332838,-0.2004 -4.216528,-0.39352 0.1425,-0.23661 -2.537631,-0.79726 -2.859695,-0.59821 -0.154869,0.0957 -0.208322,0.0555 -0.118786,-0.0894 0.09577,-0.15495 -0.85091,-0.49626 -2.299286,-0.82896 -2.828489,-0.64973 -6.40482,-1.04575 -6.184997,-0.68489 0.0805,0.13216 -0.374946,0.25496 -1.012113,0.2729 -1.346615,0.0379 -2.5636,0.72438 -2.434307,1.37315 0.06679,0.33517 0.317929,0.4271 1.008371,0.36916 0.505684,-0.0424 2.229112,-0.0983 3.829841,-0.12424 2.46811,-0.0399 3.303712,0.0639 5.498334,0.68301 1.423355,0.40154 2.733042,0.64671 2.910417,0.54483 0.187357,-0.10761 0.229068,-0.0843 0.09954,0.0556 -0.335231,0.36214 3.12041,1.12043 5.219347,1.14531 1.001763,0.0119 2.274986,-0.11431 2.829384,-0.28041 z m 16.489756,11.47847 c -0.45094,-0.52025 -1.01125,-0.94592 -1.24513,-0.94592 -0.23388,0 -0.37475,-0.0817 -0.31304,-0.18154 0.16683,-0.26994 -5.04609,-2.93016 -5.29692,-2.70309 -0.11829,0.10709 -0.16169,0.0756 -0.0964,-0.0699 0.15185,-0.3387 -1.531683,-1.97211 -1.806265,-1.75248 -0.113443,0.0907 0.0011,-0.0828 0.254519,-0.38566 0.253429,-0.30285 0.38185,-0.62956 0.285382,-0.72603 -0.09647,-0.0965 0.398444,0.0201 1.099806,0.25911 0.701358,0.23897 2.179018,1.0704 3.283678,1.84761 1.10466,0.77721 2.43762,1.64612 2.96215,1.93091 0.86135,0.46767 1.00864,0.4793 1.52135,0.12019 0.68622,-0.48065 0.7438,-1.57333 0.1313,-2.49155 -0.74132,-1.11132 -2.28339,-2.62409 -2.52359,-2.47564 -0.12548,0.0776 -0.19859,0.0429 -0.16246,-0.0771 0.0361,-0.11995 -0.7319,-0.9783 -1.70673,-1.90744 -1.83993,-1.75368 -2.34639,-2.59418 -1.77571,-2.94688 0.64475,-0.39847 1.80705,0.32661 3.73096,2.32752 1.07132,1.11421 2.03716,2.00018 2.1463,1.96883 0.10914,-0.0314 0.16867,0.0785 0.13229,0.24403 -0.0796,0.36246 2.06754,2.08022 2.60026,2.08022 0.62774,0 1.43464,-1.01255 1.43464,-1.80029 0,-0.85544 -0.89016,-2.32078 -3.00495,-4.94659 -1.3497,-1.67584 -1.43784,-1.86059 -0.92624,-1.94147 0.70182,-0.11095 1.39131,0.56385 3.66321,3.58514 1.93599,2.57459 2.75992,3.01199 3.54969,1.88444 0.55928,-0.79849 0.52493,-1.68911 -0.11995,-3.11058 -0.29193,-0.64348 -0.43815,-1.24077 -0.32492,-1.32732 0.11323,-0.0865 0.1827,-0.11237 0.15439,-0.0574 -0.0283,0.055 0.28985,0.38719 0.70703,0.73822 0.41718,0.35104 1.05105,1.22529 1.4086,1.9428 0.35754,0.7175 0.69422,1.26041 0.74817,1.20646 0.054,-0.054 0.11272,0.15988 0.13061,0.47518 0.0665,1.17327 1.3277,6.00402 1.51782,5.81389 0.10858,-0.10858 0.1213,9.5e-4 0.0283,0.2434 -0.14388,0.37495 0.2974,2.36431 0.8355,3.76657 0.13781,0.35913 -0.56671,0.40386 -6.02381,0.38247 l -6.17987,-0.0242 z m 0.72554,-23.1014 c -1.13154,-0.45318 -0.38261,-2.01937 2.58474,-5.40528 2.18004,-2.48755 2.43818,-3.61868 0.91317,-4.00143 -0.82654,-0.20745 -3.11069,0.84097 -2.82816,1.29811 0.0923,0.14935 0.0524,0.20022 -0.0886,0.11306 -0.14104,-0.0872 -1.14869,0.64402 -2.23923,1.62486 -2.29709,2.066 -3.31683,2.81427 -4.09899,3.00776 -0.51418,0.12719 -0.54325,0.0652 -0.3569,-0.76101 0.27193,-1.20573 0.52913,-1.48204 3.29791,-3.54301 3.87454,-2.88405 4.49914,-3.70594 3.72001,-4.89504 -0.31479,-0.48044 -0.661,-0.64851 -1.33588,-0.64851 -0.95327,0 -2.83771,0.75252 -2.64902,1.05784 0.0601,0.0973 -0.0356,0.17689 -0.21277,0.17689 -0.17715,0 -1.18537,0.57404 -2.24049,1.27564 -1.05512,0.70161 -1.99584,1.19821 -2.0905,1.10355 -0.434526,-0.43453 0.57951,-1.54289 2.47367,-2.70376 1.13872,-0.69789 2.25837,-1.4263 2.48811,-1.61869 0.32681,-0.27368 2.22138,-0.3498 8.70611,-0.3498 7.92515,0 8.26975,0.0206 7.86288,0.4702 -0.83803,0.92601 -1.74883,3.42005 -2.42001,6.6267 -0.83237,3.97676 -1.35512,5.07393 -2.4175,5.07393 -0.24574,0 -0.0945,-1.04214 0.46779,-3.22438 0.58666,-2.2766 0.5874,-2.3037 0.0791,-2.86533 -0.70812,-0.78247 -1.82106,-0.51986 -3.12523,0.73741 -1.15398,1.1125 -3.17678,3.95559 -3.17678,4.46504 0,0.18415 -0.0774,0.287 -0.17194,0.22855 -0.0946,-0.0584 -0.37333,0.23467 -0.61948,0.65136 -0.24615,0.4167 -0.79717,1.05182 -1.2245,1.4114 -0.42733,0.35957 -0.70419,0.72654 -0.61525,0.81548 0.2074,0.2074 0.0843,0.18547 -0.68228,-0.12154 z"
         id="path31" /><path
         style="fill:url(#linearGradient6);fill-opacity:1"
         d="m 107.93937,185.44002 c -0.32911,-0.41965 -0.31975,-0.429 0.0999,-0.0999 0.44073,0.34565 0.58088,0.56292 0.36312,0.56292 -0.0549,0 -0.2633,-0.20836 -0.46302,-0.46302 z m 0.79375,-0.79375 c -0.32911,-0.41965 -0.31975,-0.429 0.0999,-0.0999 0.44073,0.34565 0.58088,0.56292 0.36312,0.56292 -0.0549,0 -0.2633,-0.20836 -0.46302,-0.46302 z"
         id="path30" /><path
         style="fill:url(#linearGradient7);fill-opacity:1"
         d="m 106.10101,186.49835 -0.64143,-0.7276 0.7276,0.64143 c 0.68006,0.59952 0.84894,0.81378 0.64144,0.81378 -0.0474,0 -0.37482,-0.32743 -0.72761,-0.72761 z m -32.717123,-8.71616 c 0.257431,-0.0671 0.614619,-0.0627 0.79375,0.01 0.179132,0.0725 -0.03149,0.12736 -0.468056,0.12197 -0.436563,-0.005 -0.583125,-0.0647 -0.325694,-0.13177 z"
         id="path29" /><path
         style="fill:url(#linearGradient8);fill-opacity:1"
         d="m 87.815179,181.48896 c 0.190996,-0.0764 0.4192,-0.067 0.507118,0.0209 0.08792,0.0879 -0.06835,0.15046 -0.347265,0.13897 -0.308225,-0.0127 -0.370919,-0.0754 -0.159853,-0.15986 z m 0,-0.79375 c 0.190996,-0.0764 0.4192,-0.067 0.507118,0.0209 0.08792,0.0879 -0.06835,0.15046 -0.347265,0.13897 -0.308225,-0.0127 -0.370919,-0.0754 -0.159853,-0.15986 z"
         id="path28" /><path
         style="fill:url(#linearGradient9);fill-opacity:1"
         d="m 102.11854,183.05877 c -0.32911,-0.41965 -0.31975,-0.429 0.0999,-0.0999 0.25467,0.19972 0.46302,0.40808 0.46302,0.46302 0,0.21776 -0.21727,0.0776 -0.56291,-0.36312 z"
         id="path27" /><path
         style="fill:url(#linearGradient10);fill-opacity:1"
         d="m 105.69625,193.22482 c -0.59744,-0.46172 -1.31182,-0.99001 -1.5875,-1.17398 -0.27569,-0.18397 -0.1294,-0.15895 0.3251,0.0556 0.45449,0.21455 0.93074,0.30554 1.05833,0.2022 0.12759,-0.10333 0.14344,-0.0795 0.0352,0.053 -0.18688,0.22876 0.8193,1.13274 1.14484,1.02856 0.0849,-0.0272 0.15434,0.12259 0.15434,0.33279 0,0.21019 -0.01,0.37299 -0.022,0.36177 -0.0121,-0.0112 -0.51087,-0.39818 -1.1083,-0.8599 z m 14.46859,-1.65529 c 0.0127,-0.30822 0.0754,-0.37092 0.15985,-0.15985 0.0764,0.191 0.067,0.4192 -0.0209,0.50712 -0.0879,0.0879 -0.15046,-0.0683 -0.13897,-0.34727 z m -18.79917,-0.90891 c -1.08748,-0.57713 -2.337635,-1.42891 -2.778122,-1.89285 l -0.800885,-0.84352 1.004893,0.84455 c 0.552691,0.4645 1.832614,1.26138 2.844274,1.77085 1.01165,0.50946 1.83937,0.98433 1.83937,1.05526 0,0.18843 0.0362,0.20446 -2.10953,-0.93429 z m 18.53459,-0.14942 c 0.0127,-0.30823 0.0754,-0.37092 0.15985,-0.15985 0.0764,0.19099 0.067,0.41919 -0.0209,0.50711 -0.0879,0.0879 -0.15045,-0.0684 -0.13896,-0.34726 z m -15.50121,-2.11636 c -1.40287,-0.95784 -3.04784,-1.96726 -3.65549,-2.24315 -0.60765,-0.27589 -0.951242,-0.50423 -0.763544,-0.50742 0.404244,-0.007 2.282024,0.91944 3.260474,1.60842 0.38023,0.26774 0.78627,0.40102 0.90231,0.29618 0.11605,-0.10484 0.13885,-0.0636 0.0507,0.0916 -0.16321,0.28727 1.35096,1.34978 1.7488,1.22714 0.11995,-0.037 0.14799,0.0462 0.0623,0.18486 -0.14867,0.24056 0.82514,0.71704 1.24095,0.6072 0.10914,-0.0288 0.19843,0.0666 0.19843,0.21216 0,0.50244 -0.50373,0.2581 -3.0449,-1.47695 z m 15.21574,0.94778 c 0,-0.29104 0.10791,-0.52916 0.23981,-0.52916 0.1319,0 0.17754,0.23812 0.10143,0.52916 -0.0761,0.29104 -0.18402,0.52917 -0.23981,0.52917 -0.0558,0 -0.10143,-0.23813 -0.10143,-0.52917 z m -12.43542,-0.53508 c 0,-0.43472 -2.15424,-2.64793 -2.41844,-2.48464 -0.13228,0.0817 -0.21533,0.0505 -0.18457,-0.0695 0.0308,-0.11995 -0.84989,-1.11107 -1.95702,-2.20247 -2.20692,-2.17558 -2.671077,-3.14132 -1.91261,-3.97942 0.89146,-0.98505 2.70133,-0.53842 4.19803,1.03597 0.42245,0.44438 0.8987,0.73358 1.05833,0.64266 0.15963,-0.0909 0.20551,-0.0714 0.10196,0.0434 -0.21061,0.23339 2.80763,3.74135 3.57017,4.14944 0.34496,0.18462 0.61262,0.15886 0.91138,-0.0877 0.35644,-0.29416 0.40237,-0.28664 0.29189,0.0478 -0.29387,0.88966 -1.08004,0.5502 -2.81993,-1.21763 -0.97088,-0.98647 -1.86338,-1.76795 -1.98333,-1.73663 -0.11996,0.0313 -0.15122,-0.0513 -0.0695,-0.18355 0.1549,-0.25064 -1.77147,-2.15658 -2.6607,-2.63248 -0.76726,-0.41063 -2.2431,-0.25236 -2.57587,0.27623 -0.22168,0.35214 -0.17236,0.67565 0.21176,1.38891 0.60498,1.12339 4.48701,4.69204 4.81491,4.42623 0.12809,-0.10383 0.14573,-0.0818 0.0392,0.049 -0.10652,0.13078 0.2209,0.69667 0.72761,1.25753 0.82888,0.91747 1.15007,1.5474 0.78899,1.5474 -0.0728,0 -0.13229,-0.12172 -0.13229,-0.2705 z m 12.19172,-0.67759 c 0.0127,-0.30823 0.0754,-0.37092 0.15985,-0.15985 0.0764,0.19099 0.067,0.41919 -0.0209,0.50711 -0.0879,0.0879 -0.15046,-0.0684 -0.13897,-0.34726 z m -21.7195,-1.00885 c 0.209108,-0.94094 0.610969,-1.46805 1.127261,-1.47859 0.10914,-0.002 0.198437,0.12203 0.198437,0.27614 0,0.15411 -0.105572,0.21495 -0.234604,0.13521 -0.301054,-0.18606 -0.916371,0.54356 -0.722691,0.85694 0.08063,0.13046 -0.02083,0.4631 -0.225453,0.7392 -0.331876,0.44779 -0.34731,0.39069 -0.14295,-0.5289 z m 21.47581,-0.15973 c 0,-0.3638 0.0601,-0.51263 0.13345,-0.33073 0.0734,0.1819 0.0734,0.47956 0,0.66146 -0.0734,0.1819 -0.13345,0.0331 -0.13345,-0.33073 z m -0.28547,-1.21267 c 0.0127,-0.30823 0.0754,-0.37092 0.15985,-0.15985 0.0764,0.19099 0.067,0.4192 -0.0209,0.50711 -0.0879,0.0879 -0.15045,-0.0683 -0.13896,-0.34726 z m -8.35621,-1.17154 c -0.0999,-0.31461 -0.92298,-1.48444 -1.82918,-2.59963 -2.12906,-2.62008 -2.52107,-3.23777 -2.47161,-3.89445 0.0287,-0.38056 0.24002,-0.55113 0.716,-0.57783 0.65973,-0.037 0.66158,-0.0323 0.08,0.20268 -0.32742,0.13231 -0.59531,0.39986 -0.59531,0.59455 0,0.37389 1.16622,2.08156 1.34852,1.97461 0.0587,-0.0344 0.0822,-0.0183 0.0523,0.0359 -0.0299,0.0541 0.4832,0.75837 1.14022,1.56492 1.25995,1.54672 2.08196,2.92991 1.86822,3.14364 -0.0702,0.0702 -0.20934,-0.12976 -0.30919,-0.44436 z m 7.71338,-0.85237 c -0.085,-0.32491 -0.0691,-0.67575 0.0353,-0.77964 0.10438,-0.10388 0.21475,0.16195 0.24527,0.59075 0.0659,0.92529 -0.0649,1.01336 -0.28056,0.18889 z m -4.37173,-0.008 c -0.34543,-0.17976 -1.47652,-1.44865 -2.51355,-2.81976 -1.12645,-1.48935 -2.25662,-2.68762 -2.8074,-2.97656 -0.50706,-0.266 -0.72455,-0.48364 -0.48333,-0.48364 0.63907,0 2.00007,1.23092 3.27322,2.96037 0.61196,0.83129 1.18615,1.45778 1.27598,1.3922 0.0898,-0.0656 0.10732,-0.0434 0.0389,0.0493 -0.20453,0.27698 0.92231,1.68351 1.34873,1.68351 0.21696,0 0.32089,-0.11906 0.23095,-0.26458 -0.0899,-0.14553 -0.0448,-0.26459 0.10023,-0.26459 0.14507,0 0.24582,0.23813 0.2239,0.52917 -0.0219,0.29104 -0.0443,0.52741 -0.0497,0.52526 -0.005,-0.002 -0.29246,-0.15097 -0.63788,-0.33072 z m 3.64744,-1.8397 c -0.19751,-0.47761 -0.89814,-1.3938 -1.55696,-2.03597 -0.65882,-0.64217 -0.94281,-1.03181 -0.63108,-0.86586 0.31173,0.16595 0.86403,0.655 1.22734,1.08677 0.36332,0.43177 0.73335,0.73211 0.82229,0.66742 0.0889,-0.0647 0.10694,-0.043 0.04,0.0482 -0.067,0.0912 0.0609,0.51899 0.28409,0.95063 0.22321,0.43163 0.35355,0.83708 0.28965,0.90098 -0.0639,0.0639 -0.27779,-0.27458 -0.47531,-0.75219 z m -3.54856,-0.66574 c -0.7718,-1.8134 -0.77044,-1.95411 0.005,-0.5132 0.37793,0.70232 0.65049,1.38485 0.60568,1.51674 -0.0448,0.13188 -0.31959,-0.31971 -0.61063,-1.00354 z m -27.842363,-0.25371 c 0.257431,-0.0671 0.614618,-0.0627 0.79375,0.01 0.179131,0.0725 -0.03149,0.12736 -0.468057,0.12197 -0.436562,-0.005 -0.583124,-0.0647 -0.325693,-0.13178 z m 3.037673,0.008 c 0.181901,-0.0734 0.479557,-0.0734 0.661458,0 0.181901,0.0734 0.03307,0.13345 -0.330729,0.13345 -0.363802,0 -0.512631,-0.06 -0.330729,-0.13345 z m -4.481381,-0.2701 c 0.190997,-0.0764 0.4192,-0.067 0.507118,0.0209 0.08792,0.0879 -0.06835,0.15046 -0.347265,0.13897 -0.308225,-0.0127 -0.370919,-0.0754 -0.159853,-0.15986 z m 6.557906,-0.0418 c -0.07564,-0.12238 0.214995,-0.48313 0.645843,-0.80167 0.430848,-0.31854 0.783361,-0.45399 0.783361,-0.30099 0,0.153 -0.293923,0.4121 -0.653162,0.57578 -0.359239,0.16368 -0.590338,0.39925 -0.513552,0.52349 0.07679,0.12424 0.08008,0.2259 0.0073,0.2259 -0.07276,0 -0.194174,-0.10013 -0.269808,-0.22251 z m -7.616239,-0.22282 c 0.190996,-0.0764 0.419199,-0.067 0.507118,0.0209 0.08792,0.0879 -0.06835,0.15045 -0.347265,0.13896 -0.308225,-0.0127 -0.37092,-0.0754 -0.159853,-0.15985 z m -1.058333,-0.26458 c 0.190996,-0.0764 0.419199,-0.067 0.507118,0.0209 0.08792,0.0879 -0.06835,0.15045 -0.347266,0.13896 -0.308224,-0.0127 -0.370919,-0.0754 -0.159852,-0.15985 z m -3.125391,-0.62132 c 0,-0.14095 -0.208359,-0.26567 -0.46302,-0.27716 -0.254662,-0.0115 -0.333757,-0.0744 -0.175768,-0.13985 0.15799,-0.0654 0.564048,-0.0166 0.902353,0.10858 0.515471,0.19068 0.54394,0.25485 0.175768,0.39613 -0.241633,0.0927 -0.439333,0.0533 -0.439333,-0.0877 z m 1.273308,0.0922 c 0.190996,-0.0764 0.419199,-0.067 0.507118,0.0209 0.08792,0.0879 -0.06835,0.15045 -0.347266,0.13896 -0.308224,-0.0127 -0.370919,-0.0754 -0.159852,-0.15985 z m -10.269141,-0.61301 c -0.238467,-0.15411 -0.2711,-0.2581 -0.08176,-0.26053 0.173312,-0.002 0.388698,0.11501 0.478635,0.26053 0.203016,0.32849 0.111422,0.32849 -0.396875,0 z m 42.333331,0.16469 c 0,-0.0549 0.18132,-0.25038 0.40293,-0.4343 0.33691,-0.27961 0.37563,-0.26324 0.23628,0.0999 -0.14232,0.37087 -0.63921,0.63082 -0.63921,0.3344 z m -35.23919,-0.34543 c 0.190996,-0.0764 0.419199,-0.067 0.507118,0.0209 0.08792,0.0879 -0.06835,0.15045 -0.347266,0.13896 -0.308224,-0.0127 -0.370919,-0.0754 -0.159852,-0.15985 z m -6.35,-0.26458 c 0.190996,-0.0764 0.419199,-0.067 0.507118,0.0209 0.08792,0.0879 -0.06835,0.15045 -0.347266,0.13896 -0.308224,-0.0127 -0.370919,-0.0754 -0.159852,-0.15985 z m 5.010547,0.006 c 0.181901,-0.0734 0.479557,-0.0734 0.661458,0 0.181901,0.0734 0.03307,0.13345 -0.330729,0.13345 -0.363802,0 -0.51263,-0.0601 -0.330729,-0.13345 z m -3.638021,-0.30081 c 0,-0.1163 0.446484,-0.1672 0.992187,-0.11312 1.536027,0.15225 1.647939,0.2807 0.264584,0.30369 -0.691224,0.0115 -1.256771,-0.0743 -1.256771,-0.19057 z m 16.933333,0.0625 c 0.928135,-0.20487 2.591267,-0.24136 2.47567,-0.0543 -0.06911,0.11182 -0.743702,0.18949 -1.499098,0.17261 -0.755396,-0.0169 -1.194854,-0.0701 -0.976572,-0.11829 z m -1.315255,-0.36985 c -0.214066,-0.13538 -0.332942,-0.30241 -0.264167,-0.37119 0.06878,-0.0688 0.355974,0.0438 0.63822,0.2502 0.564473,0.41275 0.248763,0.51487 -0.374053,0.12099 z m -0.272245,-1.07697 c 0,-0.14095 0.178593,-0.25628 0.396875,-0.25628 0.218281,0 0.396875,0.0468 0.396875,0.10399 0,0.0572 -0.178594,0.17251 -0.396875,0.25628 -0.218282,0.0838 -0.396875,0.037 -0.396875,-0.10399 z m 1.256771,-0.43151 c 0.181901,-0.0734 0.479557,-0.0734 0.661458,0 0.181901,0.0734 0.03307,0.13346 -0.330729,0.13346 -0.363802,0 -0.512631,-0.0601 -0.330729,-0.13346 z m 1.724827,-0.2727 c 0.257431,-0.0671 0.614618,-0.0627 0.79375,0.01 0.179131,0.0725 -0.03149,0.12736 -0.468057,0.12197 -0.436562,-0.005 -0.583124,-0.0647 -0.325693,-0.13177 z m 1.979339,-0.25646 c 0.181901,-0.0734 0.479557,-0.0734 0.661458,0 0.181901,0.0734 0.03307,0.13345 -0.330729,0.13345 -0.363802,0 -0.51263,-0.06 -0.330729,-0.13345 z m 2.447396,-0.73876 c 0.363802,-0.20133 0.661458,-0.465 0.661458,-0.58593 0,-0.12093 0.103904,-0.18524 0.230897,-0.14291 0.126993,0.0423 0.160496,-0.1065 0.07445,-0.33073 -0.08605,-0.22423 -0.04112,-0.40769 0.09983,-0.40769 0.140954,0 0.256279,0.16995 0.256279,0.37767 0,0.41782 -1.224565,1.4798 -1.689327,1.46503 -0.162276,-0.005 0.0026,-0.1741 0.366411,-0.37544 z m -7.816088,-1.74945 c -0.301316,-0.48754 0.09812,-0.59442 0.546346,-0.14619 0.369902,0.3699 0.373753,0.42838 0.02821,0.42838 -0.220087,0 -0.478639,-0.12699 -0.57456,-0.28219 z m 2.259838,0.0543 c 0,-0.12534 0.297656,-0.17099 0.661458,-0.10144 0.363802,0.0695 0.661459,0.17209 0.661459,0.22789 0,0.0558 -0.297657,0.10145 -0.661459,0.10145 -0.363802,0 -0.661458,-0.10256 -0.661458,-0.2279 z m 1.785937,-0.21192 c 0.181901,-0.0734 0.479558,-0.0734 0.661459,0 0.181901,0.0734 0.03307,0.13346 -0.330729,0.13346 -0.363802,0 -0.512631,-0.0601 -0.33073,-0.13346 z m 1.12448,-0.32916 c 0,-0.1319 0.238125,-0.17755 0.529166,-0.10144 0.291042,0.0761 0.529167,0.18403 0.529167,0.23982 0,0.0558 -0.238125,0.10143 -0.529167,0.10143 -0.291041,0 -0.529166,-0.10792 -0.529166,-0.23981 z m 3.439583,-0.0248 c 0,-0.14553 0.119062,-0.26459 0.264583,-0.26459 0.145521,0 0.264583,0.11906 0.264583,0.26459 0,0.14552 -0.119062,0.26458 -0.264583,0.26458 -0.145521,0 -0.264583,-0.11906 -0.264583,-0.26458 z m -1.918229,-0.17523 c 0.181901,-0.0734 0.479557,-0.0734 0.661458,0 0.181901,0.0734 0.03307,0.13345 -0.330729,0.13345 -0.363802,0 -0.51263,-0.06 -0.330729,-0.13345 z m -6.813021,-0.32378 c 0,-0.21741 1.329099,-0.90592 1.472319,-0.7627 0.04456,0.0446 -0.268481,0.2816 -0.69565,0.52676 -0.427168,0.24516 -0.776669,0.35134 -0.776669,0.23594 z m 2.067057,-1.00465 c 0.190996,-0.0764 0.419199,-0.067 0.507118,0.0209 0.08792,0.0879 -0.06835,0.15045 -0.347265,0.13896 -0.308225,-0.0127 -0.370919,-0.0754 -0.159853,-0.15985 z m 1.058334,-0.26458 c 0.190996,-0.0764 0.419199,-0.067 0.507118,0.0209 0.08792,0.0879 -0.06835,0.15046 -0.347266,0.13897 -0.308224,-0.0127 -0.370919,-0.0754 -0.159852,-0.15985 z m 1.058333,-0.26459 c 0.190996,-0.0764 0.419199,-0.067 0.507118,0.0209 0.08792,0.0879 -0.06835,0.15045 -0.347266,0.13896 -0.308224,-0.0127 -0.370919,-0.0754 -0.159852,-0.15985 z m 1.058333,-0.26458 c 0.190996,-0.0764 0.419199,-0.067 0.507118,0.0209 0.08792,0.0879 -0.06835,0.15045 -0.347265,0.13896 -0.308225,-0.0127 -0.37092,-0.0754 -0.159853,-0.15985 z m 14.067221,-0.22253 c -0.48639,-0.58606 -0.20961,-0.65343 0.33603,-0.0818 0.25467,0.26679 0.35854,0.48507 0.23084,0.48507 -0.1277,0 -0.3828,-0.18147 -0.56687,-0.40327 z m 1.72149,0.13285 c -0.0924,-0.14952 -0.0699,-0.25481 0.0501,-0.23397 0.11995,0.0208 0.36416,0.0238 0.54268,0.007 0.48368,-0.0467 2.48216,-2.6814 2.2809,-3.00704 -0.10223,-0.16542 -0.048,-0.20337 0.13176,-0.0923 0.2882,0.17811 0.43394,-0.17772 0.31475,-0.76849 -0.0294,-0.14552 0.0331,-0.17807 0.13886,-0.0723 0.10573,0.10573 0.74073,-0.59798 1.41111,-1.56379 1.35432,-1.95117 2.23362,-2.69896 2.55746,-2.17497 0.11474,0.18565 0.0877,0.2526 -0.0641,0.15878 -0.37886,-0.23415 -1.91635,1.47449 -3.52455,3.91691 -2.03021,3.08332 -3.43469,4.48475 -3.83897,3.83062 z M 95.669997,169.5699 c 0.436562,-0.28294 0.937007,-0.68805 1.112099,-0.90024 0.366301,-0.44391 0.365934,-1.53039 -6.81e-4,-2.01506 -0.16013,-0.21169 -0.153471,-0.33073 0.0185,-0.33073 0.721319,0 0.782017,1.92452 0.08275,2.62379 -0.278915,0.27891 -0.457508,0.55672 -0.396875,0.61736 0.06063,0.0606 -0.03858,0.1159 -0.220486,0.12282 -0.181901,0.007 -0.568854,0.099 -0.859896,0.20454 -0.291041,0.10558 -0.171979,-0.0395 0.264584,-0.32248 z m -24.804687,0.0183 c 0.181901,-0.0734 0.479557,-0.0734 0.661458,0 0.181901,0.0734 0.03307,0.13345 -0.330729,0.13345 -0.363802,0 -0.51263,-0.06 -0.330729,-0.13345 z m 2.050521,-0.65856 c 0.582083,-0.3002 1.575655,-1.03908 2.207938,-1.64195 1.249581,-1.19147 3.304214,-4.03599 3.304214,-4.5745 0,-0.18415 0.09922,-0.2735 0.220487,-0.19855 0.215823,0.13338 0.335818,-0.29537 0.229769,-0.82101 -0.02936,-0.14552 0.02565,-0.18554 0.122252,-0.0889 0.0966,0.0966 0.596624,-0.29035 1.111169,-0.85989 0.514546,-0.56954 1.049223,-1.03553 1.188172,-1.03553 0.138949,0 -0.152797,0.38695 -0.648325,0.8599 -1.18768,1.13354 -4.187888,5.63014 -3.951715,5.92267 0.101634,0.12589 0.08225,0.14619 -0.04308,0.0451 -0.125325,-0.10107 -0.528753,0.17382 -0.896506,0.61087 -0.652955,0.77599 -3.111517,2.35518 -3.63813,2.33685 -0.145521,-0.005 0.211667,-0.25483 0.79375,-0.55503 z m 12.859883,-0.2019 c -0.710138,-0.44965 -0.02985,-1.07502 2.611102,-2.40032 1.463856,-0.73459 3.138293,-1.76633 3.720971,-2.29274 0.582678,-0.52642 0.98314,-0.75835 0.889915,-0.51541 -0.226857,0.59118 -1.893126,1.70976 -4.486211,3.01163 -1.172282,0.58855 -2.287019,1.25757 -2.477194,1.48672 -0.369767,0.44554 -0.297074,0.50771 0.90445,0.77358 0.424132,0.0938 0.397874,0.12238 -0.132292,0.14373 -0.363802,0.0147 -0.827635,-0.0786 -1.030741,-0.20719 z m 20.494626,-0.20967 c -0.14358,-0.37709 -0.11319,-0.40748 0.14811,-0.14812 0.18082,0.17948 0.26212,0.39297 0.18066,0.47444 -0.0815,0.0815 -0.22941,-0.0654 -0.32877,-0.32632 z m 9.95778,0.13411 c -0.17462,-0.17463 -0.3175,-0.43551 -0.3175,-0.57974 0,-0.14423 0.17187,-0.0311 0.38194,0.25135 0.35383,0.4758 0.43615,0.48389 1.11852,0.10992 0.40513,-0.22203 1.00716,-0.80518 1.33786,-1.2959 0.68806,-1.02102 0.79122,-0.89044 0.19991,0.25303 -0.35846,0.69318 -1.58045,1.57884 -2.17842,1.57884 -0.12365,0 -0.36768,-0.14288 -0.54231,-0.3175 z m -28.148357,-0.12783 c 0.190996,-0.0764 0.419199,-0.067 0.507118,0.0209 0.08792,0.0879 -0.06835,0.15045 -0.347266,0.13896 -0.308224,-0.0127 -0.370919,-0.0754 -0.159852,-0.15985 z m 1.546509,-0.54555 c -0.07432,-0.12026 0.06449,-0.22248 0.308463,-0.22716 0.243977,-0.005 0.741252,-0.0954 1.105054,-0.20162 0.450079,-0.1314 0.534631,-0.11475 0.264583,0.0521 -0.667784,0.4126 -1.535522,0.60738 -1.6781,0.37668 z m 17.023928,0.0337 c 0,-0.15747 0.34929,-0.76848 0.77619,-1.3578 0.42691,-0.58932 0.6948,-1.17274 0.59531,-1.29647 -0.0995,-0.12373 -0.0804,-0.14431 0.0425,-0.0457 0.27524,0.2209 1.92735,-1.62188 1.80511,-2.01343 -0.0485,-0.15538 -0.003,-0.19724 0.10127,-0.093 0.10421,0.1042 0.42964,-0.11586 0.72318,-0.48904 0.44247,-0.56251 0.47039,-0.71859 0.16331,-0.91302 -0.5306,-0.33595 -0.5799,-0.32134 -1.71976,0.50966 -1.17452,0.85626 -4.58593,3.91717 -4.51699,4.0529 0.025,0.0493 -5.7e-4,0.0634 -0.0569,0.0313 -0.0563,-0.0321 -0.45014,0.18926 -0.87513,0.49188 -0.42498,0.30262 -0.84522,0.47769 -0.93385,0.38906 -0.0886,-0.0886 -0.0374,-0.16116 0.11392,-0.16116 0.15129,0 1.51059,-1.08582 3.02066,-2.41294 3.07875,-2.70574 4.08191,-3.40546 4.88429,-3.4069 1.25572,-0.002 1.01333,0.63475 -1.20771,3.17401 -0.82735,0.94588 -1.82177,2.19391 -2.20982,2.7734 -0.38806,0.57948 -0.70556,0.92477 -0.70556,0.7673 z m -5.5367,-0.73902 c -0.2173,-0.26183 -0.22501,-0.42574 -0.0258,-0.54883 0.1562,-0.0965 0.25127,-0.0284 0.21129,0.15146 -0.04,0.17983 0.22495,0.41494 0.58875,0.52246 0.58872,0.17398 0.59956,0.19838 0.0986,0.22186 -0.30961,0.0145 -0.70234,-0.14162 -0.87275,-0.34695 z m -8.221628,-0.42043 c 0.218281,-0.14106 0.575469,-0.24994 0.79375,-0.24194 0.261687,0.01 0.216625,0.092 -0.132292,0.24194 -0.727362,0.31256 -1.145107,0.31256 -0.661458,0 z m 1.53789,-0.44532 c 0.190997,-0.0764 0.4192,-0.067 0.507118,0.0209 0.08792,0.0879 -0.06835,0.15046 -0.347265,0.13897 -0.308225,-0.0127 -0.370919,-0.0754 -0.159853,-0.15985 z m 6.162108,-0.29542 c -0.0384,-0.86256 0.58964,-1.95943 1.66002,-2.89923 0.50621,-0.44446 0.86948,-0.87885 0.80726,-0.96532 -0.0622,-0.0865 -0.0363,-0.10023 0.0576,-0.0306 0.2142,0.15887 2.54351,-1.49366 3.87747,-2.75087 0.68424,-0.64488 0.96369,-1.10773 0.8747,-1.44876 -0.0908,-0.34798 -0.0464,-0.41677 0.14529,-0.22507 0.4629,0.4629 -0.0178,1.34565 -1.24164,2.28011 -0.64,0.48868 -1.07818,0.97396 -0.97373,1.07841 0.10445,0.10445 0.0441,0.15022 -0.13408,0.10171 -0.38885,-0.10585 -3.4385,2.21439 -4.14959,3.1571 -0.27705,0.36729 -0.59203,1.03751 -0.69997,1.48938 -0.15501,0.64893 -0.20194,0.69372 -0.22333,0.21313 z m 15.33964,0.0572 c 0.0127,-0.30822 0.0754,-0.37092 0.15985,-0.15985 0.0764,0.191 0.067,0.4192 -0.0209,0.50712 -0.0879,0.0879 -0.15045,-0.0683 -0.13896,-0.34727 z m -20.178831,-0.0264 c 0.190996,-0.0764 0.419199,-0.067 0.507118,0.0209 0.08792,0.0879 -0.06835,0.15045 -0.347265,0.13896 -0.308225,-0.0127 -0.37092,-0.0754 -0.159853,-0.15985 z m -14.700911,-0.25907 c -0.181901,-0.0734 -0.330729,-0.25717 -0.330729,-0.40838 0,-0.16689 0.154825,-0.14644 0.393975,0.052 0.24621,0.20433 0.733001,0.26336 1.297897,0.15739 0.993396,-0.18636 5.283839,-2.85409 5.061465,-3.14714 -0.07632,-0.10056 -0.06589,-0.12982 0.02317,-0.065 0.08906,0.0648 0.783296,-0.23285 1.542748,-0.66146 0.759451,-0.4286 1.490257,-0.77713 1.624011,-0.77449 0.133754,0.003 -0.352123,0.33485 -1.079727,0.73826 -0.727604,0.4034 -2.229015,1.35287 -3.33647,2.10993 -2.806027,1.91819 -4.13211,2.4283 -5.196342,1.99887 z m 38.604792,-1.14769 c 0,-0.3638 0.0601,-0.51263 0.13346,-0.33073 0.0734,0.1819 0.0734,0.47956 0,0.66146 -0.0734,0.1819 -0.13346,0.0331 -0.13346,-0.33073 z m -38.504718,0 c 0.112473,-0.21828 0.716398,-1.09458 1.342055,-1.94733 1.165148,-1.58807 1.390191,-2.44154 0.806829,-3.05991 -0.266908,-0.28292 -0.254144,-0.32749 0.06615,-0.23097 0.725957,0.21876 0.609022,1.58845 -0.244133,2.85959 -0.863634,1.28675 -2.304002,3.02509 -1.970897,2.37862 z m 35.308838,-0.6835 c 0.0127,-0.30823 0.0754,-0.37092 0.15985,-0.15986 0.0764,0.191 0.067,0.4192 -0.0209,0.50712 -0.0879,0.0879 -0.15045,-0.0683 -0.13896,-0.34726 z m 3.43958,-0.79375 c 0.0127,-0.30823 0.0754,-0.37092 0.15985,-0.15986 0.0764,0.191 0.067,0.4192 -0.0209,0.50712 -0.0879,0.0879 -0.15045,-0.0684 -0.13896,-0.34726 z m -3.19589,-0.22939 c 0,-0.21105 -0.20836,-0.50509 -0.46302,-0.65341 -0.41351,-0.24085 -0.39936,-0.27055 0.13229,-0.27774 0.46076,-0.006 0.59531,0.14147 0.59531,0.65342 0,0.3638 -0.0595,0.66146 -0.13229,0.66146 -0.0728,0 -0.13229,-0.17268 -0.13229,-0.38373 z m -23.547915,-0.6336 c 0,-0.61863 -0.731398,-1.28025 -1.5875,-1.43606 -0.648899,-0.1181 -0.647643,-0.12107 0.06615,-0.15642 0.84446,-0.0418 1.785938,0.77606 1.785938,1.55147 0,0.29104 -0.05953,0.52917 -0.132292,0.52917 -0.07276,0 -0.132292,-0.21967 -0.132292,-0.48816 z m 27.008385,-0.45993 c 0.0127,-0.30823 0.0754,-0.37092 0.15985,-0.15985 0.0764,0.19099 0.067,0.4192 -0.0209,0.50711 -0.0879,0.0879 -0.15046,-0.0683 -0.13897,-0.34726 z m -20.760028,-0.58982 c -0.0978,-0.15825 0.05328,-0.20809 0.375416,-0.12385 0.367152,0.096 1.234982,-0.32214 2.721052,-1.31109 2.48099,-1.65107 3.70484,-2.32343 4.20193,-2.30846 0.18913,0.006 -0.0133,0.16658 -0.44988,0.35753 -1.09538,0.4791 -4.89547,2.98282 -4.74923,3.12907 0.0655,0.0655 -0.0298,0.13407 -0.21171,0.15248 -0.1819,0.0184 -0.64419,0.10899 -1.02732,0.2013 -0.383122,0.0923 -0.770239,0.0487 -0.860258,-0.097 z m 21.024618,-0.7331 c 0.0127,-0.30822 0.0754,-0.37092 0.15985,-0.15985 0.0764,0.191 0.067,0.4192 -0.0209,0.50712 -0.0879,0.0879 -0.15045,-0.0684 -0.13896,-0.34727 z m -21.410365,-0.37482 c 0,-0.36381 0.06005,-0.51263 0.133452,-0.33073 0.0734,0.1819 0.0734,0.47955 0,0.66146 -0.0734,0.1819 -0.133452,0.0331 -0.133452,-0.33073 z m 21.775465,-0.28219 c -0.0959,-0.1552 -0.11765,-0.33893 -0.0483,-0.40829 0.0694,-0.0693 0.19661,0.0576 0.28278,0.28219 0.1789,0.46622 0.0264,0.54823 -0.23448,0.1261 z m -38.898442,-0.36611 c -0.496033,-0.3706 -0.493239,-0.37859 0.08172,-0.23373 0.327422,0.0825 0.595312,0.25517 0.595312,0.38372 0,0.31486 -0.07796,0.29759 -0.677034,-0.14999 z m 17.203046,-0.42694 c -0.111984,-0.18119 -0.09591,-0.2755 0.03571,-0.20957 0.301709,0.15112 1.692846,-1.27452 1.465506,-1.50185 -0.0923,-0.0923 -0.0488,-0.14384 0.0967,-0.11448 0.60915,0.1229 0.94711,-0.0269 0.76695,-0.34001 -0.10468,-0.1819 -0.0966,-0.24618 0.0179,-0.14284 0.2557,0.23068 1.72866,-0.49882 1.72866,-0.85614 0,-0.14179 0.26789,-0.25748 0.59531,-0.25711 0.43344,4.9e-4 0.16363,0.25863 -0.99218,0.94929 -0.87313,0.52173 -2.02029,1.36565 -2.54926,1.87538 -0.690833,0.66571 -1.019105,0.83397 -1.165357,0.59733 z m 21.850526,-0.12709 c -0.0208,-0.48115 1.69057,-3.1219 2.10471,-3.24766 0.25445,-0.0773 0.18237,0.11319 -0.20086,0.53072 -0.32875,0.35818 -0.56687,0.70193 -0.52916,0.76389 0.0377,0.062 0.014,0.0779 -0.0527,0.0355 -0.0667,-0.0425 -0.38875,0.4338 -0.71565,1.05834 -0.3269,0.62453 -0.59974,1.01118 -0.60632,0.85923 z"
         id="path26" /><path
         style="fill:url(#linearGradient11);fill-opacity:1"
         d="m 103.51698,191.72387 c 0,-0.3638 0.06,-0.51263 0.13345,-0.33073 0.0734,0.1819 0.0734,0.47956 0,0.66146 -0.0734,0.1819 -0.13345,0.0331 -0.13345,-0.33073 z m 3.39781,-1.96028 c 0,-0.0504 0.17859,-0.23981 0.39687,-0.42097 0.22876,-0.18985 0.39688,-0.21556 0.39688,-0.0607 0,0.14777 -0.1786,0.3372 -0.39688,0.42097 -0.21828,0.0838 -0.39687,0.11107 -0.39687,0.0607 z m -0.79375,-2.80222 c -0.23847,-0.15411 -0.2711,-0.2581 -0.0818,-0.26053 0.17331,-0.002 0.3887,0.11501 0.47863,0.26053 0.20302,0.32849 0.11143,0.32849 -0.39687,0 z m -3.31817,-2.92802 c -0.0959,-0.1552 -0.11766,-0.33893 -0.0483,-0.40828 0.0694,-0.0694 0.1966,0.0576 0.28277,0.28218 0.17891,0.46623 0.0264,0.54823 -0.23447,0.1261 z m 10.42817,-0.97458 c -0.32911,-0.41965 -0.31975,-0.429 0.0999,-0.0999 0.25467,0.19972 0.46302,0.40808 0.46302,0.46302 0,0.21776 -0.21727,0.0776 -0.56291,-0.36312 z m -8.04692,-1.67125 c -0.27148,-0.43926 -0.0278,-0.50018 0.35204,-0.088 0.18764,0.2036 0.22443,0.37019 0.0818,0.37019 -0.14267,0 -0.33788,-0.12699 -0.4338,-0.28219 z m -12.978845,-2.66571 c -0.502238,-0.56463 -0.501914,-0.56535 0.09128,-0.20094 0.327422,0.20114 0.595313,0.45613 0.595313,0.56665 0,0.31901 -0.147354,0.24053 -0.686597,-0.36571 z m 22.424205,0.0375 c 0,-0.3638 0.0601,-0.51263 0.13345,-0.33073 0.0734,0.1819 0.0734,0.47956 0,0.66146 -0.0734,0.1819 -0.13345,0.0331 -0.13345,-0.33073 z m -1.21015,-0.0949 c 0.19844,-0.51713 0.53517,-0.56081 0.7983,-0.10357 0.10468,0.1819 0.0929,0.24247 -0.0262,0.13459 -0.11908,-0.10788 -0.37902,-0.0613 -0.57765,0.10357 -0.2854,0.23687 -0.32618,0.20864 -0.19447,-0.13459 z m -38.649543,-0.43127 c -0.09269,-0.14998 0.01351,-0.19434 0.248969,-0.10398 0.458368,0.17589 0.542233,0.36554 0.161648,0.36554 -0.136933,0 -0.32171,-0.1177 -0.410617,-0.26156 z m 32.674163,-7.24821 c 0,-0.0558 0.23829,-0.16375 0.52954,-0.23991 0.29124,-0.0762 0.46281,-0.0305 0.38126,0.10143 -0.14242,0.23043 -0.9108,0.34726 -0.9108,0.13848 z M 69.55893,169.8473 c 0.190996,-0.0764 0.419199,-0.067 0.507118,0.0209 0.08792,0.0879 -0.06835,0.15045 -0.347266,0.13896 -0.308224,-0.0127 -0.370919,-0.0754 -0.159852,-0.15985 z m 37.35586,-5.62448 c 0,-0.13693 0.1177,-0.32171 0.26155,-0.41062 0.14998,-0.0927 0.19434,0.0135 0.10398,0.24897 -0.17589,0.45837 -0.36553,0.54224 -0.36553,0.16165 z m -7.579859,-2.86255 c 0.09615,-0.15558 0.02525,-0.34317 -0.157557,-0.41687 -0.237897,-0.0959 -0.242805,-0.13994 -0.01726,-0.15489 0.455316,-0.0302 0.674035,0.43805 0.309779,0.66317 -0.184638,0.11411 -0.239157,0.0772 -0.134959,-0.0914 z"
         id="path25" /><path
         style="fill:url(#linearGradient12);fill-opacity:1"
         d="m 106.47382,193.71989 c 0,-0.21188 0.10116,-0.32272 0.2248,-0.24631 0.12364,0.0764 0.1563,0.24977 0.0726,0.38524 -0.21395,0.34618 -0.29738,0.3072 -0.29738,-0.13893 z m 0.31055,-3.58049 c -0.0927,-0.14998 0.0135,-0.19434 0.24897,-0.10398 0.45837,0.17589 0.54223,0.36554 0.16165,0.36554 -0.13694,0 -0.32171,-0.1177 -0.41062,-0.26156 z m 12.7,-0.26458 c -0.0927,-0.14998 0.0135,-0.19434 0.24897,-0.10399 0.45837,0.1759 0.54223,0.36554 0.16165,0.36554 -0.13694,0 -0.32171,-0.1177 -0.41062,-0.26155 z m -21.036248,-0.63618 c 0,-0.0572 0.184777,-0.17489 0.410617,-0.26156 0.235459,-0.0904 0.341662,-0.046 0.248968,0.10399 -0.155379,0.25141 -0.659585,0.37186 -0.659585,0.15757 z m 20.507078,-1.74507 c -0.0927,-0.14998 0.0135,-0.19434 0.24897,-0.10399 0.45837,0.1759 0.54223,0.36554 0.16165,0.36554 -0.13693,0 -0.32171,-0.1177 -0.41062,-0.26155 z m -13.49829,-1.06568 c -0.0914,-0.1479 -0.25294,-0.21528 -0.35897,-0.14975 -0.10604,0.0655 -0.3657,0.008 -0.57703,-0.12872 -0.30157,-0.19453 -0.27039,-0.23122 0.14492,-0.17051 0.6354,0.0929 1.72076,0.69838 1.27239,0.70983 -0.17332,0.004 -0.3899,-0.11296 -0.48131,-0.26085 z m -6.479622,-0.78943 c 0,-0.14553 0.119063,-0.26459 0.264584,-0.26459 0.14552,0 0.264583,0.11906 0.264583,0.26459 0,0.14552 -0.119063,0.26458 -0.264583,0.26458 -0.145521,0 -0.264584,-0.11906 -0.264584,-0.26458 z m 9.491932,-0.1886 c -0.0182,-0.0418 -0.0498,-0.16528 -0.0702,-0.27443 -0.0204,-0.10914 -0.1438,-0.37703 -0.27418,-0.59531 -0.13037,-0.21828 0.10957,-0.0992 0.53322,0.26459 0.42365,0.3638 0.81349,0.68483 0.86632,0.71341 0.0528,0.0286 -0.15553,0.033 -0.46302,0.01 -0.30749,-0.0232 -0.57395,-0.0763 -0.59214,-0.1181 z m -6.45069,-2.19428 c -0.2642,-0.29193 -0.43148,-0.57793 -0.37174,-0.63554 0.0597,-0.0576 0.32254,0.18124 0.584,0.53079 0.57742,0.77198 0.44895,0.83538 -0.21226,0.10475 z m -14.550616,-2.11504 c -0.09274,-0.15006 0.129544,-0.26458 0.513551,-0.26458 0.372391,0 0.677074,0.11906 0.677074,0.26458 0,0.14552 -0.231099,0.26458 -0.513552,0.26458 -0.282454,0 -0.587136,-0.11906 -0.677073,-0.26458 z m 13.185066,-0.9144 c 0,-0.21188 0.10116,-0.32272 0.2248,-0.24631 0.12365,0.0764 0.15631,0.24978 0.0726,0.38524 -0.21394,0.34618 -0.29738,0.3072 -0.29738,-0.13893 z m 15.22389,-0.34237 c -0.32911,-0.41965 -0.31975,-0.429 0.0999,-0.0999 0.44073,0.34565 0.58088,0.56292 0.36312,0.56292 -0.0549,0 -0.2633,-0.20836 -0.46302,-0.46302 z m -6.37643,-0.97622 c -0.41492,-0.57088 -0.41704,-0.62298 -0.023,-0.56515 0.23871,0.035 0.47341,0.32176 0.52154,0.63717 0.10891,0.71363 0.0682,0.70776 -0.49851,-0.072 z m -20.841901,-5.17534 c 0,-0.14553 0.18562,-0.26459 0.41249,-0.26459 0.226869,0 0.338905,0.11906 0.248968,0.26459 -0.08994,0.14552 -0.275557,0.26458 -0.41249,0.26458 -0.136933,0 -0.248968,-0.11906 -0.248968,-0.26458 z m 2.38125,-0.24897 c 0,-0.13694 0.117698,-0.32171 0.261552,-0.41062 0.149982,-0.0927 0.194339,0.0135 0.103984,0.24897 -0.175892,0.45837 -0.365536,0.54223 -0.365536,0.16165 z m 5.291666,-0.0156 c 0,-0.14552 0.119063,-0.26458 0.264583,-0.26458 0.145521,0 0.264584,0.11906 0.264584,0.26458 0,0.14552 -0.119063,0.26459 -0.264584,0.26459 -0.14552,0 -0.264583,-0.11907 -0.264583,-0.26459 z m -2.645833,-0.51355 c 0,-0.13693 0.117699,-0.32171 0.261553,-0.41062 0.149981,-0.0927 0.194338,0.0135 0.103984,0.24897 -0.175893,0.45837 -0.365537,0.54224 -0.365537,0.16165 z m 1.722459,-0.28451 c 0.0914,-0.1479 0.277024,-0.2004 0.41249,-0.11668 0.366988,0.22681 0.298558,0.38558 -0.166189,0.38558 -0.22687,0 -0.337705,-0.12101 -0.246301,-0.2689 z m 14.070209,-2.56069 c -0.0744,-0.12043 0.0361,-0.45347 0.24574,-0.7401 0.37272,-0.50972 0.37912,-0.50836 0.29204,0.0622 -0.10429,0.68332 -0.34606,0.98807 -0.53778,0.67785 z m -39.340584,-0.36103 c 0,-0.15411 0.119062,-0.20661 0.264583,-0.11668 0.145521,0.0899 0.264584,0.21603 0.264584,0.2802 0,0.0642 -0.119063,0.11668 -0.264584,0.11668 -0.145521,0 -0.264583,-0.12609 -0.264583,-0.2802 z m 45.640624,-2.8948 c 0.0899,-0.14552 0.21603,-0.26458 0.2802,-0.26458 0.0642,0 0.11667,0.11906 0.11667,0.26458 0,0.14552 -0.12608,0.26458 -0.28019,0.26458 -0.15411,0 -0.20662,-0.11906 -0.11668,-0.26458 z m -10.14005,-2.25127 c 0.0806,-0.0806 0.41692,-0.19864 0.74734,-0.26227 0.33042,-0.0636 0.52206,-0.037 0.42586,0.0592 -0.0962,0.0962 -0.4325,0.21422 -0.74734,0.26227 -0.31484,0.0481 -0.50647,0.0214 -0.42586,-0.0592 z m 1.27651,-7.01745 c 0,-0.14095 0.17859,-0.25628 0.39687,-0.25628 0.21828,0 0.39688,0.0468 0.39688,0.10398 0,0.0572 -0.1786,0.17252 -0.39688,0.25628 -0.21828,0.0838 -0.39687,0.037 -0.39687,-0.10398 z"
         id="path24" /><path
         style="fill:url(#linearGradient13);fill-opacity:1"
         d="m 101.85396,183.58793 c -0.32911,-0.41964 -0.31975,-0.429 0.0999,-0.0999 0.44073,0.34564 0.58089,0.56292 0.36313,0.56292 -0.055,0 -0.2633,-0.20836 -0.46302,-0.46303 z"
         id="path23" /><path
         style="fill:url(#linearGradient14);fill-opacity:1"
         d="m 105.55812,187.02752 c -0.3291,-0.41965 -0.31975,-0.429 0.0999,-0.0999 0.44073,0.34565 0.58088,0.56292 0.36312,0.56292 -0.0549,0 -0.2633,-0.20836 -0.46302,-0.46302 z m -0.52916,-5.29167 c -0.32911,-0.41964 -0.31975,-0.429 0.0999,-0.0999 0.44073,0.34564 0.58089,0.56291 0.36313,0.56291 -0.055,0 -0.2633,-0.20836 -0.46302,-0.46302 z"
         id="path22" /><path
         style="fill:url(#linearGradient15);fill-opacity:1"
         d="m 102.269,190.78323 c -0.49319,-0.39512 -0.48994,-0.40001 0.0817,-0.12298 0.32742,0.15867 0.59531,0.34383 0.59531,0.41147 0,0.20247 -0.13722,0.144 -0.67704,-0.28849 z m -0.4309,-11.41093 c 0.19099,-0.0764 0.41919,-0.067 0.50711,0.0209 0.0879,0.0879 -0.0683,0.15045 -0.34726,0.13896 -0.30823,-0.0127 -0.37092,-0.0754 -0.15985,-0.15985 z"
         id="path21" /><path
         style="fill:url(#linearGradient16);fill-opacity:1"
         d="m 74.056846,178.57855 c 0.190997,-0.0764 0.4192,-0.067 0.507119,0.0209 0.08792,0.0879 -0.06835,0.15045 -0.347266,0.13896 -0.308225,-0.0127 -0.370919,-0.0754 -0.159853,-0.15985 z"
         id="path20" /><path
         style="fill:url(#linearGradient17);fill-opacity:1"
         d="m 73.52768,178.04938 c 0.190996,-0.0764 0.419199,-0.067 0.507118,0.0209 0.08792,0.0879 -0.06835,0.15045 -0.347266,0.13896 -0.308224,-0.0127 -0.370919,-0.0754 -0.159852,-0.15985 z"
         id="path19" /><path
         style="fill:url(#linearGradient18);fill-opacity:1"
         d="m 90.31722,178.57593 c 0.257431,-0.0671 0.614618,-0.0627 0.79375,0.01 0.179131,0.0725 -0.03149,0.12736 -0.468056,0.12197 -0.436563,-0.005 -0.583125,-0.0647 -0.325694,-0.13178 z m 0.391839,-0.52104 c 0.181901,-0.0734 0.479558,-0.0734 0.661459,0 0.181901,0.0734 0.03307,0.13346 -0.330729,0.13346 -0.363802,0 -0.512631,-0.0601 -0.33073,-0.13346 z m 27.053641,-9.97883 c 0,-0.0549 0.20836,-0.2633 0.46303,-0.46302 0.41964,-0.32911 0.429,-0.31975 0.0999,0.0999 -0.34564,0.44073 -0.56292,0.58089 -0.56292,0.36313 z m -42.597911,-0.26458 c 0,-0.0549 0.20836,-0.2633 0.463021,-0.46302 0.419644,-0.32911 0.429002,-0.31975 0.0999,0.0999 -0.345644,0.44073 -0.562916,0.58089 -0.562916,0.36313 z m 38.893751,-4.49792 c 0,-0.0549 0.20836,-0.2633 0.46302,-0.46302 0.41964,-0.32911 0.429,-0.31975 0.0999,0.0999 -0.34564,0.44072 -0.56291,0.58088 -0.56291,0.36312 z m -3.96875,-0.26458 c 0,-0.0549 0.20836,-0.2633 0.46302,-0.46302 0.41964,-0.32911 0.429,-0.31975 0.0999,0.0999 -0.34564,0.44073 -0.56291,0.58089 -0.56291,0.36313 z m -16.647863,-0.58361 c 0.01269,-0.30823 0.07539,-0.37092 0.159852,-0.15986 0.07643,0.191 0.06703,0.4192 -0.02089,0.50712 -0.08792,0.0879 -0.150453,-0.0684 -0.138964,-0.34726 z"
         id="path18" /><path
         style="fill:url(#linearGradient19);fill-opacity:1"
         d="m 92.494997,164.20721 c 0.263389,-0.29105 0.53842,-0.52917 0.611181,-0.52917 0.07276,0 -0.08321,0.23812 -0.346598,0.52917 -0.263389,0.29104 -0.53842,0.52916 -0.611181,0.52916 -0.07276,0 0.08321,-0.23812 0.346598,-0.52916 z"
         id="path17" /></g></g></svg>
