<?xml version="1.0" encoding="UTF-8" standalone="no"?>
<!-- Created with Inkscape (http://www.inkscape.org/) -->

<svg
   width="280.62939mm"
   height="176.11046mm"
   viewBox="0 0 280.6294 176.11046"
   version="1.1"
   id="svg1"
   xml:space="preserve"
   xmlns="http://www.w3.org/2000/svg"
   xmlns:svg="http://www.w3.org/2000/svg"><defs
     id="defs1"><clipPath
       clipPathUnits="userSpaceOnUse"
       id="clipPath2"><rect
         style="opacity:0.6;fill:#ffd42a;stroke-width:0.264583"
         id="rect3"
         width="82.712578"
         height="81.829536"
         x="58.281467"
         y="63.579781" /></clipPath><clipPath
       clipPathUnits="userSpaceOnUse"
       id="clipPath3"><rect
         style="opacity:0.6;fill:#ffd42a;stroke-width:0.264583"
         id="rect4"
         width="82.712578"
         height="81.829536"
         x="58.281467"
         y="63.579781" /></clipPath><clipPath
       clipPathUnits="userSpaceOnUse"
       id="clipPath4"><rect
         style="opacity:0.6;fill:#ffd42a;stroke-width:0.264583"
         id="rect5"
         width="82.712578"
         height="81.829536"
         x="58.281467"
         y="63.579781" /></clipPath><clipPath
       clipPathUnits="userSpaceOnUse"
       id="clipPath5"><rect
         style="opacity:0.6;fill:#ffd42a;stroke-width:0.264583"
         id="rect6"
         width="82.712578"
         height="81.829536"
         x="58.281467"
         y="63.579781" /></clipPath><clipPath
       clipPathUnits="userSpaceOnUse"
       id="clipPath6"><rect
         style="opacity:0.6;fill:#ffd42a;stroke-width:0.264583"
         id="rect7"
         width="82.712578"
         height="81.829536"
         x="58.281467"
         y="63.579781" /></clipPath><clipPath
       clipPathUnits="userSpaceOnUse"
       id="clipPath7"><rect
         style="opacity:0.6;fill:#ffd42a;stroke-width:0.264583"
         id="rect8"
         width="82.712578"
         height="81.829536"
         x="58.281467"
         y="63.579781" /></clipPath><clipPath
       clipPathUnits="userSpaceOnUse"
       id="clipPath8"><rect
         style="opacity:0.6;fill:#ffd42a;stroke-width:0.264583"
         id="rect9"
         width="82.712578"
         height="81.829536"
         x="58.281467"
         y="63.579781" /></clipPath><clipPath
       clipPathUnits="userSpaceOnUse"
       id="clipPath9"><rect
         style="opacity:0.6;fill:#ffd42a;stroke-width:0.264583"
         id="rect10"
         width="82.712578"
         height="81.829536"
         x="58.281467"
         y="63.579781" /></clipPath><clipPath
       clipPathUnits="userSpaceOnUse"
       id="clipPath10"><rect
         style="opacity:0.6;fill:#ffd42a;stroke-width:0.264583"
         id="rect11"
         width="82.712578"
         height="81.829536"
         x="58.281467"
         y="63.579781" /></clipPath><clipPath
       clipPathUnits="userSpaceOnUse"
       id="clipPath11"><rect
         style="opacity:0.6;fill:#ffd42a;stroke-width:0.264583"
         id="rect12"
         width="82.712578"
         height="81.829536"
         x="58.281467"
         y="63.579781" /></clipPath><clipPath
       clipPathUnits="userSpaceOnUse"
       id="clipPath12"><rect
         style="opacity:0.6;fill:#ffd42a;stroke-width:0.264583"
         id="rect13"
         width="82.712578"
         height="81.829536"
         x="58.281467"
         y="63.579781" /></clipPath><clipPath
       clipPathUnits="userSpaceOnUse"
       id="clipPath13"><rect
         style="opacity:0.6;fill:#ffd42a;stroke-width:0.264583"
         id="rect14"
         width="82.712578"
         height="81.829536"
         x="58.281467"
         y="63.579781" /></clipPath><clipPath
       clipPathUnits="userSpaceOnUse"
       id="clipPath14"><rect
         style="opacity:0.6;fill:#ffd42a;stroke-width:0.264583"
         id="rect15"
         width="82.712578"
         height="81.829536"
         x="58.281467"
         y="63.579781" /></clipPath><clipPath
       clipPathUnits="userSpaceOnUse"
       id="clipPath15"><rect
         style="opacity:0.6;fill:#ffd42a;stroke-width:0.264583"
         id="rect16"
         width="82.712578"
         height="81.829536"
         x="58.281467"
         y="63.579781" /></clipPath><clipPath
       clipPathUnits="userSpaceOnUse"
       id="clipPath16"><rect
         style="opacity:0.6;fill:#ffd42a;stroke-width:0.264583"
         id="rect17"
         width="82.712578"
         height="81.829536"
         x="58.281467"
         y="63.579781" /></clipPath><clipPath
       clipPathUnits="userSpaceOnUse"
       id="clipPath17"><rect
         style="opacity:0.6;fill:#ffd42a;stroke-width:0.264583"
         id="rect18"
         width="82.712578"
         height="81.829536"
         x="58.281467"
         y="63.579781" /></clipPath><clipPath
       clipPathUnits="userSpaceOnUse"
       id="clipPath18"><rect
         style="opacity:0.6;fill:#ffd42a;stroke-width:0.264583"
         id="rect19"
         width="82.712578"
         height="81.829536"
         x="58.281467"
         y="63.579781" /></clipPath><clipPath
       clipPathUnits="userSpaceOnUse"
       id="clipPath19"><rect
         style="opacity:0.6;fill:#ffd42a;stroke-width:0.264583"
         id="rect20"
         width="82.712578"
         height="81.829536"
         x="58.281467"
         y="63.579781" /></clipPath><clipPath
       clipPathUnits="userSpaceOnUse"
       id="clipPath20"><rect
         style="opacity:0.6;fill:#ffd42a;stroke-width:0.264583"
         id="rect21"
         width="82.712578"
         height="81.829536"
         x="58.281467"
         y="63.579781" /></clipPath><clipPath
       clipPathUnits="userSpaceOnUse"
       id="clipPath21"><rect
         style="opacity:0.6;fill:#ffd42a;stroke-width:0.264583"
         id="rect22"
         width="82.712578"
         height="81.829536"
         x="58.281467"
         y="63.579781" /></clipPath><clipPath
       clipPathUnits="userSpaceOnUse"
       id="clipPath22"><rect
         style="opacity:0.6;fill:#ffd42a;stroke-width:0.264583"
         id="rect23"
         width="82.712578"
         height="81.829536"
         x="58.281467"
         y="63.579781" /></clipPath><clipPath
       clipPathUnits="userSpaceOnUse"
       id="clipPath23"><rect
         style="opacity:0.6;fill:#ffd42a;stroke-width:0.264583"
         id="rect24"
         width="82.712578"
         height="81.829536"
         x="58.281467"
         y="63.579781" /></clipPath><clipPath
       clipPathUnits="userSpaceOnUse"
       id="clipPath24"><rect
         style="opacity:0.6;fill:#ffd42a;stroke-width:0.264583"
         id="rect25"
         width="82.712578"
         height="81.829536"
         x="58.281467"
         y="63.579781" /></clipPath><clipPath
       clipPathUnits="userSpaceOnUse"
       id="clipPath25"><rect
         style="opacity:0.6;fill:#ffd42a;stroke-width:0.264583"
         id="rect26"
         width="82.712578"
         height="81.829536"
         x="58.281467"
         y="63.579781" /></clipPath><clipPath
       clipPathUnits="userSpaceOnUse"
       id="clipPath26"><rect
         style="opacity:0.6;fill:#ffd42a;stroke-width:0.264583"
         id="rect27"
         width="82.712578"
         height="81.829536"
         x="58.281467"
         y="63.579781" /></clipPath><clipPath
       clipPathUnits="userSpaceOnUse"
       id="clipPath27"><rect
         style="opacity:0.6;fill:#ffd42a;stroke-width:0.264583"
         id="rect28"
         width="82.712578"
         height="81.829536"
         x="58.281467"
         y="63.579781" /></clipPath><clipPath
       clipPathUnits="userSpaceOnUse"
       id="clipPath28"><rect
         style="opacity:0.6;fill:#ffd42a;stroke-width:0.264583"
         id="rect29"
         width="82.712578"
         height="81.829536"
         x="58.281467"
         y="63.579781" /></clipPath><clipPath
       clipPathUnits="userSpaceOnUse"
       id="clipPath29"><rect
         style="opacity:0.6;fill:#ffd42a;stroke-width:0.264583"
         id="rect30"
         width="82.712578"
         height="81.829536"
         x="58.281467"
         y="63.579781" /></clipPath><clipPath
       clipPathUnits="userSpaceOnUse"
       id="clipPath30"><rect
         style="opacity:0.6;fill:#ffd42a;stroke-width:0.264583"
         id="rect31"
         width="82.712578"
         height="81.829536"
         x="58.281467"
         y="63.579781" /></clipPath><clipPath
       clipPathUnits="userSpaceOnUse"
       id="clipPath31"><rect
         style="opacity:0.6;fill:#ffd42a;stroke-width:0.264583"
         id="rect32"
         width="82.712578"
         height="81.829536"
         x="58.281467"
         y="63.579781" /></clipPath><clipPath
       clipPathUnits="userSpaceOnUse"
       id="clipPath32"><rect
         style="opacity:0.6;fill:#ffd42a;stroke-width:0.264583"
         id="rect33"
         width="82.712578"
         height="81.829536"
         x="58.281467"
         y="63.579781" /></clipPath><clipPath
       clipPathUnits="userSpaceOnUse"
       id="clipPath33"><rect
         style="opacity:0.6;fill:#ffd42a;stroke-width:0.264583"
         id="rect34"
         width="82.712578"
         height="81.829536"
         x="58.281467"
         y="63.579781" /></clipPath><clipPath
       clipPathUnits="userSpaceOnUse"
       id="clipPath34"><rect
         style="opacity:0.6;fill:#ffd42a;stroke-width:0.264583"
         id="rect35"
         width="82.712578"
         height="81.829536"
         x="58.281467"
         y="63.579781" /></clipPath><clipPath
       clipPathUnits="userSpaceOnUse"
       id="clipPath35"><rect
         style="opacity:0.6;fill:#ffd42a;stroke-width:0.264583"
         id="rect36"
         width="82.712578"
         height="81.829536"
         x="58.281467"
         y="63.579781" /></clipPath><clipPath
       clipPathUnits="userSpaceOnUse"
       id="clipPath36"><rect
         style="opacity:0.6;fill:#ffd42a;stroke-width:0.264583"
         id="rect37"
         width="82.712578"
         height="81.829536"
         x="58.281467"
         y="63.579781" /></clipPath><clipPath
       clipPathUnits="userSpaceOnUse"
       id="clipPath37"><rect
         style="opacity:0.6;fill:#ffd42a;stroke-width:0.264583"
         id="rect38"
         width="82.712578"
         height="81.829536"
         x="58.281467"
         y="63.579781" /></clipPath><clipPath
       clipPathUnits="userSpaceOnUse"
       id="clipPath38"><rect
         style="opacity:0.6;fill:#ffd42a;stroke-width:0.264583"
         id="rect39"
         width="82.712578"
         height="81.829536"
         x="58.281467"
         y="63.579781" /></clipPath><clipPath
       clipPathUnits="userSpaceOnUse"
       id="clipPath39"><rect
         style="opacity:0.6;fill:#ffd42a;stroke-width:0.264583"
         id="rect40"
         width="82.712578"
         height="81.829536"
         x="58.281467"
         y="63.579781" /></clipPath><clipPath
       clipPathUnits="userSpaceOnUse"
       id="clipPath40"><rect
         style="opacity:0.6;fill:#ffd42a;stroke-width:0.264583"
         id="rect41"
         width="82.712578"
         height="81.829536"
         x="58.281467"
         y="63.579781" /></clipPath><clipPath
       clipPathUnits="userSpaceOnUse"
       id="clipPath41"><rect
         style="opacity:0.6;fill:#ffd42a;stroke-width:0.264583"
         id="rect42"
         width="82.712578"
         height="81.829536"
         x="58.281467"
         y="63.579781" /></clipPath><clipPath
       clipPathUnits="userSpaceOnUse"
       id="clipPath42"><rect
         style="opacity:0.6;fill:#ffd42a;stroke-width:0.264583"
         id="rect43"
         width="82.712578"
         height="81.829536"
         x="58.281467"
         y="63.579781" /></clipPath><clipPath
       clipPathUnits="userSpaceOnUse"
       id="clipPath43"><rect
         style="opacity:0.6;fill:#ffd42a;stroke-width:0.264583"
         id="rect44"
         width="82.712578"
         height="81.829536"
         x="58.281467"
         y="63.579781" /></clipPath><clipPath
       clipPathUnits="userSpaceOnUse"
       id="clipPath44"><rect
         style="opacity:0.6;fill:#ffd42a;stroke-width:0.264583"
         id="rect45"
         width="82.712578"
         height="81.829536"
         x="58.281467"
         y="63.579781" /></clipPath><clipPath
       clipPathUnits="userSpaceOnUse"
       id="clipPath45"><rect
         style="opacity:0.6;fill:#ffd42a;stroke-width:0.264583"
         id="rect46"
         width="82.712578"
         height="81.829536"
         x="58.281467"
         y="63.579781" /></clipPath><clipPath
       clipPathUnits="userSpaceOnUse"
       id="clipPath46"><rect
         style="opacity:0.6;fill:#ffd42a;stroke-width:0.264583"
         id="rect47"
         width="82.712578"
         height="81.829536"
         x="58.281467"
         y="63.579781" /></clipPath><clipPath
       clipPathUnits="userSpaceOnUse"
       id="clipPath47"><rect
         style="opacity:0.6;fill:#ffd42a;stroke-width:0.264583"
         id="rect48"
         width="82.712578"
         height="81.829536"
         x="58.281467"
         y="63.579781" /></clipPath><clipPath
       clipPathUnits="userSpaceOnUse"
       id="clipPath48"><rect
         style="opacity:0.6;fill:#ffd42a;stroke-width:0.264583"
         id="rect49"
         width="82.712578"
         height="81.829536"
         x="58.281467"
         y="63.579781" /></clipPath><clipPath
       clipPathUnits="userSpaceOnUse"
       id="clipPath49"><rect
         style="opacity:0.6;fill:#ffd42a;stroke-width:0.264583"
         id="rect50"
         width="82.712578"
         height="81.829536"
         x="58.281467"
         y="63.579781" /></clipPath><clipPath
       clipPathUnits="userSpaceOnUse"
       id="clipPath50"><rect
         style="opacity:0.6;fill:#ffd42a;stroke-width:0.264583"
         id="rect51"
         width="82.712578"
         height="81.829536"
         x="58.281467"
         y="63.579781" /></clipPath><clipPath
       clipPathUnits="userSpaceOnUse"
       id="clipPath51"><rect
         style="opacity:0.6;fill:#ffd42a;stroke-width:0.264583"
         id="rect52"
         width="82.712578"
         height="81.829536"
         x="58.281467"
         y="63.579781" /></clipPath><clipPath
       clipPathUnits="userSpaceOnUse"
       id="clipPath52"><rect
         style="opacity:0.6;fill:#ffd42a;stroke-width:0.264583"
         id="rect53"
         width="82.712578"
         height="81.829536"
         x="58.281467"
         y="63.579781" /></clipPath><clipPath
       clipPathUnits="userSpaceOnUse"
       id="clipPath53"><rect
         style="opacity:0.6;fill:#ffd42a;stroke-width:0.264583"
         id="rect54"
         width="82.712578"
         height="81.829536"
         x="58.281467"
         y="63.579781" /></clipPath><clipPath
       clipPathUnits="userSpaceOnUse"
       id="clipPath54"><rect
         style="opacity:0.6;fill:#ffd42a;stroke-width:0.264583"
         id="rect55"
         width="82.712578"
         height="81.829536"
         x="58.281467"
         y="63.579781" /></clipPath><clipPath
       clipPathUnits="userSpaceOnUse"
       id="clipPath55"><rect
         style="opacity:0.6;fill:#ffd42a;stroke-width:0.264583"
         id="rect56"
         width="82.712578"
         height="81.829536"
         x="58.281467"
         y="63.579781" /></clipPath><clipPath
       clipPathUnits="userSpaceOnUse"
       id="clipPath56"><rect
         style="opacity:0.6;fill:#ffd42a;stroke-width:0.264583"
         id="rect57"
         width="82.712578"
         height="81.829536"
         x="58.281467"
         y="63.579781" /></clipPath><clipPath
       clipPathUnits="userSpaceOnUse"
       id="clipPath57"><rect
         style="opacity:0.6;fill:#ffd42a;stroke-width:0.264583"
         id="rect58"
         width="82.712578"
         height="81.829536"
         x="58.281467"
         y="63.579781" /></clipPath><clipPath
       clipPathUnits="userSpaceOnUse"
       id="clipPath58"><rect
         style="opacity:0.6;fill:#ffd42a;stroke-width:0.264583"
         id="rect59"
         width="82.712578"
         height="81.829536"
         x="58.281467"
         y="63.579781" /></clipPath></defs><g
     id="layer1"
     transform="translate(-10.64394,-3.5217546)"><g
       id="g1"
       style="display:inline"
       transform="translate(-10.302279,4.4152626)"><g
         id="g59"
         transform="matrix(4.4258765,0,0,4.4488672,-281.37056,-379.47466)"><path
           d="m 98.782567,91.591669 c 0,0 2.113753,-6.679935 8.128263,-6.062662 0,0 6.64766,0.721783 3.23956,9.717616 0,0 -2.41088,6.366137 -6.98685,9.550407 -1.65894,1.15464 -2.90063,1.04642 -2.19261,0.0786 0.51118,-0.69903 6.88261,-11.024664 2.77019,-11.363595 -1.79334,-0.147638 -4.004466,2.102114 -4.864891,1.69545 -1.348052,-0.637381 -0.09366,-3.615796 -0.09366,-3.615796"
           fill="#ffcc00"
           id="path5"
           style="stroke-width:0.264583"
           clip-path="url(#clipPath58)" /><path
           d="m 99.454402,89.33702 c -2.725473,4.882356 -0.726546,7.118614 0.882648,6.269302 2.17355,-1.147233 3.22342,-2.034117 4.24868,-1.499129 1.4007,0.730779 -1.82616,7.210957 -3.48589,9.956807 -0.50271,0.83158 -0.77443,1.17475 -0.77443,1.17475 -0.999066,1.24857 -5.646473,-3.70073 -7.638256,-7.076024 -1.992048,-3.375289 -4.636029,-10.402358 0.653256,-12.632531 1.21338,-0.51144 4.850342,-1.175808 6.586273,1.960298 0.282837,0.511704 -0.03916,1.070769 -0.472281,1.846527"
           fill="#00998a"
           id="path6"
           style="stroke-width:0.264583"
           clip-path="url(#clipPath57)" /><path
           d="m 70.513003,117.27299 -2.195777,-7.2054 -0.01058,-0.0429 c 0,-0.0706 0.03889,-0.10636 0.11721,-0.10636 h 1.343025 c 0.07805,0 0.127794,0.0357 0.149225,0.10636 l 1.417637,5.20171 c 0.0071,0.0214 0.01773,0.032 0.03202,0.032 0.01429,0 0.02487,-0.0106 0.03202,-0.032 l 1.396206,-5.20171 c 0.02143,-0.0706 0.07091,-0.10636 0.149225,-0.10636 h 1.311275 c 0.0426,0 0.07461,0.0143 0.09578,0.0426 0.02143,0.0286 0.02487,0.0638 0.01058,0.10662 l -2.227527,7.2054 c -0.02143,0.0712 -0.06773,0.10663 -0.138641,0.10663 h -1.343025 c -0.07117,0 -0.117211,-0.0355 -0.138642,-0.10663"
           id="path7"
           style="stroke-width:0.264583"
           clip-path="url(#clipPath56)" /><path
           d="m 75.368213,117.3423 c -0.02487,-0.0249 -0.03731,-0.055 -0.03731,-0.0905 v -7.20566 c 0,-0.0354 0.01243,-0.0656 0.03731,-0.0905 0.02487,-0.0249 0.05503,-0.0373 0.09049,-0.0373 h 1.247246 c 0.03545,0 0.06562,0.0124 0.09049,0.0373 0.02487,0.0249 0.03731,0.055 0.03731,0.0905 v 7.20566 c 0,0.0355 -0.01243,0.0656 -0.03731,0.0905 -0.02487,0.0249 -0.05503,0.0373 -0.09049,0.0373 h -1.247246 c -0.03545,0 -0.06562,-0.0124 -0.09049,-0.0373"
           id="path8"
           style="stroke-width:0.264583"
           clip-path="url(#clipPath55)" /><path
           d="m 79.327861,117.13982 c -0.419365,-0.21669 -0.742685,-0.52044 -0.969962,-0.91122 -0.227542,-0.39079 -0.341048,-0.84217 -0.341048,-1.35388 v -2.46221 c 0,-0.5117 0.113506,-0.96282 0.341048,-1.35361 0.227277,-0.39079 0.550597,-0.69294 0.969962,-0.9062 0.4191,-0.21299 0.905933,-0.31988 1.460235,-0.31988 0.547159,0 1.0287,0.10134 1.444361,0.30401 0.41566,0.2024 0.738981,0.49027 0.969962,0.86333 0.230717,0.37307 0.34634,0.80487 0.34634,1.29514 0,0.0638 -0.0426,0.10292 -0.127794,0.11721 l -1.246981,0.0746 h -0.02143 c -0.07117,0 -0.106627,-0.0389 -0.106627,-0.11721 0,-0.37676 -0.115623,-0.67865 -0.34634,-0.90593 -0.230981,-0.22754 -0.534988,-0.34105 -0.91149,-0.34105 -0.383645,0 -0.691091,0.11351 -0.922073,0.34105 -0.230981,0.22728 -0.346339,0.52917 -0.346339,0.90593 v 2.56884 c 0,0.36962 0.115358,0.66807 0.346339,0.89535 0.230982,0.22754 0.538428,0.34105 0.922073,0.34105 0.376502,0 0.680509,-0.11351 0.91149,-0.34105 0.230717,-0.22728 0.34634,-0.52573 0.34634,-0.89535 0,-0.0781 0.0426,-0.11721 0.128058,-0.11721 l 1.246981,0.0532 c 0.03545,0 0.06562,0.0106 0.09049,0.032 0.02487,0.0214 0.03731,0.0463 0.03731,0.0746 0,0.49027 -0.115623,0.92392 -0.34634,1.30043 -0.230981,0.37676 -0.554302,0.6678 -0.969962,0.87418 -0.415661,0.20585 -0.897202,0.30877 -1.444361,0.30877 -0.554302,0 -1.041135,-0.10822 -1.460235,-0.32491"
           id="path9"
           style="stroke-width:0.264583"
           clip-path="url(#clipPath54)" /><path
           d="m 88.281361,115.83407 c 0.241565,-0.24871 0.362479,-0.57917 0.362479,-0.99139 v -2.34501 c 0,-0.41195 -0.119062,-0.74427 -0.357187,-0.99668 -0.238125,-0.25188 -0.556154,-0.37809 -0.953823,-0.37809 -0.391054,0 -0.705379,0.12621 -0.943504,0.37809 -0.238125,0.25241 -0.357188,0.58473 -0.357188,0.99668 v 2.34501 c 0,0.41222 0.119063,0.74268 0.357188,0.99139 0.238125,0.24871 0.55245,0.37306 0.943504,0.37306 0.390525,0 0.706966,-0.12435 0.948531,-0.37306 m -2.414323,1.32186 c -0.422804,-0.22754 -0.751417,-0.54531 -0.985837,-0.95409 -0.234686,-0.40852 -0.351896,-0.87947 -0.351896,-1.41234 v -2.28124 c 0,-0.52573 0.11721,-0.99113 0.351896,-1.39621 0.23442,-0.40508 0.563033,-0.7194 0.985837,-0.94324 0.42254,-0.22384 0.91149,-0.33602 1.465792,-0.33602 0.561181,0 1.053306,0.11218 1.47611,0.33602 0.422804,0.22384 0.751417,0.53816 0.986102,0.94324 0.234421,0.40508 0.351631,0.87048 0.351631,1.39621 v 2.28124 c 0,0.53287 -0.11721,1.00568 -0.351631,1.41763 -0.234685,0.41222 -0.563298,0.73025 -0.986102,0.95409 -0.422804,0.22384 -0.914929,0.33576 -1.47611,0.33576 -0.554302,0 -1.043252,-0.11404 -1.465792,-0.34105"
           id="path10"
           style="stroke-width:0.264583"
           clip-path="url(#clipPath53)" /><path
           d="m 95.651991,109.95562 c 0.02461,-0.0249 0.05477,-0.0373 0.09049,-0.0373 h 1.247246 c 0.03545,0 0.06562,0.0124 0.09049,0.0373 0.02487,0.0249 0.03731,0.055 0.03731,0.0905 v 7.20566 c 0,0.0357 -0.01243,0.0656 -0.03731,0.0905 -0.02487,0.0251 -0.05503,0.0373 -0.09049,0.0373 h -1.204648 c -0.07091,0 -0.12065,-0.0283 -0.149225,-0.0852 l -2.760662,-4.56195 c -0.01429,-0.0214 -0.02831,-0.0302 -0.0426,-0.0267 -0.01429,0.003 -0.02117,0.0196 -0.02117,0.0479 l 0.02117,4.49818 c 0,0.0357 -0.01243,0.0656 -0.03731,0.0905 -0.02487,0.0251 -0.05503,0.0373 -0.09049,0.0373 h -1.247241 c -0.03572,0 -0.06588,-0.0122 -0.09049,-0.0373 -0.02487,-0.0249 -0.03731,-0.0548 -0.03731,-0.0905 v -7.20566 c 0,-0.0355 0.01243,-0.0656 0.03731,-0.0905 0.02461,-0.0249 0.05477,-0.0373 0.09049,-0.0373 h 1.204648 c 0.07091,0 0.12065,0.0286 0.149225,0.0852 l 2.75008,4.54078 c 0.01402,0.0214 0.02805,0.0302 0.04233,0.0267 0.01429,-0.003 0.02143,-0.0196 0.02143,-0.0479 l -0.01058,-4.47701 c 0,-0.0355 0.01243,-0.0656 0.03731,-0.0905"
           id="path11"
           style="stroke-width:0.264583"
           clip-path="url(#clipPath52)" /><path
           d="m 98.487134,117.3423 c -0.02487,-0.0249 -0.03731,-0.055 -0.03731,-0.0905 v -7.20566 c 0,-0.0354 0.01243,-0.0656 0.03731,-0.0905 0.02461,-0.0249 0.05477,-0.0373 0.09049,-0.0373 h 1.247246 c 0.03545,0 0.06562,0.0124 0.09049,0.0373 0.02487,0.0249 0.03731,0.055 0.03731,0.0905 v 7.20566 c 0,0.0355 -0.01243,0.0656 -0.03731,0.0905 -0.02487,0.0249 -0.05503,0.0373 -0.09049,0.0373 h -1.247249 c -0.03572,0 -0.06588,-0.0124 -0.09049,-0.0373"
           id="path12"
           style="stroke-width:0.264583"
           clip-path="url(#clipPath51)" /><path
           d="m 103.06506,115.02397 h 1.8759 c 0.0429,0 0.0569,-0.0214 0.0429,-0.064 l -0.95938,-3.16574 c -0.007,-0.0283 -0.0177,-0.0407 -0.032,-0.0373 -0.0143,0.004 -0.0249,0.0159 -0.032,0.0373 l -0.93795,3.16574 c -0.007,0.0426 0.007,0.064 0.0426,0.064 m 2.62202,2.24896 -0.31962,-1.04458 c -0.0143,-0.0283 -0.032,-0.0426 -0.0532,-0.0426 h -2.62228 c -0.0214,0 -0.0392,0.0143 -0.0532,0.0426 l -0.3093,1.04458 c -0.0212,0.0712 -0.0675,0.10663 -0.13864,0.10663 h -1.35361 c -0.0426,0 -0.0746,-0.0122 -0.0958,-0.0373 -0.0214,-0.0249 -0.0251,-0.0622 -0.0109,-0.11192 l 2.30241,-7.2054 c 0.0214,-0.0709 0.0675,-0.10662 0.13864,-0.10662 h 1.67349 c 0.0709,0 0.11721,0.0357 0.13864,0.10662 l 2.30214,7.2054 c 0.007,0.0145 0.0106,0.032 0.0106,0.0535 0,0.0638 -0.0389,0.0958 -0.11694,0.0958 h -1.35388 c -0.0709,0 -0.11721,-0.0355 -0.13864,-0.10663"
           id="path13"
           style="stroke-width:0.264583"
           clip-path="url(#clipPath50)" /><path
           d="m 109.20048,116.95355 c -0.48472,-0.36221 -0.81042,-0.84693 -0.97684,-1.45441 -0.12753,-0.47017 -0.19103,-1.08215 -0.19103,-1.83621 0,-0.7247 0.0635,-1.33165 0.19103,-1.82166 0.15637,-0.59716 0.47969,-1.07712 0.96943,-1.4396 0.48948,-0.36221 1.08188,-0.54372 1.77747,-0.54372 0.69533,0 1.29514,0.17648 1.7997,0.52891 0.50429,0.35269 0.82497,0.79348 0.96229,1.32212 0.0389,0.13732 0.0683,0.27437 0.0878,0.41143 v 0.0294 c 0,0.0688 -0.0439,0.11271 -0.13203,0.13229 l -0.47016,0.0587 h -0.0294 c -0.0685,0 -0.11271,-0.0439 -0.13203,-0.13229 l -0.0442,-0.20558 c -0.0881,-0.41143 -0.3183,-0.75644 -0.6903,-1.03558 -0.37253,-0.2794 -0.82286,-0.41883 -1.35176,-0.41883 -0.53869,0 -0.98663,0.14208 -1.34408,0.42598 -0.35745,0.28416 -0.58526,0.66119 -0.68315,1.13109 -0.0881,0.37227 -0.1323,0.89641 -0.1323,1.57189 0,0.6858 0.0442,1.20465 0.1323,1.55734 0.0979,0.47995 0.3257,0.86201 0.68315,1.14591 0.35745,0.28416 0.80539,0.42598 1.34408,0.42598 0.5289,0 0.98187,-0.1397 1.3589,-0.41857 0.37703,-0.27914 0.60458,-0.62918 0.68316,-1.0504 l 0.0148,-0.0735 c 0.0193,-0.10769 0.0781,-0.15161 0.17622,-0.1323 l 0.45534,0.0736 c 0.0979,0.0198 0.14182,0.0733 0.1323,0.16139 l -0.0587,0.26459 c -0.13732,0.54874 -0.458,0.99668 -0.96229,1.34434 -0.50456,0.34767 -1.10437,0.52123 -1.7997,0.52123 -0.69559,0 -1.28534,-0.18097 -1.77006,-0.54345"
           id="path14"
           style="stroke-width:0.264583"
           clip-path="url(#clipPath49)" /><path
           d="m 118.77845,116.36597 c 0.45561,-0.30348 0.68315,-0.72469 0.68315,-1.26339 v -1.33667 c 0,-0.0392 -0.0198,-0.059 -0.0587,-0.059 h -1.68937 c -0.69559,0 -1.25624,0.14711 -1.68195,0.44079 -0.42625,0.29369 -0.63924,0.70036 -0.63924,1.2192 0,0.48022 0.16643,0.8427 0.49954,1.08744 0.33284,0.24474 0.75882,0.36724 1.27793,0.36724 0.61701,0 1.15332,-0.15213 1.60867,-0.45561 m 0.78581,-5.83935 c 0.45059,0.44555 0.67601,1.04536 0.67601,1.79943 v 4.90669 c 0,0.0979 -0.0492,0.14685 -0.14711,0.14685 h -0.48471 c -0.0982,0 -0.14685,-0.049 -0.14685,-0.14685 v -0.69056 c 0,-0.0193 -0.007,-0.0341 -0.022,-0.0439 -0.0148,-0.01 -0.032,-0.005 -0.0516,0.0145 -0.25479,0.32332 -0.58526,0.56833 -0.99166,0.73449 -0.4064,0.16668 -0.85936,0.24976 -1.35863,0.24976 -0.67575,0 -1.24884,-0.17118 -1.719,-0.51408 -0.4699,-0.34264 -0.70512,-0.86678 -0.70512,-1.57189 0,-0.72469 0.26935,-1.29752 0.80804,-1.71873 0.53843,-0.42096 1.2782,-0.63183 2.21827,-0.63183 h 1.76292 c 0.0389,0 0.0587,-0.0193 0.0587,-0.0585 v -0.6612 c 0,-0.54848 -0.15425,-0.98425 -0.46275,-1.30757 -0.30851,-0.32305 -0.78105,-0.48471 -1.41764,-0.48471 -0.49927,0 -0.91096,0.10292 -1.23402,0.3085 -0.32332,0.20585 -0.52414,0.47995 -0.60219,0.82285 -0.0296,0.0979 -0.0884,0.14182 -0.17647,0.13203 l -0.51409,-0.0735 c -0.10795,-0.0193 -0.15187,-0.0585 -0.13229,-0.11748 0.0884,-0.5289 0.37491,-0.95488 0.85963,-1.27793 0.48472,-0.32333 1.08929,-0.48499 1.81425,-0.48499 0.86148,0 1.51765,0.22305 1.96823,0.66861"
           id="path15"
           style="stroke-width:0.264583"
           clip-path="url(#clipPath48)" /><path
           d="m 125.58748,110.09319 c 0.0783,0.0294 0.10769,0.0931 0.0881,0.19103 l -0.1323,0.4699 c -0.0294,0.0982 -0.0931,0.12753 -0.19076,0.0881 -0.19606,-0.0781 -0.44106,-0.11245 -0.73475,-0.10266 -0.54848,0.01 -1.00145,0.21801 -1.3589,0.62441 -0.35745,0.4064 -0.53604,0.90329 -0.53604,1.49093 v 4.3778 c 0,0.0979 -0.0492,0.14684 -0.14711,0.14684 H 122.091 c -0.0979,0 -0.14684,-0.0489 -0.14684,-0.14684 v -7.11015 c 0,-0.0979 0.0489,-0.14711 0.14684,-0.14711 h 0.48472 c 0.0979,0 0.14711,0.0492 0.14711,0.14711 v 0.9988 c 0,0.0296 0.007,0.0466 0.022,0.0516 0.0145,0.005 0.027,-0.007 0.0368,-0.0368 0.20559,-0.38206 0.47229,-0.68051 0.80063,-0.89615 0.32809,-0.21537 0.71253,-0.32305 1.15332,-0.32305 0.33285,0 0.61701,0.0585 0.85196,0.17621"
           id="path16"
           style="stroke-width:0.264583"
           clip-path="url(#clipPath47)" /><path
           d="m 126.71844,113.22223 c 0,0.0392 0.0196,0.0587 0.0587,0.0587 h 4.09866 c 0.0392,0 0.0587,-0.0196 0.0587,-0.0587 0,-0.48948 -0.0246,-0.85672 -0.0736,-1.10172 -0.10768,-0.47017 -0.3429,-0.84958 -0.70511,-1.13851 -0.36248,-0.28892 -0.80778,-0.43338 -1.33668,-0.43338 -0.5289,0 -0.9697,0.13943 -1.32212,0.41857 -0.35269,0.27913 -0.57812,0.64902 -0.67575,1.10913 -0.0492,0.186 -0.0833,0.56806 -0.10292,1.14591 m 3.41551,3.26866 c 0.32808,-0.21061 0.58525,-0.50165 0.77126,-0.87418 0.0489,-0.0881 0.11244,-0.11245 0.19103,-0.0733 l 0.38179,0.19076 c 0.0884,0.0492 0.11271,0.11272 0.0735,0.19103 -0.21537,0.47996 -0.55589,0.86202 -1.02076,1.14591 -0.4654,0.28417 -1.0115,0.42598 -1.6383,0.42598 -0.68553,0 -1.26841,-0.16642 -1.7481,-0.49953 -0.47995,-0.33285 -0.80804,-0.78819 -0.98425,-1.36604 -0.0783,-0.24474 -0.13229,-0.51912 -0.16166,-0.82286 -0.0294,-0.30348 -0.0439,-0.68527 -0.0439,-1.14564 0,-0.47969 0.007,-0.84217 0.022,-1.08718 0.0148,-0.24447 0.0463,-0.47016 0.0955,-0.67574 0.15664,-0.61701 0.47731,-1.11152 0.96229,-1.48379 0.48472,-0.372 1.07977,-0.55827 1.78488,-0.55827 0.80301,0 1.44463,0.20823 1.92432,0.62442 0.47995,0.41645 0.77866,0.99166 0.89614,1.72614 0.0294,0.186 0.049,0.40402 0.059,0.65379 0.01,0.24976 0.0146,0.56065 0.0146,0.93265 0,0.0982 -0.0492,0.14711 -0.14684,0.14711 h -4.78922 c -0.0392,0 -0.0587,0.0196 -0.0587,0.0587 0,0.6268 0.0243,1.04299 0.0735,1.24857 0.10742,0.47995 0.35005,0.85936 0.72708,1.1385 0.37703,0.27913 0.85434,0.41883 1.43219,0.41883 0.46037,0 0.8546,-0.1053 1.18269,-0.31591"
           id="path17"
           style="stroke-width:0.264583"
           clip-path="url(#clipPath46)" /><path
           d="m 85.523741,121.85998 c 0.114829,-0.11324 0.172244,-0.26273 0.172244,-0.449 0,-0.18917 -0.05742,-0.34105 -0.172244,-0.45587 -0.114829,-0.11457 -0.263525,-0.17198 -0.446617,-0.17198 h -0.883973 c -0.01217,0 -0.01852,0.006 -0.01852,0.0185 v 1.20941 c 0,0.0124 0.0063,0.0188 0.01852,0.0188 h 0.883973 c 0.183092,0 0.331788,-0.0566 0.446617,-0.16986 m 0.248973,-1.11416 c 0.165894,0.16748 0.248708,0.38761 0.248708,0.66066 0,0.26961 -0.0844,0.48684 -0.253471,0.65114 -0.169068,0.16457 -0.391583,0.2466 -0.667543,0.2466 h -0.907257 c -0.01217,0 -0.01852,0.006 -0.01852,0.0185 v 1.38641 c 0,0.031 -0.01561,0.0466 -0.04657,0.0466 h -0.237067 c -0.03096,0 -0.04657,-0.0156 -0.04657,-0.0466 v -3.16812 c 0,-0.031 0.01561,-0.0463 0.04657,-0.0463 h 1.223434 c 0.272785,0 0.492389,0.0836 0.658283,0.25109"
           id="path18"
           style="stroke-width:0.264583"
           clip-path="url(#clipPath45)" /><path
           d="m 88.175316,123.70913 v -3.16336 c 0,-0.031 0.01535,-0.0466 0.04657,-0.0466 h 0.237331 c 0.03096,0 0.0463,0.0156 0.0463,0.0466 v 3.16336 c 0,0.031 -0.01535,0.0466 -0.0463,0.0466 h -0.237331 c -0.03122,0 -0.04657,-0.0156 -0.04657,-0.0466 m -1.074737,-2.80749 c -0.06191,0.0759 -0.09287,0.20558 -0.09287,0.3884 v 0.0931 c 0,0.0124 0.0061,0.0185 0.01852,0.0185 h 0.520964 c 0.03096,0 0.04657,0.0156 0.04657,0.0466 v 0.20928 c 0,0.0312 -0.01561,0.0466 -0.04657,0.0466 h -0.520962 c -0.01244,0 -0.01852,0.006 -0.01852,0.0185 v 1.98649 c 0,0.031 -0.01561,0.0466 -0.04657,0.0466 h -0.232569 c -0.03096,0 -0.04657,-0.0156 -0.04657,-0.0466 v -1.98649 c 0,-0.0122 -0.0063,-0.0185 -0.01852,-0.0185 h -0.311679 c -0.03096,0 -0.04657,-0.0153 -0.04657,-0.0466 v -0.20928 c 0,-0.031 0.01561,-0.0466 0.04657,-0.0466 h 0.311679 c 0.01217,0 0.01852,-0.006 0.01852,-0.0185 v -0.11166 c 0,-0.19235 0.0217,-0.34343 0.06509,-0.45349 0.04339,-0.11007 0.118798,-0.19077 0.22569,-0.2421 0.106891,-0.0511 0.256646,-0.0767 0.448998,-0.0767 h 0.134937 c 0.03096,0 0.0463,0.0156 0.0463,0.0466 v 0.19553 c 0,0.031 -0.01535,0.0463 -0.0463,0.0463 h -0.107156 c -0.170392,0 -0.286808,0.0381 -0.348985,0.11404"
           id="path19"
           style="stroke-width:0.264583"
           clip-path="url(#clipPath44)" /><path
           d="m 89.689553,121.77158 c -0.100806,0.0791 -0.166687,0.18547 -0.197644,0.31856 -0.01878,0.0653 -0.03096,0.17065 -0.03731,0.31644 0,0.0124 0.0063,0.0185 0.01852,0.0185 h 1.204912 c 0.01244,0 0.01879,-0.006 0.01879,-0.0185 -0.0064,-0.1397 -0.01561,-0.23892 -0.02805,-0.29766 -0.03413,-0.1397 -0.103188,-0.25056 -0.206904,-0.33258 -0.103982,-0.0823 -0.23495,-0.12329 -0.393171,-0.12329 -0.152136,0 -0.278342,0.0394 -0.379148,0.11853 m 1.332706,0.73739 v 0.1487 c 0,0.0312 -0.01535,0.0466 -0.04657,0.0466 h -1.502569 c -0.01217,0 -0.01852,0.006 -0.01852,0.0188 0.0063,0.17066 0.01561,0.28046 0.02805,0.3302 0.03387,0.13944 0.106892,0.24977 0.218546,0.3302 0.111654,0.0807 0.254264,0.12092 0.428095,0.12092 0.130175,0 0.24474,-0.0294 0.344223,-0.0884 0.09922,-0.0587 0.176742,-0.14262 0.232569,-0.25109 0.01852,-0.028 0.04022,-0.0341 0.06509,-0.0185 l 0.181504,0.1069 c 0.02487,0.0156 0.03096,0.0373 0.01852,0.0651 -0.07752,0.14896 -0.19394,0.26617 -0.348986,0.35137 -0.155046,0.0852 -0.333375,0.12779 -0.534987,0.12779 -0.220134,-0.003 -0.404548,-0.0558 -0.553509,-0.15822 -0.14896,-0.10239 -0.255852,-0.245 -0.320939,-0.42783 -0.05583,-0.14896 -0.08387,-0.36301 -0.08387,-0.64214 0,-0.13018 0.0024,-0.23654 0.0071,-0.31856 0.0045,-0.0823 0.01614,-0.15584 0.03493,-0.22093 0.05265,-0.20161 0.15875,-0.363 0.318558,-0.48392 0.159544,-0.12091 0.35269,-0.18124 0.579173,-0.18124 0.282046,0 0.499269,0.0712 0.651139,0.21378 0.152136,0.14261 0.246592,0.34423 0.283898,0.60484 0.01244,0.087 0.01852,0.19526 0.01852,0.3257"
           id="path20"
           style="stroke-width:0.264583"
           clip-path="url(#clipPath43)" /><path
           d="m 93.078389,122.87175 c 0.0032,-0.0683 0.0048,-0.16748 0.0048,-0.29766 0,-0.15822 -0.0016,-0.26431 -0.0048,-0.31882 -0.0032,-0.0542 -0.01085,-0.10451 -0.02328,-0.15108 -0.02487,-0.13017 -0.08599,-0.23812 -0.183621,-0.32332 -0.0979,-0.0852 -0.221192,-0.12806 -0.369888,-0.12806 -0.145785,0 -0.269081,0.0421 -0.369887,0.12568 -0.100806,0.0839 -0.17145,0.19235 -0.211667,0.3257 -0.03096,0.0995 -0.04657,0.25427 -0.04657,0.46514 0,0.22648 0.01561,0.38312 0.04657,0.4699 0.03096,0.13018 0.09843,0.23813 0.202406,0.32332 0.103982,0.0852 0.230188,0.1278 0.379148,0.1278 0.151871,0 0.276755,-0.0418 0.374386,-0.12542 0.09763,-0.0839 0.159014,-0.19076 0.183885,-0.32094 0.0093,-0.0466 0.01535,-0.10398 0.01852,-0.17224 m 0.05107,-1.47002 h 0.237331 c 0.03096,0 0.04657,0.0156 0.04657,0.0466 v 2.22832 c 0,0.34714 -0.100012,0.60166 -0.300037,0.7628 -0.200025,0.16139 -0.475456,0.24209 -0.825765,0.24209 -0.07144,0 -0.125677,-0.002 -0.162718,-0.005 -0.03096,-0.003 -0.04657,-0.0201 -0.04657,-0.0511 l 0.0093,-0.21405 c 0,-0.0156 0.0048,-0.0272 0.01402,-0.0349 0.0093,-0.008 0.02011,-0.0103 0.03254,-0.007 l 0.125677,0.005 c 0.288396,0 0.497681,-0.0566 0.627856,-0.16986 0.130175,-0.11325 0.195527,-0.29237 0.195527,-0.53711 v -0.17224 c 0,-0.006 -0.0024,-0.0101 -0.0071,-0.0116 -0.0045,-0.001 -0.01005,7.9e-4 -0.01614,0.007 -0.14261,0.18626 -0.34581,0.27913 -0.6096,0.27913 -0.201612,0 -0.380735,-0.0542 -0.537104,-0.16272 -0.156633,-0.10848 -0.261408,-0.26194 -0.31406,-0.46064 -0.03731,-0.127 -0.05583,-0.31617 -0.05583,-0.56753 0,-0.13626 0.004,-0.25109 0.01164,-0.34422 0.0077,-0.0929 0.02408,-0.17674 0.04868,-0.25109 0.05583,-0.18627 0.156633,-0.33576 0.302418,-0.449 0.145786,-0.11298 0.32094,-0.16986 0.525727,-0.16986 0.275961,0 0.485511,0.0915 0.628121,0.27464 0.0061,0.006 0.01164,0.008 0.01614,0.004 0.0048,-0.003 0.0071,-0.008 0.0071,-0.0138 v -0.18151 c 0,-0.031 0.01535,-0.0466 0.0463,-0.0466"
           id="path21"
           style="stroke-width:0.264583"
           clip-path="url(#clipPath42)" /><path
           d="m 94.564659,121.77158 c -0.100806,0.0791 -0.166687,0.18547 -0.197644,0.31856 -0.01879,0.0653 -0.03096,0.17065 -0.03731,0.31644 0,0.0124 0.0063,0.0185 0.01852,0.0185 h 1.204912 c 0.01244,0 0.01879,-0.006 0.01879,-0.0185 -0.0063,-0.1397 -0.01561,-0.23892 -0.02805,-0.29766 -0.03413,-0.1397 -0.103188,-0.25056 -0.206904,-0.33258 -0.103982,-0.0823 -0.23495,-0.12329 -0.393171,-0.12329 -0.152136,0 -0.278342,0.0394 -0.379148,0.11853 m 1.332706,0.73739 v 0.1487 c 0,0.0312 -0.01535,0.0466 -0.04657,0.0466 h -1.502569 c -0.01217,0 -0.01852,0.006 -0.01852,0.0188 0.0063,0.17066 0.01561,0.28046 0.02805,0.3302 0.03387,0.13944 0.106892,0.24977 0.218546,0.3302 0.111654,0.0807 0.254264,0.12092 0.427831,0.12092 0.130439,0 0.245004,-0.0294 0.344487,-0.0884 0.09922,-0.0587 0.176742,-0.14262 0.232569,-0.25109 0.01852,-0.028 0.04022,-0.0341 0.06509,-0.0185 l 0.181504,0.1069 c 0.02461,0.0156 0.03096,0.0373 0.01852,0.0651 -0.07752,0.14896 -0.19394,0.26617 -0.348986,0.35137 -0.155046,0.0852 -0.333375,0.12779 -0.534987,0.12779 -0.220134,-0.003 -0.404548,-0.0558 -0.553509,-0.15822 -0.14896,-0.10239 -0.255852,-0.245 -0.320939,-0.42783 -0.05583,-0.14896 -0.08387,-0.36301 -0.08387,-0.64214 0,-0.13018 0.0024,-0.23654 0.0071,-0.31856 0.0045,-0.0823 0.01614,-0.15584 0.03492,-0.22093 0.05265,-0.20161 0.15875,-0.363 0.318558,-0.48392 0.159544,-0.12091 0.35269,-0.18124 0.579173,-0.18124 0.282046,0 0.499269,0.0712 0.651139,0.21378 0.152136,0.14261 0.246592,0.34423 0.283898,0.60484 0.01244,0.087 0.01852,0.19526 0.01852,0.3257"
           id="path22"
           style="stroke-width:0.264583"
           clip-path="url(#clipPath41)" /><path
           d="m 97.935107,123.7184 -0.763058,-2.26563 -0.0048,-0.0185 c 0,-0.0217 0.01402,-0.0325 0.04207,-0.0325 h 0.264848 c 0.02805,0 0.04683,0.0124 0.05609,0.0373 l 0.581554,1.82351 c 0.0032,0.006 0.0077,0.009 0.01376,0.009 0.0063,0 0.01111,-0.003 0.01429,-0.009 l 0.58129,-1.82351 c 0.0095,-0.0249 0.02778,-0.0373 0.05583,-0.0373 l 0.265113,0.005 c 0.03413,0 0.04657,0.0169 0.03731,0.0511 l -0.763058,2.26086 c -0.0093,0.0249 -0.02778,0.0373 -0.05556,0.0373 h -0.269875 c -0.02805,0 -0.04683,-0.0124 -0.05583,-0.0373"
           id="path23"
           style="stroke-width:0.264583"
           clip-path="url(#clipPath40)" /><path
           d="m 99.965572,121.77158 c -0.100806,0.0791 -0.166687,0.18547 -0.197644,0.31856 -0.01879,0.0653 -0.03096,0.17065 -0.03731,0.31644 0,0.0124 0.0063,0.0185 0.01852,0.0185 h 1.204912 c 0.0124,0 0.0188,-0.006 0.0188,-0.0185 -0.006,-0.1397 -0.0156,-0.23892 -0.028,-0.29766 -0.0341,-0.1397 -0.10318,-0.25056 -0.2069,-0.33258 -0.10398,-0.0823 -0.23495,-0.12329 -0.39317,-0.12329 -0.15213,0 -0.27834,0.0394 -0.379143,0.11853 m 1.332703,0.73739 v 0.1487 c 0,0.0312 -0.0153,0.0466 -0.0463,0.0466 h -1.502832 c -0.01217,0 -0.01852,0.006 -0.01852,0.0188 0.0063,0.17066 0.01561,0.28046 0.02805,0.3302 0.03413,0.13944 0.106892,0.24977 0.218546,0.3302 0.111656,0.0807 0.254266,0.12092 0.428096,0.12092 0.13017,0 0.24474,-0.0294 0.34422,-0.0884 0.0992,-0.0587 0.17674,-0.14262 0.23257,-0.25109 0.0185,-0.028 0.0402,-0.0341 0.0651,-0.0185 l 0.1815,0.1069 c 0.0249,0.0156 0.031,0.0373 0.0185,0.0651 -0.0775,0.14896 -0.19394,0.26617 -0.34898,0.35137 -0.15505,0.0852 -0.33338,0.12779 -0.53499,0.12779 -0.22013,-0.003 -0.404547,-0.0558 -0.553508,-0.15822 -0.14896,-0.10239 -0.255852,-0.245 -0.320939,-0.42783 -0.05583,-0.14896 -0.08387,-0.36301 -0.08387,-0.64214 0,-0.13018 0.0024,-0.23654 0.0071,-0.31856 0.0048,-0.0823 0.01614,-0.15584 0.03493,-0.22093 0.05265,-0.20161 0.159014,-0.363 0.318558,-0.48392 0.159808,-0.12091 0.352689,-0.18124 0.579169,-0.18124 0.28204,0 0.49927,0.0712 0.65114,0.21378 0.15213,0.14261 0.24685,0.34423 0.2839,0.60484 0.0124,0.087 0.0185,0.19526 0.0185,0.3257"
           id="path24"
           style="stroke-width:0.264583"
           clip-path="url(#clipPath39)" /><path
           d="m 103.12194,121.43897 c 0.0246,0.0124 0.0341,0.0325 0.0278,0.0606 l -0.0511,0.22781 c -0.009,0.031 -0.0294,0.0405 -0.0603,0.028 -0.0529,-0.0217 -0.1135,-0.0325 -0.1815,-0.0325 l -0.0606,0.004 c -0.1614,0.006 -0.29448,0.0659 -0.40005,0.17912 -0.10531,0.11324 -0.15822,0.25664 -0.15822,0.43021 v 1.37239 c 0,0.031 -0.0153,0.0466 -0.0463,0.0466 h -0.23734 c -0.0312,0 -0.0466,-0.0156 -0.0466,-0.0466 v -2.26086 c 0,-0.031 0.0153,-0.0466 0.0466,-0.0466 h 0.23734 c 0.031,0 0.0463,0.0156 0.0463,0.0466 v 0.2839 c 0,0.009 0.002,0.0145 0.007,0.0161 0.004,0.002 0.008,-8e-4 0.0116,-0.007 0.0651,-0.11483 0.14817,-0.204 0.24871,-0.2675 0.10081,-0.0635 0.21775,-0.0955 0.35137,-0.0955 0.10239,0 0.19076,0.0204 0.26511,0.0606"
           id="path25"
           style="stroke-width:0.264583"
           clip-path="url(#clipPath38)" /><path
           d="m 105.07113,122.92065 c 0.0124,-0.082 0.0185,-0.19606 0.0185,-0.34184 0,-0.15214 -0.008,-0.27067 -0.0254,-0.35587 -0.0172,-0.0852 -0.0442,-0.16219 -0.0815,-0.23045 -0.0402,-0.10213 -0.1053,-0.18441 -0.19526,-0.24659 -0.0902,-0.0619 -0.19712,-0.0929 -0.32094,-0.0929 -0.11801,0 -0.21961,0.0318 -0.3048,0.0952 -0.0855,0.0635 -0.14658,0.14817 -0.18389,0.25347 -0.031,0.0653 -0.0534,0.1397 -0.0672,0.22331 -0.0143,0.0839 -0.0209,0.20161 -0.0209,0.35375 0,0.14869 0.007,0.26432 0.0209,0.3466 0.0138,0.082 0.0349,0.15584 0.0627,0.22093 0.0402,0.10848 0.10213,0.19526 0.18601,0.26035 0.0836,0.0651 0.18759,0.0979 0.31168,0.0979 0.13017,0 0.24262,-0.0328 0.33734,-0.0979 0.0945,-0.0651 0.16034,-0.15346 0.19764,-0.26511 0.031,-0.0651 0.0526,-0.13891 0.0651,-0.22093 m 0.34899,-0.34184 c 0,0.25426 -0.0217,0.45111 -0.0651,0.59081 -0.059,0.19235 -0.1614,0.34423 -0.30692,0.45588 -0.14605,0.11165 -0.32755,0.16748 -0.54451,0.16748 -0.12409,0 -0.23733,-0.0249 -0.33973,-0.0746 -0.10213,-0.0495 -0.18732,-0.12092 -0.25585,-0.21378 -0.003,-0.006 -0.008,-0.009 -0.0138,-0.007 -0.006,0.002 -0.009,0.006 -0.009,0.0116 v 0.20003 c 0,0.031 -0.0156,0.0466 -0.0466,0.0466 h -0.23733 c -0.0312,0 -0.0466,-0.0156 -0.0466,-0.0466 v -3.16336 c 0,-0.031 0.0153,-0.0466 0.0466,-0.0466 h 0.23733 c 0.031,0 0.0466,0.0156 0.0466,0.0466 v 1.09802 c 0,0.006 0.002,0.0101 0.007,0.0116 0.004,0.002 0.0101,-7.9e-4 0.0161,-0.007 0.0685,-0.0897 0.15372,-0.15981 0.25585,-0.20929 0.1024,-0.0495 0.21564,-0.0743 0.33973,-0.0743 0.22013,0 0.40481,0.0564 0.55377,0.16959 0.1487,0.11325 0.25109,0.26908 0.30692,0.46752 0.037,0.1397 0.0558,0.33205 0.0558,0.57706"
           id="path26"
           style="stroke-width:0.264583"
           clip-path="url(#clipPath37)" /><path
           d="m 106.09459,123.70447 v -2.26086 c 0,-0.031 0.0156,-0.0466 0.0466,-0.0466 h 0.23733 c 0.0309,0 0.0463,0.0156 0.0463,0.0466 v 2.26086 c 0,0.031 -0.0153,0.0466 -0.0463,0.0466 h -0.23733 c -0.031,0 -0.0466,-0.0156 -0.0466,-0.0466 m -0.009,-2.80511 c -0.0497,-0.0495 -0.0744,-0.11166 -0.0744,-0.186 0,-0.0775 0.0246,-0.1405 0.0744,-0.18865 0.0495,-0.0479 0.11165,-0.072 0.186,-0.072 0.0743,0 0.13653,0.0241 0.186,0.072 0.0497,0.0482 0.0746,0.11112 0.0746,0.18865 0,0.0743 -0.0249,0.13652 -0.0746,0.186 -0.0495,0.0497 -0.11165,0.0743 -0.186,0.0743 -0.0743,0 -0.13652,-0.0246 -0.186,-0.0743"
           id="path27"
           style="stroke-width:0.264583"
           clip-path="url(#clipPath36)" /><path
           d="m 108.75783,121.58784 c 0.14737,0.14579 0.22093,0.34105 0.22093,0.58605 v 1.53538 c 0,0.031 -0.0156,0.0463 -0.0466,0.0463 h -0.23733 c -0.031,0 -0.0466,-0.0153 -0.0466,-0.0463 v -1.47029 c 0,-0.17039 -0.0516,-0.31009 -0.15557,-0.41857 -0.10425,-0.10848 -0.23813,-0.16272 -0.40243,-0.16272 -0.17066,0 -0.30877,0.0526 -0.41408,0.15822 -0.1053,0.1053 -0.15822,0.24342 -0.15822,0.41381 v 1.47955 c 0,0.031 -0.0153,0.0463 -0.0466,0.0463 h -0.23707 c -0.0312,0 -0.0466,-0.0153 -0.0466,-0.0463 v -2.26087 c 0,-0.0312 0.0153,-0.0466 0.0466,-0.0466 h 0.23707 c 0.0312,0 0.0466,0.0153 0.0466,0.0466 v 0.20003 c 0,0.006 0.002,0.0108 0.007,0.0138 0.004,0.003 0.008,0.002 0.0114,-0.004 0.13679,-0.19235 0.34608,-0.2884 0.62812,-0.2884 0.24818,0 0.44583,0.0728 0.5932,0.21855"
           id="path28"
           style="stroke-width:0.264583"
           clip-path="url(#clipPath35)" /><path
           d="m 111.05357,122.92757 c 0.0124,-0.0836 0.0185,-0.20002 0.0185,-0.34899 0,-0.14869 -0.006,-0.2659 -0.0185,-0.3511 -0.0124,-0.0855 -0.0341,-0.1606 -0.0651,-0.22569 -0.0373,-0.1053 -0.0987,-0.1897 -0.18388,-0.25347 -0.0852,-0.0635 -0.1868,-0.0955 -0.30454,-0.0955 -0.12409,0 -0.23124,0.0312 -0.3212,0.0931 -0.09,0.0622 -0.15505,0.1442 -0.19526,0.24659 -0.0373,0.0683 -0.0646,0.14499 -0.0815,0.23019 -0.0169,0.0855 -0.0254,0.20399 -0.0254,0.35586 0,0.14579 0.006,0.25983 0.0185,0.34211 0.0124,0.0823 0.0341,0.15584 0.0651,0.22093 0.0373,0.11165 0.10319,0.20002 0.19765,0.26511 0.0947,0.0651 0.20716,0.0976 0.33734,0.0976 0.12409,0 0.22807,-0.0325 0.31168,-0.0976 0.0839,-0.0651 0.14578,-0.15187 0.186,-0.26061 0.0278,-0.0619 0.0482,-0.13494 0.0606,-0.21855 m 0.0696,-2.42835 h 0.23733 c 0.0309,0 0.0466,0.0156 0.0466,0.0466 v 3.16336 c 0,0.031 -0.0156,0.0466 -0.0466,0.0466 h -0.23733 c -0.031,0 -0.0466,-0.0156 -0.0466,-0.0466 v -0.19553 c 0,-0.006 -0.002,-0.0101 -0.007,-0.0116 -0.005,-0.001 -0.0103,10e-4 -0.0164,0.007 -0.0683,0.09 -0.15266,0.15981 -0.25347,0.20929 -0.10107,0.0495 -0.21325,0.0743 -0.33734,0.0743 -0.21723,0 -0.39926,-0.0558 -0.54663,-0.16748 -0.14738,-0.11166 -0.24898,-0.26353 -0.3048,-0.45588 -0.0434,-0.13944 -0.0651,-0.33629 -0.0651,-0.59082 0,-0.25717 0.0188,-0.44952 0.0558,-0.57679 0.0558,-0.19843 0.15822,-0.35427 0.30691,-0.46752 0.14896,-0.11297 0.33364,-0.16986 0.55378,-0.16986 0.12091,0 0.23256,0.0243 0.33496,0.0722 0.10239,0.0482 0.18759,0.11721 0.25585,0.20691 0.006,0.006 0.0116,0.009 0.0164,0.007 0.004,-0.002 0.007,-0.006 0.007,-0.0116 v -1.09326 c 0,-0.031 0.0156,-0.0466 0.0466,-0.0466"
           id="path29"
           style="stroke-width:0.264583"
           clip-path="url(#clipPath34)" /><path
           d="m 112.60019,121.77158 c -0.10081,0.0791 -0.16669,0.18547 -0.19764,0.31856 -0.0188,0.0653 -0.031,0.17065 -0.0373,0.31644 0,0.0124 0.006,0.0185 0.0185,0.0185 h 1.20491 c 0.0124,0 0.0188,-0.006 0.0188,-0.0185 -0.006,-0.1397 -0.0156,-0.23892 -0.028,-0.29766 -0.0341,-0.1397 -0.10318,-0.25056 -0.2069,-0.33258 -0.10398,-0.0823 -0.23495,-0.12329 -0.39317,-0.12329 -0.15214,0 -0.27834,0.0394 -0.37915,0.11853 m 1.33271,0.73739 v 0.1487 c 0,0.0312 -0.0153,0.0466 -0.0466,0.0466 h -1.50257 c -0.0122,0 -0.0185,0.006 -0.0185,0.0188 0.006,0.17066 0.0156,0.28046 0.028,0.3302 0.0341,0.13944 0.10689,0.24977 0.21854,0.3302 0.11166,0.0807 0.25427,0.12092 0.42783,0.12092 0.13044,0 0.24501,-0.0294 0.34449,-0.0884 0.0992,-0.0587 0.17674,-0.14262 0.23257,-0.25109 0.0185,-0.028 0.0402,-0.0341 0.0651,-0.0185 l 0.1815,0.1069 c 0.0246,0.0156 0.031,0.0373 0.0185,0.0651 -0.0775,0.14896 -0.19394,0.26617 -0.34898,0.35137 -0.15505,0.0852 -0.33338,0.12779 -0.53499,0.12779 -0.22013,-0.003 -0.40455,-0.0558 -0.55351,-0.15822 -0.14896,-0.10239 -0.25585,-0.245 -0.32094,-0.42783 -0.0558,-0.14896 -0.0839,-0.36301 -0.0839,-0.64214 0,-0.13018 0.002,-0.23654 0.007,-0.31856 0.005,-0.0823 0.0161,-0.15584 0.0349,-0.22093 0.0526,-0.20161 0.15901,-0.363 0.31856,-0.48392 0.1598,-0.12091 0.35268,-0.18124 0.57917,-0.18124 0.28204,0 0.49927,0.0712 0.65114,0.21378 0.15213,0.14261 0.24685,0.34423 0.2839,0.60484 0.0124,0.087 0.0185,0.19526 0.0185,0.3257"
           id="path30"
           style="stroke-width:0.264583"
           clip-path="url(#clipPath33)" /><path
           d="m 115.51942,121.67624 h -0.52573 c -0.0124,0 -0.0185,0.006 -0.0185,0.0185 v 1.37239 c 0,0.14896 0.0333,0.25348 0.10001,0.31406 0.0667,0.0603 0.17145,0.0908 0.31407,0.0908 h 0.11615 c 0.031,0 0.0466,0.0156 0.0466,0.0466 v 0.1905 c 0,0.0312 -0.0156,0.0466 -0.0466,0.0466 -0.037,0.003 -0.0945,0.005 -0.17225,0.005 -0.22304,0 -0.39237,-0.0418 -0.50694,-0.12567 -0.11483,-0.0836 -0.17198,-0.23892 -0.17198,-0.46514 v -1.47479 c 0,-0.0122 -0.006,-0.0185 -0.0188,-0.0185 h -0.28364 c -0.0312,0 -0.0466,-0.0154 -0.0466,-0.0466 v -0.1815 c 0,-0.031 0.0153,-0.0463 0.0466,-0.0463 h 0.28364 c 0.0124,0 0.0188,-0.006 0.0188,-0.0188 v -0.53948 c 0,-0.031 0.0153,-0.0466 0.0466,-0.0466 h 0.22781 c 0.031,0 0.0466,0.0156 0.0466,0.0466 v 0.53948 c 0,0.0127 0.006,0.0188 0.0185,0.0188 h 0.52573 c 0.031,0 0.0466,0.0153 0.0466,0.0463 v 0.1815 c 0,0.0312 -0.0156,0.0466 -0.0466,0.0466"
           id="path31"
           style="stroke-width:0.264583"
           clip-path="url(#clipPath32)" /><path
           d="m 116.23813,123.6719 c -0.0482,-0.0495 -0.0722,-0.11165 -0.0722,-0.186 0,-0.0775 0.0241,-0.1405 0.0722,-0.18839 0.0481,-0.0482 0.11086,-0.0722 0.18838,-0.0722 0.0743,0 0.13653,0.0241 0.18601,0.0722 0.0497,0.0479 0.0746,0.11087 0.0746,0.18839 0,0.0743 -0.0249,0.13652 -0.0746,0.186 -0.0495,0.0497 -0.11166,0.0744 -0.18601,0.0744 -0.0775,0 -0.14023,-0.0246 -0.18838,-0.0744"
           id="path32"
           style="stroke-width:0.264583"
           clip-path="url(#clipPath31)" /><path
           d="M 58.759762,221.35382 H 141.25976 V 146.35371 H 58.759762 Z"
           id="path33"
           style="stroke-width:0.264583"
           clip-path="url(#clipPath30)" /><path
           d="m 98.782567,166.59169 c 0,0 2.113753,-6.67994 8.128263,-6.06266 0,0 6.64766,0.72178 3.23956,9.71761 0,0 -2.41088,6.36614 -6.98685,9.5504 -1.65894,1.15465 -2.90063,1.04643 -2.19261,0.0786 0.51118,-0.69903 6.88261,-11.02493 2.77019,-11.36359 -1.79334,-0.14764 -4.004466,2.10211 -4.864891,1.69545 -1.348052,-0.63739 -0.09366,-3.6158 -0.09366,-3.6158"
           fill="#ffcc00"
           id="path34"
           style="stroke-width:0.264583"
           clip-path="url(#clipPath29)" /><path
           d="m 98.8657,164.63138 c -2.725473,4.88236 -0.726546,7.11861 0.88265,6.2693 2.17355,-1.14723 3.22342,-2.03411 4.24868,-1.49913 1.4007,0.73078 -1.82616,7.21096 -3.48589,9.9568 -0.50271,0.83159 -0.774432,1.17475 -0.774432,1.17475 -0.999066,1.24857 -5.646473,-3.70072 -7.638256,-7.07601 -1.992048,-3.37529 -4.636029,-10.40236 0.653256,-12.63253 1.21338,-0.51144 4.850342,-1.17581 6.586273,1.96029 0.28284,0.51171 -0.03916,1.07077 -0.472281,1.84653"
           fill="#00998a"
           id="path35"
           style="stroke-width:0.264583"
           clip-path="url(#clipPath28)" /><path
           d="m 70.513003,192.27298 -2.195777,-7.2054 -0.01058,-0.0429 c 0,-0.0706 0.03889,-0.10636 0.11721,-0.10636 h 1.343025 c 0.07805,0 0.127794,0.0357 0.149225,0.10636 l 1.417637,5.20171 c 0.0071,0.0214 0.01773,0.032 0.03202,0.032 0.01429,0 0.02487,-0.0106 0.03202,-0.032 l 1.396206,-5.20171 c 0.02143,-0.0706 0.07091,-0.10636 0.149225,-0.10636 h 1.311275 c 0.0426,0 0.07461,0.0143 0.09578,0.0426 0.02143,0.0286 0.02487,0.0638 0.01058,0.10662 l -2.227527,7.2054 c -0.02143,0.0712 -0.06773,0.10663 -0.138641,0.10663 h -1.343025 c -0.07117,0 -0.117211,-0.0355 -0.138642,-0.10663"
           fill="#ffffff"
           id="path36"
           style="stroke-width:0.264583"
           clip-path="url(#clipPath27)" /><path
           d="m 75.368213,192.34233 c -0.02487,-0.0249 -0.03731,-0.055 -0.03731,-0.0905 v -7.20566 c 0,-0.0354 0.01243,-0.0656 0.03731,-0.0905 0.02487,-0.0249 0.05503,-0.0373 0.09049,-0.0373 h 1.247246 c 0.03545,0 0.06562,0.0124 0.09049,0.0373 0.02487,0.0249 0.03731,0.055 0.03731,0.0905 v 7.20566 c 0,0.0355 -0.01243,0.0656 -0.03731,0.0905 -0.02487,0.0249 -0.05503,0.0373 -0.09049,0.0373 h -1.247246 c -0.03545,0 -0.06562,-0.0124 -0.09049,-0.0373"
           fill="#ffffff"
           id="path37"
           style="stroke-width:0.264583"
           clip-path="url(#clipPath26)" /><path
           d="m 79.327861,192.13979 c -0.419365,-0.21669 -0.742685,-0.52044 -0.969962,-0.91122 -0.227542,-0.39079 -0.341048,-0.84217 -0.341048,-1.35388 v -2.46221 c 0,-0.5117 0.113506,-0.96282 0.341048,-1.35361 0.227277,-0.39079 0.550597,-0.69294 0.969962,-0.9062 0.4191,-0.21299 0.905933,-0.31988 1.460235,-0.31988 0.547159,0 1.0287,0.10134 1.444361,0.30401 0.41566,0.2024 0.738981,0.49027 0.969962,0.86333 0.230717,0.37307 0.34634,0.80487 0.34634,1.29514 0,0.0638 -0.0426,0.10319 -0.127794,0.11721 l -1.246981,0.0746 h -0.02143 c -0.07117,0 -0.106627,-0.0389 -0.106627,-0.11721 0,-0.37676 -0.115623,-0.67865 -0.34634,-0.90593 -0.230981,-0.22754 -0.534988,-0.34105 -0.91149,-0.34105 -0.383645,0 -0.691091,0.11351 -0.922073,0.34105 -0.230981,0.22728 -0.346339,0.52917 -0.346339,0.90593 v 2.56884 c 0,0.36962 0.115358,0.66807 0.346339,0.89535 0.230982,0.22754 0.538428,0.34105 0.922073,0.34105 0.376502,0 0.680509,-0.11351 0.91149,-0.34105 0.230717,-0.22728 0.34634,-0.52573 0.34634,-0.89535 0,-0.078 0.0426,-0.11721 0.128058,-0.11721 l 1.246981,0.0532 c 0.03545,0 0.06562,0.0109 0.09049,0.032 0.02487,0.0214 0.03731,0.0463 0.03731,0.0746 0,0.49027 -0.115623,0.92392 -0.34634,1.30043 -0.230981,0.37676 -0.554302,0.6678 -0.969962,0.87418 -0.415661,0.20585 -0.897202,0.30877 -1.444361,0.30877 -0.554302,0 -1.041135,-0.10822 -1.460235,-0.32491"
           fill="#ffffff"
           id="path38"
           style="stroke-width:0.264583"
           clip-path="url(#clipPath25)" /><path
           d="m 88.281361,190.83407 c 0.241565,-0.24871 0.362479,-0.57917 0.362479,-0.99139 v -2.34501 c 0,-0.41195 -0.119062,-0.74427 -0.357187,-0.99642 -0.238125,-0.25214 -0.556154,-0.37835 -0.953823,-0.37835 -0.391054,0 -0.705379,0.12621 -0.943504,0.37835 -0.238125,0.25215 -0.357188,0.58447 -0.357188,0.99642 v 2.34501 c 0,0.41222 0.119063,0.74268 0.357188,0.99139 0.238125,0.24871 0.55245,0.37306 0.943504,0.37306 0.390525,0 0.706966,-0.12435 0.948531,-0.37306 m -2.414323,1.32186 c -0.422804,-0.22754 -0.751417,-0.54531 -0.985837,-0.95409 -0.234686,-0.40852 -0.351896,-0.87947 -0.351896,-1.41234 v -2.28098 c 0,-0.52599 0.11721,-0.99139 0.351896,-1.39647 0.23442,-0.40508 0.563033,-0.7194 0.985837,-0.94324 0.42254,-0.22384 0.91149,-0.33602 1.465792,-0.33602 0.561181,0 1.053306,0.11218 1.47611,0.33602 0.422804,0.22384 0.751417,0.53816 0.986102,0.94324 0.234421,0.40508 0.351631,0.87048 0.351631,1.39647 v 2.28098 c 0,0.53287 -0.11721,1.00568 -0.351631,1.41763 -0.234685,0.41222 -0.563298,0.73025 -0.986102,0.95409 -0.422804,0.22384 -0.914929,0.33576 -1.47611,0.33576 -0.554302,0 -1.043252,-0.11404 -1.465792,-0.34105"
           fill="#ffffff"
           id="path39"
           style="stroke-width:0.264583"
           clip-path="url(#clipPath24)" /><path
           d="m 95.651991,184.95563 c 0.02461,-0.0249 0.05477,-0.0373 0.09049,-0.0373 h 1.247246 c 0.03545,0 0.06562,0.0124 0.09049,0.0373 0.02487,0.0249 0.03731,0.055 0.03731,0.0905 v 7.20566 c 0,0.0357 -0.01243,0.0656 -0.03731,0.0905 -0.02487,0.0251 -0.05503,0.0373 -0.09049,0.0373 h -1.204648 c -0.07091,0 -0.12065,-0.0283 -0.149225,-0.0852 l -2.760662,-4.56195 c -0.01429,-0.0214 -0.02831,-0.0302 -0.0426,-0.0267 -0.01429,0.003 -0.02117,0.0196 -0.02117,0.0479 l 0.02117,4.49818 c 0,0.0357 -0.01243,0.0656 -0.03731,0.0905 -0.02487,0.0251 -0.05503,0.0373 -0.09049,0.0373 h -1.247241 c -0.03572,0 -0.06588,-0.0122 -0.09049,-0.0373 -0.02487,-0.0249 -0.03731,-0.0548 -0.03731,-0.0905 v -7.20566 c 0,-0.0355 0.01243,-0.0656 0.03731,-0.0905 0.02461,-0.0249 0.05477,-0.0373 0.09049,-0.0373 h 1.204648 c 0.07091,0 0.12065,0.0286 0.149225,0.0852 l 2.75008,4.54078 c 0.01402,0.0214 0.02805,0.0302 0.04233,0.0267 0.01429,-0.003 0.02143,-0.0196 0.02143,-0.0479 l -0.01058,-4.47701 c 0,-0.0355 0.01243,-0.0656 0.03731,-0.0905"
           fill="#ffffff"
           id="path40"
           style="stroke-width:0.264583"
           clip-path="url(#clipPath23)" /><path
           d="m 98.487134,192.34233 c -0.02487,-0.0249 -0.03731,-0.055 -0.03731,-0.0905 v -7.20566 c 0,-0.0354 0.01243,-0.0656 0.03731,-0.0905 0.02461,-0.0249 0.05477,-0.0373 0.09049,-0.0373 h 1.247246 c 0.03545,0 0.06562,0.0124 0.09049,0.0373 0.02487,0.0249 0.03731,0.055 0.03731,0.0905 v 7.20566 c 0,0.0355 -0.01243,0.0656 -0.03731,0.0905 -0.02487,0.0249 -0.05503,0.0373 -0.09049,0.0373 h -1.247249 c -0.03572,0 -0.06588,-0.0124 -0.09049,-0.0373"
           fill="#ffffff"
           id="path41"
           style="stroke-width:0.264583"
           clip-path="url(#clipPath22)" /><path
           d="m 103.06506,190.02399 h 1.8759 c 0.0429,0 0.0569,-0.0214 0.0429,-0.064 l -0.95938,-3.16574 c -0.007,-0.0283 -0.0177,-0.0407 -0.032,-0.0373 -0.0143,0.004 -0.0249,0.0159 -0.032,0.0373 l -0.93795,3.16574 c -0.007,0.0426 0.007,0.064 0.0426,0.064 m 2.62202,2.24896 -0.31962,-1.04458 c -0.0143,-0.0283 -0.032,-0.0426 -0.0532,-0.0426 h -2.62228 c -0.0214,0 -0.0392,0.0143 -0.0532,0.0426 l -0.3093,1.04458 c -0.0212,0.0712 -0.0675,0.10663 -0.13864,0.10663 h -1.35361 c -0.0426,0 -0.0746,-0.0122 -0.0958,-0.0373 -0.0214,-0.0249 -0.0251,-0.0622 -0.0109,-0.11192 l 2.30241,-7.2054 c 0.0214,-0.0709 0.0675,-0.10662 0.13864,-0.10662 h 1.67349 c 0.0709,0 0.11721,0.0357 0.13864,0.10662 l 2.30214,7.2054 c 0.007,0.0145 0.0106,0.032 0.0106,0.0534 0,0.0638 -0.0389,0.0958 -0.11694,0.0958 h -1.35388 c -0.0709,0 -0.11721,-0.0355 -0.13864,-0.10663"
           fill="#ffffff"
           id="path42"
           style="stroke-width:0.264583"
           clip-path="url(#clipPath21)" /><path
           d="m 109.20048,191.95354 c -0.48472,-0.36221 -0.81042,-0.84693 -0.97684,-1.45441 -0.12753,-0.4699 -0.19103,-1.08215 -0.19103,-1.83621 0,-0.7247 0.0635,-1.33165 0.19103,-1.82166 0.15637,-0.59716 0.47969,-1.07712 0.96943,-1.4396 0.48948,-0.36221 1.08188,-0.54372 1.77747,-0.54372 0.69533,0 1.29514,0.17648 1.7997,0.52891 0.50429,0.35269 0.82497,0.79348 0.96229,1.32212 0.0389,0.13732 0.0683,0.27437 0.0878,0.41143 v 0.0294 c 0,0.0688 -0.0439,0.11271 -0.13203,0.13229 l -0.47016,0.0587 h -0.0294 c -0.0685,0 -0.11271,-0.0439 -0.13203,-0.13229 l -0.0442,-0.20558 c -0.0881,-0.41143 -0.3183,-0.75644 -0.6903,-1.03558 -0.37253,-0.2794 -0.82286,-0.41883 -1.35176,-0.41883 -0.53869,0 -0.98663,0.14208 -1.34408,0.42598 -0.35745,0.28416 -0.58526,0.66119 -0.68315,1.13109 -0.0881,0.37227 -0.1323,0.89641 -0.1323,1.57189 0,0.6858 0.0442,1.20465 0.1323,1.55734 0.0979,0.47995 0.3257,0.86201 0.68315,1.14591 0.35745,0.28416 0.80539,0.42598 1.34408,0.42598 0.5289,0 0.98187,-0.1397 1.3589,-0.41857 0.37703,-0.27914 0.60458,-0.62918 0.68316,-1.0504 l 0.0148,-0.0736 c 0.0193,-0.10769 0.0781,-0.15161 0.17622,-0.1323 l 0.45534,0.0736 c 0.0979,0.0198 0.14182,0.0733 0.1323,0.16166 l -0.0587,0.26432 c -0.13732,0.54874 -0.458,0.99668 -0.96229,1.34434 -0.50456,0.34767 -1.10437,0.52123 -1.7997,0.52123 -0.69559,0 -1.28534,-0.18097 -1.77006,-0.54345"
           fill="#ffffff"
           id="path43"
           style="stroke-width:0.264583"
           clip-path="url(#clipPath20)" /><path
           d="m 118.77845,191.36594 c 0.45561,-0.30348 0.68315,-0.72469 0.68315,-1.26339 v -1.33667 c 0,-0.0392 -0.0198,-0.059 -0.0587,-0.059 h -1.68937 c -0.69559,0 -1.25624,0.14711 -1.68195,0.44079 -0.42625,0.29369 -0.63924,0.70036 -0.63924,1.2192 0,0.48022 0.16643,0.8427 0.49954,1.08744 0.33284,0.24474 0.75882,0.36724 1.27793,0.36724 0.61701,0 1.15332,-0.15213 1.60867,-0.45561 m 0.78581,-5.83935 c 0.45059,0.44555 0.67601,1.04536 0.67601,1.79943 v 4.90669 c 0,0.0979 -0.0492,0.14685 -0.14711,0.14685 h -0.48471 c -0.0982,0 -0.14685,-0.049 -0.14685,-0.14685 v -0.69056 c 0,-0.0193 -0.007,-0.0341 -0.022,-0.0439 -0.0148,-0.01 -0.032,-0.005 -0.0516,0.0146 -0.25479,0.32332 -0.58526,0.56833 -0.99166,0.73449 -0.4064,0.16668 -0.85936,0.24976 -1.35863,0.24976 -0.67575,0 -1.24884,-0.17118 -1.719,-0.51408 -0.4699,-0.34264 -0.70512,-0.86678 -0.70512,-1.57189 0,-0.72469 0.26935,-1.29752 0.80804,-1.71873 0.53843,-0.42096 1.2782,-0.63183 2.21827,-0.63183 h 1.76292 c 0.0389,0 0.0587,-0.0193 0.0587,-0.0585 v -0.6612 c 0,-0.54848 -0.15425,-0.98425 -0.46275,-1.30757 -0.30851,-0.32305 -0.78105,-0.48471 -1.41764,-0.48471 -0.49927,0 -0.91096,0.10292 -1.23402,0.3085 -0.32332,0.20585 -0.52414,0.47995 -0.60219,0.82285 -0.0296,0.0979 -0.0884,0.14182 -0.17647,0.13203 l -0.51409,-0.0736 c -0.10795,-0.0193 -0.15187,-0.0585 -0.13229,-0.11748 0.0884,-0.5289 0.37491,-0.95488 0.85963,-1.27793 0.48472,-0.32333 1.08929,-0.48499 1.81425,-0.48499 0.86148,0 1.51765,0.22305 1.96823,0.66861"
           fill="#ffffff"
           id="path44"
           style="stroke-width:0.264583"
           clip-path="url(#clipPath19)" /><path
           d="m 125.58748,185.0932 c 0.0783,0.0294 0.10769,0.0931 0.0881,0.19103 l -0.1323,0.4699 c -0.0294,0.0982 -0.0931,0.12753 -0.19076,0.0881 -0.19606,-0.0781 -0.44106,-0.11245 -0.73475,-0.10266 -0.54848,0.01 -1.00145,0.21801 -1.3589,0.62441 -0.35745,0.4064 -0.53604,0.90329 -0.53604,1.49093 v 4.3778 c 0,0.0979 -0.0492,0.14684 -0.14711,0.14684 H 122.091 c -0.0979,0 -0.14684,-0.049 -0.14684,-0.14684 v -7.11015 c 0,-0.0979 0.0489,-0.14711 0.14684,-0.14711 h 0.48472 c 0.0979,0 0.14711,0.0492 0.14711,0.14711 v 0.9988 c 0,0.0296 0.007,0.0466 0.022,0.0513 0.0145,0.005 0.027,-0.007 0.0368,-0.0365 0.20559,-0.38206 0.47229,-0.68051 0.80063,-0.89615 0.32809,-0.21537 0.71253,-0.32305 1.15332,-0.32305 0.33285,0 0.61701,0.0585 0.85196,0.17621"
           fill="#ffffff"
           id="path45"
           style="stroke-width:0.264583"
           clip-path="url(#clipPath18)" /><path
           d="m 126.71844,188.22223 c 0,0.0392 0.0196,0.0587 0.0587,0.0587 h 4.09866 c 0.0392,0 0.0587,-0.0196 0.0587,-0.0587 0,-0.48948 -0.0246,-0.85672 -0.0736,-1.10172 -0.10768,-0.47017 -0.3429,-0.84958 -0.70511,-1.13851 -0.36248,-0.28892 -0.80778,-0.43338 -1.33668,-0.43338 -0.5289,0 -0.9697,0.13943 -1.32212,0.41857 -0.35269,0.27913 -0.57812,0.64902 -0.67575,1.10913 -0.0492,0.186 -0.0833,0.56806 -0.10292,1.14591 m 3.41551,3.26866 c 0.32808,-0.21061 0.58525,-0.50165 0.77126,-0.87418 0.0489,-0.0881 0.11244,-0.11245 0.19103,-0.0733 l 0.38179,0.19076 c 0.0884,0.0492 0.11271,0.11272 0.0735,0.19103 -0.21537,0.47996 -0.55589,0.86202 -1.02076,1.14591 -0.4654,0.28417 -1.0115,0.42598 -1.6383,0.42598 -0.68553,0 -1.26841,-0.16642 -1.7481,-0.49953 -0.47995,-0.33285 -0.80804,-0.78819 -0.98425,-1.36604 -0.0783,-0.24474 -0.13229,-0.51912 -0.16166,-0.82286 -0.0294,-0.30348 -0.0439,-0.68527 -0.0439,-1.14564 0,-0.47969 0.007,-0.84217 0.022,-1.08718 0.0148,-0.24447 0.0463,-0.47016 0.0955,-0.67574 0.15664,-0.61701 0.47731,-1.11152 0.96229,-1.48379 0.48472,-0.372 1.07977,-0.55827 1.78488,-0.55827 0.80301,0 1.44463,0.20823 1.92432,0.62442 0.47995,0.41645 0.77866,0.99166 0.89614,1.72614 0.0294,0.186 0.049,0.40402 0.059,0.65379 0.01,0.24976 0.0146,0.56065 0.0146,0.93265 0,0.0982 -0.0492,0.14711 -0.14684,0.14711 h -4.78922 c -0.0392,0 -0.0587,0.0196 -0.0587,0.0587 0,0.6268 0.0243,1.04299 0.0735,1.24857 0.10742,0.47995 0.35005,0.85936 0.72708,1.1385 0.37703,0.27913 0.85434,0.41883 1.43219,0.41883 0.46037,0 0.8546,-0.1053 1.18269,-0.31591"
           fill="#ffffff"
           id="path46"
           style="stroke-width:0.264583"
           clip-path="url(#clipPath17)" /><path
           d="m 85.523741,196.85999 c 0.114829,-0.11324 0.172244,-0.26273 0.172244,-0.449 0,-0.18917 -0.05742,-0.34105 -0.172244,-0.45587 -0.114829,-0.11457 -0.263525,-0.17198 -0.446617,-0.17198 h -0.883973 c -0.01217,0 -0.01852,0.006 -0.01852,0.0185 v 1.20941 c 0,0.0124 0.0063,0.0188 0.01852,0.0188 h 0.883973 c 0.183092,0 0.331788,-0.0566 0.446617,-0.16986 m 0.248973,-1.11416 c 0.165894,0.16748 0.248708,0.38761 0.248708,0.66066 0,0.26961 -0.0844,0.48684 -0.253471,0.65114 -0.169068,0.16457 -0.391583,0.2466 -0.667543,0.2466 h -0.907257 c -0.01217,0 -0.01852,0.006 -0.01852,0.0185 v 1.38641 c 0,0.031 -0.01561,0.0466 -0.04657,0.0466 h -0.237067 c -0.03096,0 -0.04657,-0.0156 -0.04657,-0.0466 v -3.16812 c 0,-0.0309 0.01561,-0.0463 0.04657,-0.0463 h 1.223434 c 0.272785,0 0.492389,0.0836 0.658283,0.25109"
           fill="#ffffff"
           id="path47"
           style="stroke-width:0.264583"
           clip-path="url(#clipPath16)" /><path
           d="m 88.175316,198.70915 v -3.16336 c 0,-0.0309 0.01535,-0.0466 0.04657,-0.0466 h 0.237331 c 0.03096,0 0.0463,0.0156 0.0463,0.0466 v 3.16336 c 0,0.031 -0.01535,0.0466 -0.0463,0.0466 h -0.237331 c -0.03122,0 -0.04657,-0.0156 -0.04657,-0.0466 m -1.074737,-2.80749 c -0.06191,0.0759 -0.09287,0.20558 -0.09287,0.3884 v 0.0931 c 0,0.0124 0.0061,0.0185 0.01852,0.0185 h 0.520964 c 0.03096,0 0.04657,0.0156 0.04657,0.0466 v 0.20928 c 0,0.0312 -0.01561,0.0466 -0.04657,0.0466 h -0.520962 c -0.01244,0 -0.01852,0.006 -0.01852,0.0185 v 1.98649 c 0,0.031 -0.01561,0.0466 -0.04657,0.0466 h -0.232569 c -0.03096,0 -0.04657,-0.0156 -0.04657,-0.0466 v -1.98649 c 0,-0.0122 -0.0063,-0.0185 -0.01852,-0.0185 h -0.311679 c -0.03096,0 -0.04657,-0.0154 -0.04657,-0.0466 v -0.20928 c 0,-0.031 0.01561,-0.0466 0.04657,-0.0466 h 0.311679 c 0.01217,0 0.01852,-0.006 0.01852,-0.0185 v -0.11166 c 0,-0.19235 0.0217,-0.34343 0.06509,-0.45349 0.04339,-0.11007 0.118798,-0.19077 0.22569,-0.2421 0.106891,-0.0511 0.256646,-0.0767 0.448998,-0.0767 h 0.134937 c 0.03096,0 0.0463,0.0156 0.0463,0.0466 v 0.19553 c 0,0.031 -0.01535,0.0463 -0.0463,0.0463 h -0.107156 c -0.170392,0 -0.286808,0.0381 -0.348985,0.11404"
           fill="#ffffff"
           id="path48"
           style="stroke-width:0.264583"
           clip-path="url(#clipPath15)" /><path
           d="m 89.689553,196.77158 c -0.100806,0.0791 -0.166687,0.18547 -0.197644,0.31856 -0.01878,0.0653 -0.03096,0.17065 -0.03731,0.31644 0,0.0124 0.0063,0.0185 0.01852,0.0185 h 1.204912 c 0.01244,0 0.01879,-0.006 0.01879,-0.0185 -0.0064,-0.13944 -0.01561,-0.23892 -0.02805,-0.29766 -0.03413,-0.1397 -0.103188,-0.25056 -0.206904,-0.33258 -0.103982,-0.0823 -0.23495,-0.12329 -0.393171,-0.12329 -0.152136,0 -0.278342,0.0394 -0.379148,0.11853 m 1.332706,0.73739 v 0.1487 c 0,0.0312 -0.01535,0.0466 -0.04657,0.0466 h -1.502569 c -0.01217,0 -0.01852,0.006 -0.01852,0.0188 0.0063,0.17066 0.01561,0.28072 0.02805,0.3302 0.03387,0.13944 0.106892,0.24977 0.218546,0.3302 0.111654,0.0807 0.254264,0.12092 0.428095,0.12092 0.130175,0 0.24474,-0.0294 0.344223,-0.0884 0.09922,-0.0587 0.176742,-0.14262 0.232569,-0.25109 0.01852,-0.0281 0.04022,-0.0341 0.06509,-0.0185 l 0.181504,0.1069 c 0.02487,0.0156 0.03096,0.0373 0.01852,0.0651 -0.07752,0.14896 -0.19394,0.26617 -0.348986,0.35137 -0.155046,0.0852 -0.333375,0.12779 -0.534987,0.12779 -0.220134,-0.003 -0.404548,-0.0558 -0.553509,-0.15822 -0.14896,-0.10239 -0.255852,-0.245 -0.320939,-0.42783 -0.05583,-0.14896 -0.08387,-0.36301 -0.08387,-0.64214 0,-0.13018 0.0024,-0.23654 0.0071,-0.31856 0.0045,-0.082 0.01614,-0.15584 0.03493,-0.22093 0.05265,-0.20161 0.15875,-0.363 0.318558,-0.48392 0.159544,-0.12091 0.35269,-0.18124 0.579173,-0.18124 0.282046,0 0.499269,0.0712 0.651139,0.21378 0.152136,0.14261 0.246592,0.34423 0.283898,0.60484 0.01244,0.0871 0.01852,0.19526 0.01852,0.3257"
           fill="#ffffff"
           id="path49"
           style="display:inline;stroke-width:0.264583"
           clip-path="url(#clipPath14)" /><path
           d="m 93.078389,197.87173 c 0.0032,-0.0683 0.0048,-0.16748 0.0048,-0.29766 0,-0.15822 -0.0016,-0.26431 -0.0048,-0.31882 -0.0032,-0.0542 -0.01085,-0.10451 -0.02328,-0.15108 -0.02487,-0.13017 -0.08599,-0.23812 -0.183621,-0.32332 -0.0979,-0.0852 -0.221192,-0.12806 -0.369888,-0.12806 -0.145785,0 -0.269081,0.0421 -0.369887,0.12568 -0.100806,0.0839 -0.17145,0.19235 -0.211667,0.3257 -0.03096,0.0995 -0.04657,0.25427 -0.04657,0.46514 0,0.22648 0.01561,0.38312 0.04657,0.4699 0.03096,0.13018 0.09843,0.23813 0.202406,0.32332 0.103982,0.0852 0.230188,0.1278 0.379148,0.1278 0.151871,0 0.276755,-0.0418 0.374386,-0.12542 0.09763,-0.0839 0.159014,-0.19076 0.183885,-0.32094 0.0093,-0.0466 0.01535,-0.10398 0.01852,-0.17224 m 0.05107,-1.47002 h 0.237331 c 0.03096,0 0.04657,0.0156 0.04657,0.0466 v 2.22832 c 0,0.34714 -0.100012,0.60166 -0.300037,0.7628 -0.200025,0.16139 -0.475456,0.24209 -0.825765,0.24209 -0.07144,0 -0.125677,-0.002 -0.162718,-0.005 -0.03096,-0.003 -0.04657,-0.0201 -0.04657,-0.0511 l 0.0093,-0.21405 c 0,-0.0156 0.0048,-0.0273 0.01402,-0.0349 0.0093,-0.008 0.02011,-0.0103 0.03254,-0.007 l 0.125677,0.005 c 0.288396,0 0.497681,-0.0566 0.627856,-0.16986 0.130175,-0.11325 0.195527,-0.29237 0.195527,-0.53711 v -0.17224 c 0,-0.006 -0.0024,-0.0101 -0.0071,-0.0116 -0.0045,-10e-4 -0.01005,7.9e-4 -0.01614,0.007 -0.14261,0.18626 -0.34581,0.27913 -0.6096,0.27913 -0.201612,0 -0.380735,-0.0542 -0.537104,-0.16272 -0.156633,-0.10848 -0.261408,-0.26194 -0.31406,-0.46064 -0.03731,-0.127 -0.05583,-0.31617 -0.05583,-0.56753 0,-0.13626 0.004,-0.25109 0.01164,-0.34422 0.0077,-0.0929 0.02408,-0.17674 0.04868,-0.25109 0.05583,-0.186 0.156633,-0.33576 0.302418,-0.449 0.145786,-0.11298 0.32094,-0.16986 0.525727,-0.16986 0.275961,0 0.485511,0.0915 0.628121,0.27464 0.0061,0.006 0.01164,0.008 0.01614,0.004 0.0048,-0.003 0.0071,-0.008 0.0071,-0.0138 v -0.18151 c 0,-0.0309 0.01535,-0.0466 0.0463,-0.0466"
           fill="#ffffff"
           id="path50"
           style="stroke-width:0.264583"
           clip-path="url(#clipPath13)" /><path
           d="m 94.564659,196.77158 c -0.100806,0.0791 -0.166687,0.18547 -0.197644,0.31856 -0.01879,0.0653 -0.03096,0.17065 -0.03731,0.31644 0,0.0124 0.0063,0.0185 0.01852,0.0185 h 1.204912 c 0.01244,0 0.01879,-0.006 0.01879,-0.0185 -0.0063,-0.13944 -0.01561,-0.23892 -0.02805,-0.29766 -0.03413,-0.1397 -0.103188,-0.25056 -0.206904,-0.33258 -0.103982,-0.0823 -0.23495,-0.12329 -0.393171,-0.12329 -0.152136,0 -0.278342,0.0394 -0.379148,0.11853 m 1.332706,0.73739 v 0.1487 c 0,0.0312 -0.01535,0.0466 -0.04657,0.0466 h -1.502569 c -0.01217,0 -0.01852,0.006 -0.01852,0.0188 0.0063,0.17066 0.01561,0.28072 0.02805,0.3302 0.03387,0.13944 0.106892,0.24977 0.218546,0.3302 0.111654,0.0807 0.254264,0.12092 0.427831,0.12092 0.130439,0 0.245004,-0.0294 0.344487,-0.0884 0.09922,-0.0587 0.176742,-0.14262 0.232569,-0.25109 0.01852,-0.0281 0.04022,-0.0341 0.06509,-0.0185 l 0.181504,0.1069 c 0.02461,0.0156 0.03096,0.0373 0.01852,0.0651 -0.07752,0.14896 -0.19394,0.26617 -0.348986,0.35137 -0.155046,0.0852 -0.333375,0.12779 -0.534987,0.12779 -0.220134,-0.003 -0.404548,-0.0558 -0.553509,-0.15822 -0.14896,-0.10239 -0.255852,-0.245 -0.320939,-0.42783 -0.05583,-0.14896 -0.08387,-0.36301 -0.08387,-0.64214 0,-0.13018 0.0024,-0.23654 0.0071,-0.31856 0.0045,-0.082 0.01614,-0.15584 0.03492,-0.22093 0.05265,-0.20161 0.15875,-0.363 0.318558,-0.48392 0.159544,-0.12091 0.35269,-0.18124 0.579173,-0.18124 0.282046,0 0.499269,0.0712 0.651139,0.21378 0.152136,0.14261 0.246592,0.34423 0.283898,0.60484 0.01244,0.0871 0.01852,0.19526 0.01852,0.3257"
           fill="#ffffff"
           id="path51"
           style="stroke-width:0.264583"
           clip-path="url(#clipPath12)" /><path
           d="m 97.935107,198.71839 -0.763058,-2.26563 -0.0048,-0.0185 c 0,-0.0217 0.01402,-0.0325 0.04207,-0.0325 h 0.264848 c 0.02805,0 0.04683,0.0124 0.05609,0.0373 l 0.581554,1.82351 c 0.0032,0.006 0.0077,0.009 0.01376,0.009 0.0063,0 0.01111,-0.003 0.01429,-0.009 l 0.58129,-1.82351 c 0.0095,-0.0249 0.02778,-0.0373 0.05583,-0.0373 l 0.265113,0.005 c 0.03413,0 0.04657,0.0169 0.03731,0.0511 l -0.763058,2.26086 c -0.0093,0.0249 -0.02778,0.0373 -0.05556,0.0373 h -0.269875 c -0.02805,0 -0.04683,-0.0124 -0.05583,-0.0373"
           fill="#ffffff"
           id="path52"
           style="stroke-width:0.264583"
           clip-path="url(#clipPath11)" /><path
           d="m 99.965572,196.77158 c -0.100806,0.0791 -0.166687,0.18547 -0.197644,0.31856 -0.01879,0.0653 -0.03096,0.17065 -0.03731,0.31644 0,0.0124 0.0063,0.0185 0.01852,0.0185 h 1.204912 c 0.0124,0 0.0188,-0.006 0.0188,-0.0185 -0.006,-0.13944 -0.0156,-0.23892 -0.028,-0.29766 -0.0341,-0.1397 -0.10318,-0.25056 -0.2069,-0.33258 -0.10398,-0.0823 -0.23495,-0.12329 -0.39317,-0.12329 -0.15213,0 -0.27834,0.0394 -0.379143,0.11853 m 1.332703,0.73739 v 0.1487 c 0,0.0312 -0.0153,0.0466 -0.0463,0.0466 h -1.502832 c -0.01217,0 -0.01852,0.006 -0.01852,0.0188 0.0063,0.17066 0.01561,0.28072 0.02805,0.3302 0.03413,0.13944 0.106892,0.24977 0.218546,0.3302 0.111656,0.0807 0.254266,0.12092 0.428096,0.12092 0.13017,0 0.24474,-0.0294 0.34422,-0.0884 0.0992,-0.0587 0.17674,-0.14262 0.23257,-0.25109 0.0185,-0.0281 0.0402,-0.0341 0.0651,-0.0185 l 0.1815,0.1069 c 0.0249,0.0156 0.031,0.0373 0.0185,0.0651 -0.0775,0.14896 -0.19394,0.26617 -0.34898,0.35137 -0.15505,0.0852 -0.33338,0.12779 -0.53499,0.12779 -0.22013,-0.003 -0.404547,-0.0558 -0.553508,-0.15822 -0.14896,-0.10239 -0.255852,-0.245 -0.320939,-0.42783 -0.05583,-0.14896 -0.08387,-0.36301 -0.08387,-0.64214 0,-0.13018 0.0024,-0.23654 0.0071,-0.31856 0.0048,-0.082 0.01614,-0.15584 0.03493,-0.22093 0.05265,-0.20161 0.159014,-0.363 0.318558,-0.48392 0.159808,-0.12091 0.352689,-0.18124 0.579169,-0.18124 0.28204,0 0.49927,0.0712 0.65114,0.21378 0.15213,0.14261 0.24685,0.34423 0.2839,0.60484 0.0124,0.0871 0.0185,0.19526 0.0185,0.3257"
           fill="#ffffff"
           id="path53"
           style="stroke-width:0.264583"
           clip-path="url(#clipPath10)" /><path
           d="m 103.12194,196.43898 c 0.0246,0.0124 0.0341,0.0325 0.0278,0.0606 l -0.0511,0.22781 c -0.009,0.0309 -0.0294,0.0405 -0.0603,0.028 -0.0529,-0.0217 -0.1135,-0.0325 -0.1815,-0.0325 l -0.0606,0.005 c -0.1614,0.006 -0.29448,0.0659 -0.40005,0.17912 -0.10531,0.11324 -0.15822,0.25664 -0.15822,0.43021 v 1.37239 c 0,0.031 -0.0153,0.0466 -0.0463,0.0466 h -0.23734 c -0.0312,0 -0.0466,-0.0156 -0.0466,-0.0466 v -2.26086 c 0,-0.031 0.0153,-0.0466 0.0466,-0.0466 h 0.23734 c 0.031,0 0.0463,0.0156 0.0463,0.0466 v 0.2839 c 0,0.009 0.002,0.0145 0.007,0.0161 0.004,0.002 0.008,-8e-4 0.0116,-0.007 0.0651,-0.11483 0.14817,-0.204 0.24871,-0.2675 0.10081,-0.0635 0.21775,-0.0955 0.35137,-0.0955 0.10239,0 0.19076,0.0204 0.26511,0.0606"
           fill="#ffffff"
           id="path54"
           style="stroke-width:0.264583"
           clip-path="url(#clipPath9)" /><path
           d="m 105.07113,197.92062 c 0.0124,-0.082 0.0185,-0.19606 0.0185,-0.34184 0,-0.15187 -0.008,-0.27067 -0.0254,-0.35587 -0.0172,-0.0852 -0.0442,-0.16192 -0.0815,-0.23045 -0.0402,-0.10213 -0.1053,-0.18441 -0.19526,-0.24659 -0.0902,-0.0619 -0.19712,-0.0929 -0.32094,-0.0929 -0.11801,0 -0.21961,0.0317 -0.3048,0.0952 -0.0855,0.0635 -0.14658,0.14817 -0.18389,0.25374 -0.031,0.0651 -0.0534,0.13943 -0.0672,0.22304 -0.0143,0.0839 -0.0209,0.20188 -0.0209,0.35375 0,0.14869 0.007,0.26432 0.0209,0.3466 0.0138,0.082 0.0349,0.15584 0.0627,0.22093 0.0402,0.10848 0.10213,0.19526 0.18601,0.26035 0.0836,0.0651 0.18759,0.0979 0.31168,0.0979 0.13017,0 0.24262,-0.0328 0.33734,-0.0979 0.0945,-0.0651 0.16034,-0.15346 0.19764,-0.26511 0.031,-0.0651 0.0526,-0.13891 0.0651,-0.22093 m 0.34899,-0.34184 c 0,0.25426 -0.0217,0.45111 -0.0651,0.59081 -0.059,0.19235 -0.1614,0.34423 -0.30692,0.45588 -0.14605,0.11165 -0.32755,0.16748 -0.54451,0.16748 -0.12409,0 -0.23733,-0.0249 -0.33973,-0.0746 -0.10213,-0.0495 -0.18732,-0.12092 -0.25585,-0.21378 -0.003,-0.006 -0.008,-0.009 -0.0138,-0.007 -0.006,0.002 -0.009,0.006 -0.009,0.0116 v 0.20003 c 0,0.0309 -0.0156,0.0466 -0.0466,0.0466 h -0.23733 c -0.0312,0 -0.0466,-0.0156 -0.0466,-0.0466 v -3.16336 c 0,-0.031 0.0153,-0.0466 0.0466,-0.0466 h 0.23733 c 0.031,0 0.0466,0.0156 0.0466,0.0466 v 1.09802 c 0,0.006 0.002,0.0101 0.007,0.0116 0.004,0.002 0.0101,-7.9e-4 0.0161,-0.007 0.0685,-0.0897 0.15372,-0.15981 0.25585,-0.20929 0.1024,-0.0495 0.21564,-0.0743 0.33973,-0.0743 0.22013,0 0.40481,0.0566 0.55377,0.16959 0.1487,0.11325 0.25109,0.26908 0.30692,0.46779 0.037,0.13943 0.0558,0.33178 0.0558,0.57679"
           fill="#ffffff"
           id="path55"
           style="stroke-width:0.264583"
           clip-path="url(#clipPath8)" /><path
           d="m 106.09459,198.70448 v -2.26086 c 0,-0.031 0.0156,-0.0466 0.0466,-0.0466 h 0.23733 c 0.0309,0 0.0463,0.0156 0.0463,0.0466 v 2.26086 c 0,0.031 -0.0153,0.0466 -0.0463,0.0466 h -0.23733 c -0.031,0 -0.0466,-0.0156 -0.0466,-0.0466 m -0.009,-2.80511 c -0.0497,-0.0495 -0.0744,-0.11166 -0.0744,-0.186 0,-0.0775 0.0246,-0.1405 0.0744,-0.18839 0.0495,-0.0482 0.11165,-0.0722 0.186,-0.0722 0.0743,0 0.13653,0.0241 0.186,0.0722 0.0497,0.0479 0.0746,0.11086 0.0746,0.18839 0,0.0743 -0.0249,0.13652 -0.0746,0.186 -0.0495,0.0497 -0.11165,0.0744 -0.186,0.0744 -0.0743,0 -0.13652,-0.0246 -0.186,-0.0744"
           fill="#ffffff"
           id="path56"
           style="stroke-width:0.264583"
           clip-path="url(#clipPath7)" /><path
           d="m 108.75783,196.58781 c 0.14737,0.14579 0.22093,0.34131 0.22093,0.58605 v 1.53538 c 0,0.031 -0.0156,0.0463 -0.0466,0.0463 h -0.23733 c -0.031,0 -0.0466,-0.0153 -0.0466,-0.0463 v -1.47003 c 0,-0.17065 -0.0516,-0.31009 -0.15557,-0.41883 -0.10425,-0.10848 -0.23813,-0.16272 -0.40243,-0.16272 -0.17066,0 -0.30877,0.0526 -0.41408,0.15822 -0.1053,0.1053 -0.15822,0.24342 -0.15822,0.41381 v 1.47955 c 0,0.031 -0.0153,0.0463 -0.0466,0.0463 h -0.23707 c -0.0312,0 -0.0466,-0.0153 -0.0466,-0.0463 v -2.26087 c 0,-0.0312 0.0153,-0.0466 0.0466,-0.0466 h 0.23707 c 0.0312,0 0.0466,0.0153 0.0466,0.0466 v 0.20003 c 0,0.006 0.002,0.0109 0.007,0.0138 0.004,0.003 0.008,0.002 0.0114,-0.005 0.13679,-0.19235 0.34608,-0.2884 0.62812,-0.2884 0.24818,0 0.44583,0.0728 0.5932,0.21855"
           fill="#ffffff"
           id="path57"
           style="stroke-width:0.264583"
           clip-path="url(#clipPath6)" /><path
           d="m 111.05357,197.92755 c 0.0124,-0.0836 0.0185,-0.20002 0.0185,-0.34899 0,-0.14869 -0.006,-0.2659 -0.0185,-0.3511 -0.0124,-0.0855 -0.0341,-0.1606 -0.0651,-0.22569 -0.0373,-0.1053 -0.0987,-0.18997 -0.18388,-0.25347 -0.0852,-0.0635 -0.1868,-0.0955 -0.30454,-0.0955 -0.12409,0 -0.23124,0.0312 -0.3212,0.0931 -0.09,0.0622 -0.15505,0.1442 -0.19526,0.24659 -0.0373,0.0683 -0.0646,0.14499 -0.0815,0.23019 -0.0169,0.0855 -0.0254,0.20399 -0.0254,0.35586 0,0.14579 0.006,0.25983 0.0185,0.34211 0.0124,0.0823 0.0341,0.15584 0.0651,0.22093 0.0373,0.11165 0.10319,0.20002 0.19765,0.26511 0.0947,0.0651 0.20716,0.0976 0.33734,0.0976 0.12409,0 0.22807,-0.0325 0.31168,-0.0976 0.0839,-0.0651 0.14578,-0.15187 0.186,-0.26061 0.0278,-0.0619 0.0482,-0.13494 0.0606,-0.21855 m 0.0696,-2.42835 h 0.23733 c 0.0309,0 0.0466,0.0156 0.0466,0.0466 v 3.16336 c 0,0.031 -0.0156,0.0466 -0.0466,0.0466 h -0.23733 c -0.031,0 -0.0466,-0.0156 -0.0466,-0.0466 v -0.19553 c 0,-0.006 -0.002,-0.0101 -0.007,-0.0116 -0.005,-0.001 -0.0103,10e-4 -0.0164,0.007 -0.0683,0.09 -0.15266,0.15981 -0.25347,0.20929 -0.10107,0.0495 -0.21325,0.0743 -0.33734,0.0743 -0.21723,0 -0.39926,-0.0558 -0.54663,-0.16748 -0.14738,-0.11166 -0.24898,-0.26353 -0.3048,-0.45588 -0.0434,-0.13944 -0.0651,-0.33629 -0.0651,-0.59082 0,-0.25717 0.0188,-0.44952 0.0558,-0.57679 0.0558,-0.19843 0.15822,-0.35427 0.30691,-0.46752 0.14896,-0.11297 0.33364,-0.16986 0.55378,-0.16986 0.12091,0 0.23256,0.0243 0.33496,0.0722 0.10239,0.0482 0.18759,0.11721 0.25585,0.20691 0.006,0.006 0.0116,0.009 0.0164,0.007 0.004,-0.002 0.007,-0.006 0.007,-0.0116 v -1.09326 c 0,-0.031 0.0156,-0.0466 0.0466,-0.0466"
           fill="#ffffff"
           id="path58"
           style="stroke-width:0.264583"
           clip-path="url(#clipPath5)" /><path
           d="m 112.60019,196.77158 c -0.10081,0.0791 -0.16669,0.18547 -0.19764,0.31856 -0.0188,0.0653 -0.031,0.17065 -0.0373,0.31644 0,0.0124 0.006,0.0185 0.0185,0.0185 h 1.20491 c 0.0124,0 0.0188,-0.006 0.0188,-0.0185 -0.006,-0.13944 -0.0156,-0.23892 -0.028,-0.29766 -0.0341,-0.1397 -0.10318,-0.25056 -0.2069,-0.33258 -0.10398,-0.0823 -0.23495,-0.12329 -0.39317,-0.12329 -0.15214,0 -0.27834,0.0394 -0.37915,0.11853 m 1.33271,0.73739 v 0.1487 c 0,0.0312 -0.0153,0.0466 -0.0466,0.0466 h -1.50257 c -0.0122,0 -0.0185,0.006 -0.0185,0.0188 0.006,0.17066 0.0156,0.28072 0.028,0.3302 0.0341,0.13944 0.10689,0.24977 0.21854,0.3302 0.11166,0.0807 0.25427,0.12092 0.42783,0.12092 0.13044,0 0.24501,-0.0294 0.34449,-0.0884 0.0992,-0.0587 0.17674,-0.14262 0.23257,-0.25109 0.0185,-0.0281 0.0402,-0.0341 0.0651,-0.0185 l 0.1815,0.1069 c 0.0246,0.0156 0.031,0.0373 0.0185,0.0651 -0.0775,0.14896 -0.19394,0.26617 -0.34898,0.35137 -0.15505,0.0852 -0.33338,0.12779 -0.53499,0.12779 -0.22013,-0.003 -0.40455,-0.0558 -0.55351,-0.15822 -0.14896,-0.10239 -0.25585,-0.245 -0.32094,-0.42783 -0.0558,-0.14896 -0.0839,-0.36301 -0.0839,-0.64214 0,-0.13018 0.002,-0.23654 0.007,-0.31856 0.005,-0.082 0.0161,-0.15584 0.0349,-0.22093 0.0526,-0.20161 0.15901,-0.363 0.31856,-0.48392 0.1598,-0.12091 0.35268,-0.18124 0.57917,-0.18124 0.28204,0 0.49927,0.0712 0.65114,0.21378 0.15213,0.14261 0.24685,0.34423 0.2839,0.60484 0.0124,0.0871 0.0185,0.19526 0.0185,0.3257"
           fill="#ffffff"
           id="path59"
           style="display:inline;stroke-width:0.264583"
           clip-path="url(#clipPath4)" /><path
           d="m 115.51942,196.67623 h -0.52573 c -0.0124,0 -0.0185,0.006 -0.0185,0.0185 v 1.37239 c 0,0.14896 0.0333,0.25348 0.10001,0.31406 0.0667,0.0603 0.17145,0.0908 0.31407,0.0908 h 0.11615 c 0.031,0 0.0466,0.0156 0.0466,0.0466 v 0.1905 c 0,0.0312 -0.0156,0.0466 -0.0466,0.0466 -0.037,0.003 -0.0945,0.005 -0.17225,0.005 -0.22304,0 -0.39237,-0.0418 -0.50694,-0.12567 -0.11483,-0.0836 -0.17198,-0.23892 -0.17198,-0.46514 v -1.47479 c 0,-0.0122 -0.006,-0.0185 -0.0188,-0.0185 h -0.28364 c -0.0312,0 -0.0466,-0.0153 -0.0466,-0.0466 v -0.1815 c 0,-0.031 0.0153,-0.0463 0.0466,-0.0463 h 0.28364 c 0.0124,0 0.0188,-0.006 0.0188,-0.0188 v -0.53948 c 0,-0.031 0.0153,-0.0466 0.0466,-0.0466 h 0.22781 c 0.031,0 0.0466,0.0156 0.0466,0.0466 v 0.53948 c 0,0.0127 0.006,0.0188 0.0185,0.0188 h 0.52573 c 0.031,0 0.0466,0.0153 0.0466,0.0463 v 0.1815 c 0,0.0312 -0.0156,0.0466 -0.0466,0.0466"
           fill="#ffffff"
           id="path60"
           style="stroke-width:0.264583"
           clip-path="url(#clipPath3)" /><path
           d="m 116.23813,198.67188 c -0.0482,-0.0495 -0.0722,-0.11165 -0.0722,-0.186 0,-0.0775 0.0241,-0.1405 0.0722,-0.18839 0.0481,-0.0481 0.11086,-0.0722 0.18838,-0.0722 0.0743,0 0.13653,0.0241 0.18601,0.0722 0.0497,0.0479 0.0746,0.11087 0.0746,0.18839 0,0.0744 -0.0249,0.13652 -0.0746,0.186 -0.0495,0.0497 -0.11166,0.0744 -0.18601,0.0744 -0.0775,0 -0.14023,-0.0246 -0.18838,-0.0744"
           fill="#ffffff"
           id="path61"
           style="display:inline;stroke-width:0.264583"
           clip-path="url(#clipPath2)" /></g></g></g></svg>
